<svg width="32" height="52" viewBox="0 0 32 52" fill="none" xmlns="http://www.w3.org/2000/svg">
<path id="$" d="M13.2699 51.8599V46.3399C10.2299 46.0599 7.66994 45.3599 5.58994 44.2399C3.50994 43.1199 1.70994 41.7199 0.189941 40.0399L5.58994 35.1199C6.74994 36.3199 8.02994 37.3199 9.42994 38.1199C10.8299 38.8799 12.3699 39.3799 14.0499 39.6199V28.8199C9.52994 27.8999 6.28994 26.4599 4.32994 24.4999C2.36994 22.5399 1.38994 20.0999 1.38994 17.1799C1.38994 14.0199 2.38994 11.4399 4.38994 9.43989C6.42994 7.43989 9.38994 6.21989 13.2699 5.77989V0.139893H20.1099V5.77989C22.5099 6.05989 24.6099 6.65989 26.4099 7.57989C28.2099 8.45989 29.7699 9.65989 31.0899 11.1799L25.6299 16.0999C24.9099 15.2999 24.0499 14.5799 23.0499 13.9399C22.0499 13.2999 20.8299 12.8199 19.3899 12.4999V22.4599C23.6299 23.4199 26.7499 24.7999 28.7499 26.5999C30.7899 28.3999 31.8099 30.8399 31.8099 33.9199C31.8099 36.8799 30.8499 39.4799 28.9299 41.7199C27.0499 43.9599 24.1099 45.4199 20.1099 46.0999V51.8599H13.2699ZM9.66994 16.9399C9.66994 18.0999 10.0099 18.9999 10.6899 19.6399C11.4099 20.2799 12.5299 20.8199 14.0499 21.2599V12.3799C12.5299 12.6999 11.4099 13.2599 10.6899 14.0599C10.0099 14.8199 9.66994 15.7799 9.66994 16.9399ZM23.5299 34.5799C23.5299 33.6999 23.2699 32.8599 22.7499 32.0599C22.2299 31.2199 21.1099 30.5399 19.3899 30.0199V39.4999C20.7899 39.0999 21.8299 38.4799 22.5099 37.6399C23.1899 36.7599 23.5299 35.7399 23.5299 34.5799Z" fill="white"/>
</svg>
