<svg width="247" height="6" viewBox="0 0 247 6" fill="none" xmlns="http://www.w3.org/2000/svg">
<path id="Vector 19" d="M246.75 3L241.75 0.113249V5.88675L246.75 3ZM0.75 3.5H3.67857V2.5H0.75V3.5ZM9.53571 3.5H15.3929V2.5H9.53571V3.5ZM21.25 3.5H27.1071V2.5H21.25V3.5ZM32.9643 3.5H38.8214V2.5H32.9643V3.5ZM44.6786 3.5H50.5357V2.5H44.6786V3.5ZM56.3929 3.5H62.25V2.5H56.3929V3.5ZM68.1071 3.5H73.9643V2.5H68.1071V3.5ZM79.8214 3.5H85.6786V2.5H79.8214V3.5ZM91.5357 3.5H97.3928V2.5H91.5357V3.5ZM103.25 3.5H109.107V2.5H103.25V3.5ZM114.964 3.5H120.821V2.5H114.964V3.5ZM126.679 3.5H132.536V2.5H126.679V3.5ZM138.393 3.5H144.25V2.5H138.393V3.5ZM150.107 3.5H155.964V2.5H150.107V3.5ZM161.821 3.5H167.679V2.5H161.821V3.5ZM173.536 3.5H179.393V2.5H173.536V3.5ZM185.25 3.5H191.107V2.5H185.25V3.5ZM196.964 3.5H202.821V2.5H196.964V3.5ZM208.679 3.5H214.536V2.5H208.679V3.5ZM220.393 3.5H226.25V2.5H220.393V3.5ZM232.107 3.5H237.964V2.5H232.107V3.5Z" fill="white"/>
</svg>
