<svg width="50" height="50" viewBox="0 0 50 50" fill="none" xmlns="http://www.w3.org/2000/svg">
<g id="Group 9">
<path id="Subtract" fill-rule="evenodd" clip-rule="evenodd" d="M38.75 25C38.75 17.4061 32.5939 11.25 25 11.25C17.4061 11.25 11.25 17.4061 11.25 25C11.25 32.5939 17.4061 38.75 25 38.75C32.5939 38.75 38.75 32.5939 38.75 25ZM30.5 25C30.5 21.9624 28.0376 19.5 25 19.5C21.9624 19.5 19.5 21.9624 19.5 25C19.5 28.0376 21.9624 30.5 25 30.5C28.0376 30.5 30.5 28.0376 30.5 25Z" fill="white"/>
<g id="Group 8">
<g id="Group 6">
<path id="Subtract_2" fill-rule="evenodd" clip-rule="evenodd" d="M37.2969 36.5994C37.7186 37.0109 38.1857 37.3732 38.698 37.6863C39.812 38.3747 41.0636 38.7189 42.4529 38.7189C43.8673 38.7189 45.1377 38.3747 46.2641 37.6863C47.3906 36.9979 48.298 36.0717 48.9864 34.9077C49.6623 33.7436 50.0002 32.4419 50.0002 31.0026V24.6192C50.0002 24.4941 49.9502 24.4315 49.8501 24.4315H42.6594C42.5217 24.4315 42.4529 24.4941 42.4529 24.6192V28.9186C42.4529 29.0438 42.5217 29.1063 42.6594 29.1063H45.3442V31.0026C45.3442 31.8662 45.0688 32.5984 44.5181 33.1992C43.9674 33.7875 43.279 34.0816 42.4529 34.0816C41.6894 34.0816 41.026 33.7812 40.4628 33.1804C39.9606 32.6336 39.6823 31.9972 39.6279 31.2712C39.5882 32.6044 39.2516 33.8165 38.618 34.9077C38.2427 35.5422 37.8024 36.1061 37.2969 36.5994ZM39.6278 18.5567C39.6828 17.8392 39.9674 17.2066 40.4816 16.6589C41.0573 16.0456 41.7144 15.7389 42.4529 15.7389C43.279 15.7389 43.9674 16.0581 44.5181 16.6964C45.0688 17.3348 45.3442 18.1421 45.3442 19.1183V20.5827C45.3442 20.6829 45.3942 20.7329 45.4944 20.7329H49.8125C49.9377 20.7329 50.0002 20.6829 50.0002 20.5827V18.8179C50.0002 17.3786 49.6623 16.0831 48.9864 14.9316C48.3231 13.7801 47.4219 12.8602 46.2829 12.1718C45.1439 11.4959 43.8673 11.1579 42.4529 11.1579C41.1011 11.1579 39.8558 11.5084 38.7168 12.2093C38.1949 12.5248 37.7216 12.8902 37.2969 13.3055C37.799 13.7965 38.2331 14.3573 38.5993 14.9879C39.2447 16.0675 39.5875 17.2571 39.6278 18.5567Z" fill="white"/>
<path id="Subtract_3" fill-rule="evenodd" clip-rule="evenodd" d="M12.7031 36.5994C12.2814 37.0109 11.8143 37.3732 11.302 37.6863C10.188 38.3747 8.9364 38.7189 7.54709 38.7189C6.13275 38.7189 4.86234 38.3747 3.73587 37.6863C2.6094 36.9979 1.70197 36.0717 1.01357 34.9077C0.337691 33.7436 -0.000248909 32.4419 -0.000248909 31.0026V24.6192C-0.000248909 24.4941 0.0498161 24.4315 0.149947 24.4315H7.34057C7.47825 24.4315 7.54709 24.4941 7.54709 24.6192V28.9186C7.54709 29.0438 7.47825 29.1063 7.34057 29.1063H4.65582V31.0026C4.65582 31.8662 4.93118 32.5984 5.4819 33.1992C6.03262 33.7875 6.72101 34.0816 7.54709 34.0816C8.31059 34.0816 8.97395 33.7812 9.53718 33.1804C10.0394 32.6336 10.3177 31.9972 10.3721 31.2712C10.4118 32.6044 10.7484 33.8165 11.382 34.9077C11.7573 35.5422 12.1976 36.1061 12.7031 36.5994ZM10.3722 18.5567C10.3172 17.8392 10.0326 17.2066 9.51841 16.6589C8.94266 16.0456 8.28555 15.7389 7.54709 15.7389C6.72101 15.7389 6.03262 16.0581 5.4819 16.6964C4.93118 17.3348 4.65582 18.1421 4.65582 19.1183V20.5827C4.65582 20.6829 4.60576 20.7329 4.50563 20.7329H0.187496C0.0623331 20.7329 -0.000248909 20.6829 -0.000248909 20.5827V18.8179C-0.000248909 17.3786 0.337691 16.0831 1.01357 14.9316C1.67694 13.7801 2.57811 12.8602 3.7171 12.1718C4.85608 11.4959 6.13275 11.1579 7.54709 11.1579C8.89885 11.1579 10.1442 11.5084 11.2832 12.2093C11.8051 12.5248 12.2784 12.8902 12.7031 13.3055C12.201 13.7965 11.7669 14.3573 11.4007 14.9879C10.7553 16.0675 10.4125 17.2571 10.3722 18.5567Z" fill="white"/>
</g>
<g id="Group 7">
<path id="Subtract_4" fill-rule="evenodd" clip-rule="evenodd" d="M36.5996 12.7034C37.0111 12.2816 37.3734 11.8146 37.6865 11.3022C38.3749 10.1883 38.7191 8.93665 38.7191 7.54734C38.7191 6.13299 38.3749 4.86259 37.6865 3.73612C36.9981 2.60965 36.0719 1.70222 34.9079 1.01382C33.7439 0.337938 32.4422 -1.88403e-06 31.0028 -1.82111e-06L24.6195 -1.54209e-06C24.4943 -1.53662e-06 24.4318 0.0500635 24.4318 0.150195L24.4318 7.34082C24.4318 7.4785 24.4943 7.54734 24.6195 7.54734L28.9189 7.54734C29.044 7.54734 29.1066 7.4785 29.1066 7.34082L29.1066 4.65607L31.0028 4.65607C31.8664 4.65607 32.5987 4.93143 33.1994 5.48215C33.7877 6.03286 34.0818 6.72126 34.0818 7.54734C34.0818 8.31083 33.7814 8.9742 33.1807 9.53743C32.6338 10.0396 31.9974 10.3179 31.2715 10.3724C32.6046 10.412 33.8168 10.7486 34.9079 11.3822C35.5425 11.7575 36.1064 12.1979 36.5996 12.7034ZM18.557 10.3724C17.8395 10.3175 17.2069 10.0329 16.6591 9.51866C16.0458 8.94291 15.7392 8.2858 15.7392 7.54734C15.7392 6.72126 16.0583 6.03286 16.6967 5.48215C17.335 4.93143 18.1423 4.65607 19.1186 4.65607L20.583 4.65607C20.6831 4.65607 20.7332 4.606 20.7332 4.50587L20.7332 0.187744C20.7332 0.0625806 20.6831 -1.37002e-06 20.583 -1.36564e-06L18.8182 -1.2885e-06C17.3788 -1.22559e-06 16.0834 0.337939 14.9319 1.01382C13.7804 1.67719 12.8604 2.57836 12.172 3.71735C11.4961 4.85633 11.1582 6.13299 11.1582 7.54734C11.1582 8.8991 11.5087 10.1445 12.2096 11.2835C12.525 11.8054 12.8904 12.2787 13.3057 12.7034C13.7968 12.2013 14.3576 11.7672 14.9882 11.401C16.0678 10.7556 17.2574 10.4127 18.557 10.3724Z" fill="white"/>
<path id="Subtract_5" fill-rule="evenodd" clip-rule="evenodd" d="M36.5996 37.2966C37.0111 37.7184 37.3734 38.1854 37.6865 38.6978C38.3749 39.8117 38.7191 41.0633 38.7191 42.4527C38.7191 43.867 38.3749 45.1374 37.6865 46.2639C36.9981 47.3903 36.0719 48.2978 34.9079 48.9862C33.7439 49.6621 32.4422 50 31.0028 50L24.6195 50C24.4943 50 24.4318 49.9499 24.4318 49.8498L24.4318 42.6592C24.4318 42.5215 24.4943 42.4527 24.6195 42.4527L28.9189 42.4527C29.044 42.4527 29.1066 42.5215 29.1066 42.6592L29.1066 45.3439L31.0028 45.3439C31.8664 45.3439 32.5987 45.0686 33.1994 44.5178C33.7877 43.9671 34.0818 43.2787 34.0818 42.4527C34.0818 41.6892 33.7814 41.0258 33.1807 40.4626C32.6338 39.9604 31.9974 39.6821 31.2715 39.6276C32.6046 39.588 33.8168 39.2514 34.9079 38.6178C35.5425 38.2425 36.1064 37.8021 36.5996 37.2966ZM18.557 39.6276C17.8395 39.6825 17.2069 39.9671 16.6591 40.4813C16.0458 41.0571 15.7392 41.7142 15.7392 42.4527C15.7392 43.2787 16.0583 43.9671 16.6967 44.5179C17.335 45.0686 18.1423 45.3439 19.1186 45.3439L20.583 45.3439C20.6831 45.3439 20.7332 45.394 20.7332 45.4941L20.7332 49.8123C20.7332 49.9374 20.6831 50 20.583 50L18.8182 50C17.3788 50 16.0834 49.6621 14.9319 48.9862C13.7804 48.3228 12.8604 47.4216 12.172 46.2827C11.4961 45.1437 11.1582 43.867 11.1582 42.4527C11.1582 41.1009 11.5087 39.8555 12.2096 38.7165C12.525 38.1946 12.8904 37.7213 13.3057 37.2966C13.7968 37.7987 14.3576 38.2328 14.9882 38.599C16.0678 39.2444 17.2574 39.5873 18.557 39.6276Z" fill="white"/>
</g>
</g>
</g>
</svg>
