<svg width="50" height="50" viewBox="0 0 50 50" fill="none" xmlns="http://www.w3.org/2000/svg">
<g id="Group 9">
<path id="Subtract" fill-rule="evenodd" clip-rule="evenodd" d="M38.75 25C38.75 17.4061 32.5939 11.25 25 11.25C17.4061 11.25 11.25 17.4061 11.25 25C11.25 32.5939 17.4061 38.75 25 38.75C32.5939 38.75 38.75 32.5939 38.75 25ZM30.5 25C30.5 21.9624 28.0376 19.5 25 19.5C21.9624 19.5 19.5 21.9624 19.5 25C19.5 28.0376 21.9624 30.5 25 30.5C28.0376 30.5 30.5 28.0376 30.5 25Z" fill="url(#paint0_radial_90_157)"/>
<g id="Group 8">
<g id="Group 6">
<path id="Subtract_2" fill-rule="evenodd" clip-rule="evenodd" d="M37.2966 36.5994C37.7184 37.0109 38.1854 37.3732 38.6978 37.6863C39.8117 38.3747 41.0634 38.7189 42.4527 38.7189C43.867 38.7189 45.1374 38.3747 46.2639 37.6863C47.3904 36.9979 48.2978 36.0717 48.9862 34.9077C49.6621 33.7436 50 32.4419 50 31.0026V24.6192C50 24.4941 49.9499 24.4315 49.8498 24.4315H42.6592C42.5215 24.4315 42.4527 24.4941 42.4527 24.6192V28.9186C42.4527 29.0438 42.5215 29.1063 42.6592 29.1063H45.3439V31.0026C45.3439 31.8662 45.0686 32.5984 44.5179 33.1992C43.9671 33.7875 43.2787 34.0816 42.4527 34.0816C41.6892 34.0816 41.0258 33.7812 40.4626 33.1804C39.9604 32.6336 39.6821 31.9972 39.6276 31.2712C39.588 32.6044 39.2514 33.8165 38.6178 34.9077C38.2425 35.5422 37.8021 36.1061 37.2966 36.5994ZM39.6276 18.5567C39.6825 17.8392 39.9671 17.2066 40.4813 16.6589C41.0571 16.0456 41.7142 15.7389 42.4527 15.7389C43.2787 15.7389 43.9671 16.0581 44.5179 16.6964C45.0686 17.3348 45.3439 18.1421 45.3439 19.1183V20.5827C45.3439 20.6829 45.394 20.7329 45.4941 20.7329H49.8123C49.9374 20.7329 50 20.6829 50 20.5827V18.8179C50 17.3786 49.6621 16.0831 48.9862 14.9316C48.3228 13.7801 47.4216 12.8602 46.2827 12.1718C45.1437 11.4959 43.867 11.1579 42.4527 11.1579C41.1009 11.1579 39.8555 11.5084 38.7165 12.2093C38.1946 12.5248 37.7213 12.8902 37.2966 13.3055C37.7987 13.7965 38.2328 14.3573 38.599 14.9879C39.2444 16.0675 39.5873 17.2571 39.6276 18.5567Z" fill="#48FF7B"/>
<path id="Subtract_3" fill-rule="evenodd" clip-rule="evenodd" d="M12.7034 36.5994C12.2816 37.0109 11.8146 37.3732 11.3022 37.6863C10.1883 38.3747 8.93666 38.7189 7.54734 38.7189C6.133 38.7189 4.86259 38.3747 3.73613 37.6863C2.60966 36.9979 1.70222 36.0717 1.01383 34.9077C0.337945 33.7436 5.24521e-06 32.4419 5.24521e-06 31.0026V24.6192C5.24521e-06 24.4941 0.0500703 24.4315 0.150201 24.4315H7.34083C7.4785 24.4315 7.54734 24.4941 7.54734 24.6192V28.9186C7.54734 29.0438 7.4785 29.1063 7.34083 29.1063H4.65608V31.0026C4.65608 31.8662 4.93143 32.5984 5.48215 33.1992C6.03287 33.7875 6.72127 34.0816 7.54734 34.0816C8.31084 34.0816 8.9742 33.7812 9.53744 33.1804C10.0396 32.6336 10.3179 31.9972 10.3724 31.2712C10.412 32.6044 10.7486 33.8165 11.3822 34.9077C11.7575 35.5422 12.1979 36.1061 12.7034 36.5994ZM10.3724 18.5567C10.3175 17.8392 10.0329 17.2066 9.51866 16.6589C8.94291 16.0456 8.28581 15.7389 7.54734 15.7389C6.72127 15.7389 6.03287 16.0581 5.48215 16.6964C4.93143 17.3348 4.65608 18.1421 4.65608 19.1183V20.5827C4.65608 20.6829 4.60601 20.7329 4.50588 20.7329H0.18775C0.0625873 20.7329 5.24521e-06 20.6829 5.24521e-06 20.5827V18.8179C5.24521e-06 17.3786 0.337945 16.0831 1.01383 14.9316C1.67719 13.7801 2.57837 12.8602 3.71735 12.1718C4.85634 11.4959 6.133 11.1579 7.54734 11.1579C8.89911 11.1579 10.1445 11.5084 11.2835 12.2093C11.8054 12.5248 12.2787 12.8902 12.7034 13.3055C12.2013 13.7965 11.7672 14.3573 11.401 14.9879C10.7556 16.0675 10.4127 17.2571 10.3724 18.5567Z" fill="#48FF7B"/>
</g>
<g id="Group 7">
<path id="Subtract_4" fill-rule="evenodd" clip-rule="evenodd" d="M36.5994 12.7034C37.0109 12.2816 37.3732 11.8146 37.6863 11.3022C38.3747 10.1883 38.7189 8.93665 38.7189 7.54734C38.7189 6.13299 38.3747 4.86259 37.6863 3.73612C36.9979 2.60965 36.0717 1.70222 34.9077 1.01382C33.7436 0.337938 32.4419 -1.88403e-06 31.0026 -1.82111e-06L24.6192 -1.54209e-06C24.4941 -1.53662e-06 24.4315 0.0500635 24.4315 0.150195L24.4315 7.34082C24.4315 7.4785 24.4941 7.54734 24.6192 7.54734L28.9186 7.54734C29.0438 7.54734 29.1063 7.4785 29.1063 7.34082L29.1063 4.65607L31.0026 4.65607C31.8662 4.65607 32.5984 4.93143 33.1992 5.48215C33.7874 6.03286 34.0816 6.72126 34.0816 7.54734C34.0816 8.31083 33.7812 8.9742 33.1804 9.53743C32.6336 10.0396 31.9972 10.3179 31.2712 10.3724C32.6044 10.412 33.8165 10.7486 34.9077 11.3822C35.5422 11.7575 36.1061 12.1979 36.5994 12.7034ZM18.5567 10.3724C17.8392 10.3175 17.2066 10.0329 16.6589 9.51866C16.0456 8.94291 15.7389 8.2858 15.7389 7.54734C15.7389 6.72126 16.0581 6.03286 16.6964 5.48215C17.3348 4.93143 18.1421 4.65607 19.1183 4.65607L20.5827 4.65607C20.6829 4.65607 20.7329 4.606 20.7329 4.50587L20.7329 0.187744C20.7329 0.0625806 20.6829 -1.37002e-06 20.5827 -1.36564e-06L18.8179 -1.2885e-06C17.3786 -1.22559e-06 16.0831 0.337939 14.9316 1.01382C13.7801 1.67719 12.8602 2.57836 12.1718 3.71735C11.4959 4.85633 11.1579 6.13299 11.1579 7.54734C11.1579 8.8991 11.5084 10.1445 12.2093 11.2835C12.5248 11.8054 12.8902 12.2787 13.3055 12.7034C13.7965 12.2013 14.3573 11.7672 14.9879 11.401C16.0675 10.7556 17.2571 10.4127 18.5567 10.3724Z" fill="#DD7DFF"/>
<path id="Subtract_5" fill-rule="evenodd" clip-rule="evenodd" d="M36.5994 37.2966C37.0109 37.7184 37.3732 38.1854 37.6863 38.6978C38.3747 39.8117 38.7189 41.0633 38.7189 42.4527C38.7189 43.867 38.3747 45.1374 37.6863 46.2639C36.9979 47.3903 36.0717 48.2978 34.9077 48.9862C33.7436 49.6621 32.4419 50 31.0026 50L24.6192 50C24.4941 50 24.4315 49.9499 24.4315 49.8498L24.4315 42.6592C24.4315 42.5215 24.4941 42.4527 24.6192 42.4527L28.9186 42.4527C29.0438 42.4527 29.1063 42.5215 29.1063 42.6592L29.1063 45.3439L31.0026 45.3439C31.8662 45.3439 32.5984 45.0686 33.1992 44.5179C33.7875 43.9671 34.0816 43.2787 34.0816 42.4527C34.0816 41.6892 33.7812 41.0258 33.1804 40.4626C32.6336 39.9604 31.9972 39.6821 31.2712 39.6276C32.6044 39.588 33.8165 39.2514 34.9077 38.6178C35.5422 38.2425 36.1061 37.8021 36.5994 37.2966ZM18.5567 39.6276C17.8392 39.6825 17.2066 39.9671 16.6589 40.4813C16.0456 41.0571 15.7389 41.7142 15.7389 42.4527C15.7389 43.2787 16.0581 43.9671 16.6964 44.5179C17.3348 45.0686 18.1421 45.3439 19.1183 45.3439L20.5827 45.3439C20.6829 45.3439 20.7329 45.394 20.7329 45.4941L20.7329 49.8123C20.7329 49.9374 20.6829 50 20.5827 50L18.8179 50C17.3786 50 16.0831 49.6621 14.9316 48.9862C13.7801 48.3228 12.8602 47.4216 12.1718 46.2827C11.4959 45.1437 11.1579 43.867 11.1579 42.4527C11.1579 41.1009 11.5084 39.8555 12.2093 38.7165C12.5248 38.1946 12.8902 37.7213 13.3055 37.2966C13.7965 37.7987 14.3573 38.2328 14.9879 38.599C16.0675 39.2444 17.2571 39.5873 18.5567 39.6276Z" fill="#DD7DFF"/>
</g>
</g>
</g>
<defs>
<radialGradient id="paint0_radial_90_157" cx="0" cy="0" r="1" gradientUnits="userSpaceOnUse" gradientTransform="translate(25 26.5) rotate(6.11552) scale(14.0801 665.966)">
<stop stop-color="#DD7DFF"/>
<stop offset="1" stop-color="#48FF7B" stop-opacity="0.83"/>
</radialGradient>
</defs>
</svg>
