<svg width="40" height="40" viewBox="0 0 40 40" fill="none" xmlns="http://www.w3.org/2000/svg">
<g id="Group 10">
<path id="Subtract" fill-rule="evenodd" clip-rule="evenodd" d="M31 20C31 13.9249 26.0751 9 20 9C13.9249 9 9 13.9249 9 20C9 26.0751 13.9249 31 20 31C26.0751 31 31 26.0751 31 20ZM24.4 20C24.4 17.5699 22.4301 15.6 20 15.6C17.5699 15.6 15.6 17.5699 15.6 20C15.6 22.43 17.5699 24.4 20 24.4C22.4301 24.4 24.4 22.43 24.4 20Z" fill="white"/>
<path id="Subtract_2" fill-rule="evenodd" clip-rule="evenodd" d="M31.7017 14.8453C31.7456 14.2713 31.9733 13.7652 32.3847 13.327C32.8453 12.8364 33.371 12.591 33.9617 12.591C34.6226 12.591 35.1733 12.8464 35.6139 13.357C36.0545 13.8677 36.2748 14.5136 36.2748 15.2946V16.4661C36.2748 16.5462 36.3148 16.5863 36.3949 16.5863H39.8494C39.9495 16.5863 39.9996 16.5462 39.9996 16.4661V15.0543C39.9996 13.9028 39.7293 12.8664 39.1886 11.9452C38.6579 11.024 37.9369 10.288 37.0257 9.73733C36.1145 9.19662 35.0932 8.92627 33.9617 8.92627C32.8803 8.92627 31.884 9.20663 30.9728 9.76737C30.5553 10.0197 30.1767 10.312 29.8369 10.6443C30.2386 11.0371 30.5859 11.4858 30.8788 11.9903C31.3951 12.8539 31.6694 13.8056 31.7017 14.8453Z" fill="#19BAFF"/>
<path id="Subtract_3" d="M29.8369 29.2792C30.1743 29.6084 30.5479 29.8983 30.9578 30.1487C31.849 30.6995 32.8503 30.9748 33.9617 30.9748C35.0932 30.9748 36.1095 30.6995 37.0107 30.1487C37.9119 29.598 38.6378 28.8571 39.1886 27.9258C39.7293 26.9946 39.9996 25.9533 39.9996 24.8018V19.6951C39.9996 19.595 39.9596 19.5449 39.8795 19.5449H34.127C34.0168 19.5449 33.9617 19.595 33.9617 19.6951V23.1346C33.9617 23.2347 34.0168 23.2848 34.127 23.2848H36.2748V24.8018C36.2748 25.4927 36.0545 26.0784 35.6139 26.5591C35.1733 27.0297 34.6226 27.265 33.9617 27.265C33.3509 27.265 32.8203 27.0247 32.3697 26.544C31.9679 26.1066 31.7453 25.5975 31.7017 25.0167C31.67 26.0832 31.4007 27.0529 30.8938 27.9258C30.5936 28.4335 30.2413 28.8846 29.8369 29.2792Z" fill="#FF4259"/>
<path id="Subtract_4" fill-rule="evenodd" clip-rule="evenodd" d="M10.1631 29.2792C9.8257 29.6084 9.45206 29.8983 9.04217 30.1487C8.15101 30.6995 7.14971 30.9748 6.03826 30.9748C4.90678 30.9748 3.89046 30.6995 2.98928 30.1487C2.08811 29.598 1.36216 28.8571 0.811445 27.9258C0.270741 26.9946 0.000388145 25.9533 0.000388145 24.8018V19.6951C0.000388145 19.595 0.0404396 19.5449 0.120544 19.5449H5.87304C5.98319 19.5449 6.03826 19.595 6.03826 19.6951V23.1346C6.03826 23.2347 5.98319 23.2848 5.87304 23.2848H3.72524V24.8018C3.72524 25.4927 3.94553 26.0784 4.38611 26.5591C4.82668 27.0297 5.3774 27.265 6.03826 27.265C6.64906 27.265 7.17975 27.0247 7.63033 26.544C8.03209 26.1066 8.25474 25.5975 8.29828 25.0167C8.33 26.0832 8.5993 27.0529 9.10616 27.9258C9.40639 28.4335 9.7587 28.8846 10.1631 29.2792Z" fill="#19BAFF"/>
<path id="Subtract_5" d="M8.29832 14.8453C8.25436 14.2713 8.02669 13.7652 7.61531 13.327C7.15471 12.8364 6.62903 12.591 6.03826 12.591C5.3774 12.591 4.82668 12.8464 4.38611 13.357C3.94553 13.8677 3.72524 14.5136 3.72524 15.2946V16.4661C3.72524 16.5462 3.68519 16.5863 3.60509 16.5863H0.150583C0.0504532 16.5863 0.000388145 16.5462 0.000388145 16.4661V15.0543C0.000388145 13.9028 0.270741 12.8664 0.811445 11.9452C1.34214 11.024 2.06308 10.288 2.97426 9.73733C3.88545 9.19662 4.90678 8.92627 6.03826 8.92627C7.11967 8.92627 8.11597 9.20663 9.02716 9.76737C9.4447 10.0197 9.82334 10.312 10.1631 10.6443C9.76141 11.0371 9.41411 11.4858 9.12118 11.9903C8.60486 12.8539 8.33057 13.8056 8.29832 14.8453Z" fill="#FF4259"/>
<path id="Subtract_6" fill-rule="evenodd" clip-rule="evenodd" d="M29.2792 10.1626C29.6084 9.82521 29.8983 9.45157 30.1487 9.04169C30.6995 8.15052 30.9748 7.14922 30.9748 6.03777C30.9748 4.9063 30.6995 3.88997 30.1487 2.9888C29.598 2.08762 28.8571 1.36167 27.9258 0.810957C26.9946 0.270252 25.9533 -0.000100416 24.8018 -0.000100366L19.6951 -0.000100142C19.595 -0.000100138 19.5449 0.0399513 19.5449 0.120056L19.5449 5.87256C19.5449 5.9827 19.595 6.03777 19.6951 6.03777L23.1346 6.03777C23.2347 6.03777 23.2848 5.9827 23.2848 5.87256L23.2848 3.72476L24.8018 3.72476C25.4927 3.72476 26.0784 3.94504 26.5591 4.38562C27.0297 4.82619 27.265 5.37691 27.265 6.03777C27.265 6.64857 27.0247 7.17926 26.544 7.62985C26.1066 8.0316 25.5975 8.25425 25.0167 8.29779C26.0832 8.32951 27.0529 8.59881 27.9258 9.10567C28.4335 9.4059 28.8846 9.75821 29.2792 10.1626Z" fill="#19BAFF"/>
<path id="Subtract_7" d="M14.8458 8.29784C14.2718 8.25387 13.7657 8.0262 13.3275 7.61483C12.8369 7.15423 12.5915 6.62854 12.5915 6.03777C12.5915 5.37691 12.8469 4.82619 13.3575 4.38562C13.8682 3.94504 14.514 3.72476 15.2951 3.72476L16.4666 3.72475C16.5467 3.72475 16.5867 3.6847 16.5867 3.6046L16.5867 0.150095C16.5867 0.0499646 16.5467 -0.000100469 16.4666 -0.000100465L15.0547 -0.000100404C13.9032 -0.000100353 12.8669 0.270252 11.9457 0.810957C11.0245 1.34165 10.2885 2.06259 9.73781 2.97378C9.19711 3.88496 8.92676 4.9063 8.92676 6.03777C8.92676 7.11918 9.20712 8.11548 9.76785 9.02667C10.0202 9.44421 10.3125 9.82285 10.6448 10.1626C11.0376 9.76093 11.4863 9.41362 11.9908 9.12069C12.8544 8.60437 13.8061 8.33008 14.8458 8.29784Z" fill="#70FF92"/>
<path id="Subtract_8" fill-rule="evenodd" clip-rule="evenodd" d="M14.8458 31.7022C14.2718 31.7461 13.7657 31.9738 13.3275 32.3852C12.8369 32.8458 12.5915 33.3715 12.5915 33.9622C12.5915 34.6231 12.8469 35.1738 13.3575 35.6144C13.8682 36.055 14.514 36.2752 15.2951 36.2752L16.4666 36.2752C16.5467 36.2752 16.5867 36.3153 16.5867 36.3954L16.5867 39.8499C16.5867 39.95 16.5467 40.0001 16.4666 40.0001L15.0547 40.0001C13.9032 40.0001 12.8669 39.7297 11.9457 39.189C11.0245 38.6583 10.2885 37.9374 9.73782 37.0262C9.19711 36.115 8.92676 35.0937 8.92676 33.9622C8.92676 32.8808 9.20712 31.8845 9.76785 30.9733C10.0202 30.5558 10.3125 30.1771 10.6448 29.8374C11.0376 30.2391 11.4863 30.5864 11.9908 30.8793C12.8544 31.3956 13.8061 31.6699 14.8458 31.7022Z" fill="#19BAFF"/>
<path id="Subtract_9" d="M29.2792 29.8374C29.6084 30.1748 29.8983 30.5484 30.1487 30.9583C30.6995 31.8495 30.9748 32.8508 30.9748 33.9622C30.9748 35.0937 30.6995 36.11 30.1487 37.0112C29.598 37.9124 28.8571 38.6383 27.9258 39.189C26.9946 39.7297 25.9533 40.0001 24.8018 40.0001L19.6951 40.0001C19.595 40.0001 19.5449 39.96 19.5449 39.8799L19.5449 34.1274C19.5449 34.0173 19.595 33.9622 19.6951 33.9622L23.1346 33.9622C23.2347 33.9622 23.2848 34.0173 23.2848 34.1274L23.2848 36.2752L24.8018 36.2752C25.4927 36.2752 26.0784 36.055 26.5591 35.6144C27.0297 35.1738 27.265 34.6231 27.265 33.9622C27.265 33.3514 27.0247 32.8207 26.544 32.3702C26.1066 31.9684 25.5975 31.7457 25.0167 31.7022C26.0832 31.6705 27.0529 31.4012 27.9258 30.8943C28.4335 30.5941 28.8846 30.2418 29.2792 29.8374Z" fill="#70FF92"/>
</g>
</svg>
