<svg width="30" height="30" viewBox="0 0 30 30" fill="none" xmlns="http://www.w3.org/2000/svg">
<g id="M_Atom " clip-path="url(#clip0_85_11)">
<path id="Vector" d="M15 30C23.2843 30 30 23.2843 30 15C30 6.71573 23.2843 0 15 0C6.71573 0 0 6.71573 0 15C0 23.2843 6.71573 30 15 30Z" fill="#2E3148"/>
<path id="Vector_2" d="M15 23.7037C19.8069 23.7037 23.7037 19.8069 23.7037 15C23.7037 10.1931 19.8069 6.29626 15 6.29626C10.1931 6.29626 6.2963 10.1931 6.2963 15C6.2963 19.8069 10.1931 23.7037 15 23.7037Z" fill="#1B1E36"/>
<path id="Vector_3" d="M15.0308 1.91364C13.4117 1.91364 12.0988 7.78643 12.0988 15.031C12.0988 22.2755 13.4117 28.1483 15.0308 28.1483C16.65 28.1483 17.9629 22.2755 17.9629 15.031C17.9629 7.78643 16.65 1.91364 15.0308 1.91364ZM15.2333 27.408C15.0481 27.655 14.863 27.4697 14.863 27.4697C14.1173 26.6057 13.7444 25.0006 13.7444 25.0006C12.4402 20.8031 12.7506 11.7907 12.7506 11.7907C13.3636 4.63583 14.4786 2.94564 14.858 2.5704C14.8968 2.5321 14.9478 2.50869 15.0021 2.5043C15.0564 2.49992 15.1105 2.51482 15.1549 2.5464C15.7055 2.93652 16.1672 4.56804 16.1672 4.56804C17.5308 9.62976 17.4073 14.3828 17.4073 14.3828C17.5308 18.5186 16.724 23.1482 16.724 23.1482C16.103 26.6666 15.2333 27.408 15.2333 27.408Z" fill="#6F7390"/>
<path id="Vector_4" d="M26.4086 8.50309C25.6025 7.09813 19.8555 8.88205 13.5686 12.4871C7.28171 16.0921 2.84699 20.1538 3.65255 21.5581C4.45811 22.9625 10.2056 21.1792 16.4925 17.5741C22.7795 13.9691 27.2142 9.90745 26.4086 8.50309ZM4.39631 21.3654C4.08767 21.3265 4.15739 21.0728 4.15739 21.0728C4.53599 19.9963 5.74079 18.8741 5.74079 18.8741C8.73395 15.6538 16.7063 11.4383 16.7063 11.4383C23.2167 8.40925 25.239 8.53705 25.752 8.67829C25.8046 8.69299 25.8504 8.72585 25.8812 8.77105C25.9119 8.81625 25.9257 8.87087 25.92 8.92525C25.8583 9.59725 24.67 10.8092 24.67 10.8092C20.9605 14.5123 16.776 16.771 16.776 16.771C13.25 18.937 8.83283 20.54 8.83283 20.54C5.47175 21.7512 4.39643 21.3654 4.39643 21.3654H4.39631Z" fill="#6F7390"/>
<path id="Vector_5" d="M26.3802 21.6049C27.1926 20.2037 22.769 16.1234 16.5042 12.4913C10.2394 8.85911 4.49317 7.05311 3.68149 8.45675C2.86981 9.86039 7.29265 13.9382 13.5611 17.5704C19.8295 21.2025 25.5685 23.0087 26.3802 21.6049ZM4.21981 8.99819C4.09981 8.71367 4.35313 8.64515 4.35313 8.64515C5.47465 8.43335 7.05001 8.91599 7.05001 8.91599C11.3358 9.89195 18.978 14.679 18.978 14.679C24.862 18.7963 25.7644 20.6099 25.8996 21.1247C25.9134 21.1775 25.908 21.2334 25.8845 21.2827C25.861 21.3319 25.8209 21.3713 25.7712 21.3938C25.1576 21.6747 23.5144 21.2562 23.5144 21.2562C18.4495 19.8981 14.3989 17.4099 14.3989 17.4099C10.7594 15.447 7.16065 12.4266 7.16065 12.4266C4.42609 10.1241 4.22065 9.00131 4.22065 9.00131L4.21981 8.99819Z" fill="#6F7390"/>
<path id="Vector_6" d="M15 16.5432C15.8523 16.5432 16.5432 15.8523 16.5432 15C16.5432 14.1477 15.8523 13.4568 15 13.4568C14.1477 13.4568 13.4568 14.1477 13.4568 15C13.4568 15.8523 14.1477 16.5432 15 16.5432Z" fill="#B7B9C8"/>
<path id="Vector_7" d="M21.3271 9.99997C21.8215 9.99997 22.2222 9.58542 22.2222 9.07405C22.2222 8.56268 21.8215 8.14813 21.3271 8.14813C20.8328 8.14813 20.432 8.56268 20.432 9.07405C20.432 9.58542 20.8328 9.99997 21.3271 9.99997Z" fill="#B7B9C8"/>
<path id="Vector_8" d="M6.63577 13.1482C7.13011 13.1482 7.53085 12.7336 7.53085 12.2222C7.53085 11.7109 7.13011 11.2963 6.63577 11.2963C6.14143 11.2963 5.74069 11.7109 5.74069 12.2222C5.74069 12.7336 6.14143 13.1482 6.63577 13.1482Z" fill="#B7B9C8"/>
<path id="Vector_9" d="M13.179 24.5061C13.6734 24.5061 14.0741 24.0916 14.0741 23.5802C14.0741 23.0688 13.6734 22.6543 13.179 22.6543C12.6847 22.6543 12.2839 23.0688 12.2839 23.5802C12.2839 24.0916 12.6847 24.5061 13.179 24.5061Z" fill="#B7B9C8"/>
</g>
<defs>
<clipPath id="clip0_85_11">
<rect width="30" height="30" fill="white"/>
</clipPath>
</defs>
</svg>
