<svg width="252" height="217" viewBox="0 0 252 217" fill="none" xmlns="http://www.w3.org/2000/svg">
<g id="Group 35">
<path id="Vector 11" opacity="0.7" d="M153.312 31.2648L159.871 175.557L101.389 177.196L109.041 30.7183L113.596 35.6373L120.154 39.4632L125.62 41.1029L131.086 41.6495L137.462 41.1029L142.381 39.4632L148.94 36.1839L153.312 31.2648Z" fill="url(#paint0_linear_69_280)"/>
<g id="Group" style="mix-blend-mode:overlay">
<g id="Clip path group">
<mask id="mask0_69_280" style="mask-type:luminance" maskUnits="userSpaceOnUse" x="112" y="85" width="37" height="37">
<g id="SVGID_00000038405205658927356540000017073000799502443169_">
<path id="Vector" d="M130.527 121.241C140.281 121.241 148.187 113.334 148.187 103.581C148.187 93.8274 140.281 85.9207 130.527 85.9207C120.774 85.9207 112.867 93.8274 112.867 103.581C112.867 113.334 120.774 121.241 130.527 121.241Z" fill="white"/>
</g>
</mask>
<g mask="url(#mask0_69_280)">
<path id="Vector_2" d="M148.23 101.516C148.23 102.854 148.23 104.193 148.209 105.553C148.159 105.617 148.123 105.653 148.116 105.696C148.031 106.764 147.781 107.789 147.468 108.808C146.927 110.581 146.143 112.24 145.047 113.735C144.434 114.569 143.765 115.373 143.06 116.128C142.569 116.655 141.978 117.104 141.408 117.559C140.055 118.656 138.552 119.482 136.929 120.109C135.569 120.636 134.173 120.999 132.72 121.156C132.678 121.163 132.642 121.227 132.606 121.269C131.268 121.269 129.929 121.269 128.569 121.248C128.505 121.198 128.469 121.163 128.426 121.156C127.358 121.07 126.333 120.821 125.314 120.507C123.541 119.966 121.882 119.183 120.387 118.079C119.554 117.467 118.742 116.805 117.994 116.085C117.375 115.487 116.833 114.804 116.306 114.12C115.338 112.852 114.583 111.457 114.013 109.961C113.494 108.608 113.123 107.213 112.967 105.76C112.959 105.717 112.895 105.682 112.853 105.646C112.853 104.307 112.853 102.968 112.874 101.608C112.924 101.544 112.959 101.509 112.967 101.466C113.031 101.067 113.073 100.661 113.145 100.262C113.572 97.9054 114.476 95.7406 115.794 93.7538C116.513 92.6785 117.325 91.6745 118.286 90.8057C118.877 90.2716 119.497 89.7732 120.102 89.2889C120.102 93.5616 120.095 97.8057 120.102 102.05C120.102 102.733 120.13 103.424 120.223 104.108C120.679 107.383 122.395 109.769 125.45 111.051C128.597 112.375 131.859 112.382 135.063 111.279C137.741 110.353 139.571 108.494 140.475 105.774C140.788 104.834 140.959 103.866 140.959 102.883C140.974 98.3469 140.966 93.8037 140.988 89.2676C141.686 89.8515 142.398 90.3998 143.039 91.0193C143.573 91.5392 144.036 92.1302 144.513 92.707C145.624 94.0671 146.457 95.591 147.083 97.2289C147.603 98.5748 147.959 99.9634 148.116 101.402C148.123 101.445 148.194 101.48 148.23 101.516Z" fill="white"/>
</g>
</g>
<g id="Clip path group_2">
<mask id="mask1_69_280" style="mask-type:luminance" maskUnits="userSpaceOnUse" x="112" y="85" width="37" height="37">
<g id="SVGID_00000038405205658927356540000017073000799502443169__2">
<path id="Vector_3" d="M130.527 121.241C140.281 121.241 148.187 113.334 148.187 103.581C148.187 93.8274 140.281 85.9207 130.527 85.9207C120.774 85.9207 112.867 93.8274 112.867 103.581C112.867 113.334 120.774 121.241 130.527 121.241Z" fill="white"/>
</g>
</mask>
<g mask="url(#mask1_69_280)">
<path id="Vector_4" d="M128.476 85.8921C129.815 85.8921 131.154 85.8921 132.514 85.9135C132.77 85.9775 133.005 86.0203 133.233 86.0701C133.945 86.2268 134.664 86.3834 135.369 86.5686C135.355 86.7252 135.355 86.8534 135.355 86.9745C135.355 92.0945 135.362 97.2145 135.348 102.335C135.348 102.904 135.298 103.474 135.191 104.029C134.878 105.653 133.995 106.814 132.35 107.262C131.147 107.59 129.922 107.59 128.718 107.241C127.323 106.835 126.361 105.952 126.012 104.521C125.834 103.794 125.735 103.032 125.728 102.285C125.706 97.1647 125.713 92.0447 125.713 86.9246C125.713 86.7965 125.706 86.6683 125.728 86.533C126.611 86.3478 127.472 86.1769 128.334 85.9989C128.384 85.9918 128.426 85.9348 128.476 85.8921Z" fill="white"/>
</g>
</g>
</g>
<g id="Group 33">
<path id="Ellipse 7" d="M162.951 194.525C162.951 200.39 159.489 205.753 153.784 209.67C148.081 213.585 140.176 216.022 131.422 216.022C122.667 216.022 114.762 213.585 109.059 209.67C103.354 205.753 99.8921 200.39 99.8921 194.525C99.8921 188.66 103.354 183.297 109.059 179.38C114.762 175.465 122.667 173.028 131.422 173.028C140.176 173.028 148.081 175.465 153.784 179.38C159.489 183.297 162.951 188.66 162.951 194.525Z" stroke="url(#paint1_linear_69_280)" stroke-width="0.955436"/>
<path id="Vector 5" d="M1.48223 105.412V77.8788L29.888 96.0398L30.1453 96.2044L30.4027 96.0398L58.7937 77.8882L58.3348 105.417L30.6708 124.696L1.48223 105.412Z" fill="url(#paint2_linear_69_280)" fill-opacity="0.2" stroke="#58D6A9" stroke-width="0.955436"/>
<path id="Vector 6" d="M30.1453 95.6372V125.819" stroke="#58D6A9" stroke-width="0.955436"/>
<path id="Vector 3" d="M1.16376 105.597L103.714 176.372M159.607 172.55L250.851 105.669" stroke="#58D6A9" stroke-width="0.955436"/>
<path id="Vector 4" d="M152.948 31.4761L209.608 67.3379M109.041 30.1719L47.3432 68.4075" stroke="#58D6A9" stroke-width="0.955436"/>
<path id="Vector 7" d="M30.623 57.4199L1.00452 77.0064L30.623 96.1151L59.2861 77.0064L30.623 57.4199Z" fill="url(#paint3_linear_69_280)" stroke="#58D6A9" stroke-width="0.955436"/>
<path id="Vector 9" d="M193.531 105.902L194.215 78.5675L222.414 96.0435L222.669 96.2011L222.921 96.041L250.851 78.3522V104.953L222.655 126.1L193.531 105.902Z" fill="url(#paint4_linear_69_280)" fill-opacity="0.2" stroke="#58D6A9" stroke-width="0.955436"/>
<path id="Vector 10" d="M222.666 95.6372V126.211" stroke="#58D6A9" stroke-width="0.955436"/>
<g id="Group 32">
<path id="Ellipse 9" d="M154.48 25.655C154.48 29.9446 151.948 33.8666 147.776 36.7311C143.605 39.5946 137.824 41.377 131.422 41.377C125.019 41.377 119.238 39.5946 115.067 36.7311C110.895 33.8666 108.363 29.9446 108.363 25.655C108.363 21.3655 110.895 17.4435 115.067 14.5789C119.238 11.7154 125.019 9.93312 131.422 9.93312C137.824 9.93312 143.605 11.7154 147.776 14.5789C151.948 17.4435 154.48 21.3655 154.48 25.655Z" stroke="url(#paint5_linear_69_280)" stroke-width="0.698752"/>
<ellipse id="Ellipse 8" cx="131.422" cy="16.5713" rx="23.4082" ry="16.0713" fill="url(#paint6_radial_69_280)"/>
</g>
<ellipse id="Ellipse 6" cx="131.422" cy="182.104" rx="32.0071" ry="21.975" fill="url(#paint7_radial_69_280)"/>
<path id="Vector 8" d="M222.666 58.0461L193.553 77.7223L222.666 95.6372L251.147 77.7223L222.666 58.0461Z" fill="url(#paint8_linear_69_280)"/>
</g>
</g>
<defs>
<linearGradient id="paint0_linear_69_280" x1="136.005" y1="161.346" x2="114.372" y2="50.1231" gradientUnits="userSpaceOnUse">
<stop stop-color="#DD7DFF" stop-opacity="0.4"/>
<stop offset="1" stop-color="#F2CEFF" stop-opacity="0.1"/>
</linearGradient>
<linearGradient id="paint1_linear_69_280" x1="108.418" y1="200.911" x2="133.209" y2="200.969" gradientUnits="userSpaceOnUse">
<stop stop-color="#DD7DFF"/>
<stop offset="1" stop-color="#F2CEFF"/>
</linearGradient>
<linearGradient id="paint2_linear_69_280" x1="9.2015" y1="108.758" x2="31.773" y2="108.802" gradientUnits="userSpaceOnUse">
<stop stop-color="#48FF7B" stop-opacity="0.83"/>
<stop offset="1" stop-color="#D4FFE0" stop-opacity="0.83"/>
</linearGradient>
<linearGradient id="paint3_linear_69_280" x1="9.2015" y1="82.3899" x2="31.773" y2="82.4451" gradientUnits="userSpaceOnUse">
<stop stop-color="#48FF7B" stop-opacity="0.83"/>
<stop offset="1" stop-color="#D4FFE0" stop-opacity="0.83"/>
</linearGradient>
<linearGradient id="paint4_linear_69_280" x1="201.244" y1="109.236" x2="223.816" y2="109.279" gradientUnits="userSpaceOnUse">
<stop stop-color="#48FF7B" stop-opacity="0.83"/>
<stop offset="1" stop-color="#D4FFE0" stop-opacity="0.83"/>
</linearGradient>
<linearGradient id="paint5_linear_69_280" x1="114.598" y1="30.3253" x2="132.729" y2="30.3682" gradientUnits="userSpaceOnUse">
<stop stop-color="#DD7DFF"/>
<stop offset="1" stop-color="#F2CEFF"/>
</linearGradient>
<radialGradient id="paint6_radial_69_280" cx="0" cy="0" r="1" gradientUnits="userSpaceOnUse" gradientTransform="translate(124.633 9.82135) rotate(65.7096) scale(25.0378 33.2059)">
<stop stop-color="#A4FAFE"/>
<stop offset="1" stop-color="#903EB4"/>
</radialGradient>
<radialGradient id="paint7_radial_69_280" cx="0" cy="0" r="1" gradientUnits="userSpaceOnUse" gradientTransform="translate(122.139 172.875) rotate(65.7096) scale(34.2353 45.404)">
<stop stop-color="#A4FAFE"/>
<stop offset="1" stop-color="#903EB4"/>
</radialGradient>
<linearGradient id="paint8_linear_69_280" x1="201.653" y1="82.3036" x2="223.958" y2="82.3591" gradientUnits="userSpaceOnUse">
<stop stop-color="#48FF7B" stop-opacity="0.83"/>
<stop offset="1" stop-color="#D4FFE0" stop-opacity="0.83"/>
</linearGradient>
</defs>
</svg>
