<svg width="252" height="217" viewBox="0 0 252 217" fill="none" xmlns="http://www.w3.org/2000/svg">
<path opacity="0.7" d="M153.312 31.2648L159.871 175.557L101.389 177.196L109.041 30.7183L113.596 35.6373L120.154 39.4632L125.62 41.1029L131.086 41.6495L137.462 41.1029L142.381 39.4632L148.94 36.1839L153.312 31.2648Z" fill="url(#paint0_linear_69_280)"/>
<path d="M162.951 194.525C162.951 200.39 159.489 205.753 153.784 209.67C148.081 213.585 140.176 216.022 131.422 216.022C122.667 216.022 114.762 213.585 109.059 209.67C103.354 205.753 99.8921 200.39 99.8921 194.525C99.8921 188.66 103.354 183.297 109.059 179.38C114.762 175.465 122.667 173.028 131.422 173.028C140.176 173.028 148.081 175.465 153.784 179.38C159.489 183.297 162.951 188.66 162.951 194.525Z" stroke="url(#paint1_linear_69_280)" stroke-width="0.955436"/>
<path d="M1.48223 105.412V77.8788L29.888 96.0398L30.1453 96.2044L30.4027 96.0398L58.7937 77.8882L58.3348 105.417L30.6708 124.696L1.48223 105.412Z" fill="url(#paint2_linear_69_280)" fill-opacity="0.2" stroke="#58D6A9" stroke-width="0.955436"/>
<path d="M30.1453 95.6372V125.819" stroke="#58D6A9" stroke-width="0.955436"/>
<path d="M1.16376 105.597L103.714 176.372M159.607 172.55L250.851 105.669" stroke="#58D6A9" stroke-width="0.955436"/>
<path d="M152.948 31.4761L209.608 67.3379M109.041 30.1719L47.3432 68.4075" stroke="#58D6A9" stroke-width="0.955436"/>
<path d="M30.623 57.4199L1.00452 77.0064L30.623 96.1151L59.2861 77.0064L30.623 57.4199Z" fill="url(#paint3_linear_69_280)" stroke="#58D6A9" stroke-width="0.955436"/>
<path d="M193.531 105.902L194.215 78.5675L222.414 96.0435L222.669 96.2011L222.921 96.041L250.851 78.3522V104.953L222.655 126.1L193.531 105.902Z" fill="url(#paint4_linear_69_280)" fill-opacity="0.2" stroke="#58D6A9" stroke-width="0.955436"/>
<path d="M222.666 95.6372V126.211" stroke="#58D6A9" stroke-width="0.955436"/>
<path d="M154.48 25.655C154.48 29.9446 151.948 33.8666 147.776 36.7311C143.605 39.5946 137.824 41.377 131.422 41.377C125.019 41.377 119.238 39.5946 115.067 36.7311C110.895 33.8666 108.363 29.9446 108.363 25.655C108.363 21.3655 110.895 17.4435 115.067 14.5789C119.238 11.7154 125.019 9.93312 131.422 9.93312C137.824 9.93312 143.605 11.7154 147.776 14.5789C151.948 17.4435 154.48 21.3655 154.48 25.655Z" stroke="url(#paint5_linear_69_280)" stroke-width="0.698752"/>
<ellipse cx="131.422" cy="16.5713" rx="23.4082" ry="16.0713" fill="url(#paint6_radial_69_280)"/>
<ellipse cx="131.422" cy="182.104" rx="32.0071" ry="21.975" fill="url(#paint7_radial_69_280)"/>
<path d="M222.666 58.0461L193.553 77.7223L222.666 95.6372L251.147 77.7223L222.666 58.0461Z" fill="url(#paint8_linear_69_280)"/>
<defs>
<linearGradient id="paint0_linear_69_280" x1="136.005" y1="161.346" x2="114.372" y2="50.1231" gradientUnits="userSpaceOnUse">
<stop stop-color="#DD7DFF" stop-opacity="0.4"/>
<stop offset="1" stop-color="#F2CEFF" stop-opacity="0.1"/>
</linearGradient>
<linearGradient id="paint1_linear_69_280" x1="108.418" y1="200.911" x2="133.209" y2="200.969" gradientUnits="userSpaceOnUse">
<stop stop-color="#DD7DFF"/>
<stop offset="1" stop-color="#F2CEFF"/>
</linearGradient>
<linearGradient id="paint2_linear_69_280" x1="9.2015" y1="108.758" x2="31.773" y2="108.802" gradientUnits="userSpaceOnUse">
<stop stop-color="#48FF7B" stop-opacity="0.83"/>
<stop offset="1" stop-color="#D4FFE0" stop-opacity="0.83"/>
</linearGradient>
<linearGradient id="paint3_linear_69_280" x1="9.2015" y1="82.3899" x2="31.773" y2="82.4451" gradientUnits="userSpaceOnUse">
<stop stop-color="#48FF7B" stop-opacity="0.83"/>
<stop offset="1" stop-color="#D4FFE0" stop-opacity="0.83"/>
</linearGradient>
<linearGradient id="paint4_linear_69_280" x1="201.244" y1="109.236" x2="223.816" y2="109.279" gradientUnits="userSpaceOnUse">
<stop stop-color="#48FF7B" stop-opacity="0.83"/>
<stop offset="1" stop-color="#D4FFE0" stop-opacity="0.83"/>
</linearGradient>
<linearGradient id="paint5_linear_69_280" x1="114.598" y1="30.3253" x2="132.729" y2="30.3682" gradientUnits="userSpaceOnUse">
<stop stop-color="#DD7DFF"/>
<stop offset="1" stop-color="#F2CEFF"/>
</linearGradient>
<radialGradient id="paint6_radial_69_280" cx="0" cy="0" r="1" gradientUnits="userSpaceOnUse" gradientTransform="translate(124.633 9.82135) rotate(65.7096) scale(25.0378 33.2059)">
<stop stop-color="#A4FAFE"/>
<stop offset="1" stop-color="#903EB4"/>
</radialGradient>
<radialGradient id="paint7_radial_69_280" cx="0" cy="0" r="1" gradientUnits="userSpaceOnUse" gradientTransform="translate(122.139 172.875) rotate(65.7096) scale(34.2353 45.404)">
<stop stop-color="#A4FAFE"/>
<stop offset="1" stop-color="#903EB4"/>
</radialGradient>
<linearGradient id="paint8_linear_69_280" x1="201.653" y1="82.3036" x2="223.958" y2="82.3591" gradientUnits="userSpaceOnUse">
<stop stop-color="#48FF7B" stop-opacity="0.83"/>
<stop offset="1" stop-color="#D4FFE0" stop-opacity="0.83"/>
</linearGradient>
</defs>
</svg>
