<svg width="171" height="217" viewBox="0 0 171 217" fill="none" xmlns="http://www.w3.org/2000/svg">
<g id="Group 37">
<g id="Group 36">
<path id="Vector 13" d="M13.424 90.4986L0.5 92.7294V148.5H170.5V50.3439L159.564 55.5493C157.178 58.5237 150.948 60.2588 148.132 60.7545C143.161 60.7545 140.178 59.2673 132.225 59.2673C124.412 59.2673 119.467 54.5577 117.81 50.3439C113.999 47.1216 105.383 43.9489 101.406 57.0364C97.4298 70.1238 85.8314 82.8147 80.5292 87.5242H69.5936H46.7281L35.7924 89.0114C32.3129 88.2678 25.155 86.6318 24.3596 86.0369C23.5643 85.4421 16.7378 88.7635 13.424 90.4986Z" fill="url(#paint0_linear_69_321)"/>
<path id="Vector 15" d="M0.5 92.5L13.424 90.2805C16.7378 88.5542 23.5643 85.2496 24.3596 85.8415C25.155 86.4334 32.3129 88.061 35.7924 88.8009L46.7281 87.3212H69.5936H80.5292C85.8314 82.6356 97.4298 70.0091 101.406 56.988C105.383 43.9669 113.999 47.1235 117.81 50.3295C119.467 54.5219 124.412 59.2077 132.225 59.2077C140.178 59.2077 143.161 60.6873 148.132 60.6873C150.948 60.1941 157.178 58.4678 159.564 55.5085L170.5 50.3295" stroke="#48FF7B"/>
<path id="Vector 12" d="M9.42128 140.456L0.5 141.35V148.5H170.5V144.925C164.552 132.411 164.552 134.199 163.066 132.411C154.64 125.261 150.675 131.518 146.71 134.199C142.745 136.88 140.762 122.579 130.85 124.367C120.937 126.155 122.424 120.792 109.538 109.172C96.6516 97.5528 90.2085 127.049 84.2609 135.987C78.3134 144.925 58.4883 132.412 51.0539 127.049C43.6195 121.686 41.637 130.624 39.1589 136.881C36.6808 143.137 32.7157 144.031 28.7507 140.456C25.5787 137.596 20.4903 138.072 18.3426 138.668L9.42128 140.456Z" fill="url(#paint1_linear_69_321)"/>
<path id="Vector 14" d="M0.5 141.871L9.42128 140.964L18.3426 139.15C20.4903 138.545 25.5787 138.061 28.7507 140.964C32.7157 144.593 36.6808 143.686 39.1589 137.336C41.637 130.985 43.6195 121.913 51.0539 127.356C58.4883 132.8 78.3134 145.5 84.2609 136.428C90.2085 127.356 96.6516 97.4189 109.538 109.212C122.424 121.006 120.937 126.449 130.85 124.635C140.762 122.82 142.745 137.335 146.71 134.614C150.675 131.892 154.64 125.542 163.066 132.799C164.552 134.614 164.552 132.799 170.5 145.5" stroke="#DD7DFF" stroke-width="0.4"/>
</g>
<path id="Vector 16" d="M0.5 216.5V0.5" stroke="white"/>
</g>
<defs>
<linearGradient id="paint0_linear_69_321" x1="83.5" y1="87.5" x2="88.2354" y2="139.296" gradientUnits="userSpaceOnUse">
<stop stop-color="#48FF7B" stop-opacity="0.75"/>
<stop offset="1" stop-color="#D4FFE0" stop-opacity="0.3"/>
</linearGradient>
<linearGradient id="paint1_linear_69_321" x1="89.5" y1="128" x2="91.3" y2="151.977" gradientUnits="userSpaceOnUse">
<stop stop-color="#DD7DFF" stop-opacity="0.85"/>
<stop offset="1" stop-color="#F2CEFF" stop-opacity="0.33"/>
</linearGradient>
</defs>
</svg>
