<svg width="146" height="221" viewBox="0 0 146 221" fill="none" xmlns="http://www.w3.org/2000/svg">
<path d="M0.182098 59.3556C0.182098 26.8505 26.5326 0.5 59.0377 0.5C91.5427 0.5 117.893 26.8505 117.893 59.3556C117.893 91.8606 91.5427 118.211 59.0377 118.211C26.5326 118.211 0.182098 91.8606 0.182098 59.3556Z" fill="url(#paint0_radial_116_105)"/>
<g clip-path="url(#clip0_116_105)">
<path d="M59.0377 82.8979C72.0397 82.8979 82.5799 72.3577 82.5799 59.3557C82.5799 46.3537 72.0397 35.8135 59.0377 35.8135C46.0357 35.8135 35.4955 46.3537 35.4955 59.3557C35.4955 72.3577 46.0357 82.8979 59.0377 82.8979Z" fill="#2E3148"/>
<path d="M59.0377 73.016C66.5821 73.016 72.698 66.9 72.698 59.3556C72.698 51.8113 66.5821 45.6953 59.0377 45.6953C51.4933 45.6953 45.3773 51.8113 45.3773 59.3556C45.3773 66.9 51.4933 73.016 59.0377 73.016Z" fill="#1B1E36"/>
<path d="M59.0861 38.8169C56.5449 38.8169 54.4843 48.0342 54.4843 59.4043C54.4843 70.7744 56.5449 79.9917 59.0861 79.9917C61.6273 79.9917 63.688 70.7744 63.688 59.4043C63.688 48.0342 61.6273 38.8169 59.0861 38.8169ZM59.4038 78.8298C59.1132 79.2174 58.8226 78.9267 58.8226 78.9267C57.6523 77.5706 57.0671 75.0514 57.0671 75.0514C55.0201 68.4635 55.5073 54.3188 55.5073 54.3188C56.4693 43.0893 58.2194 40.4366 58.8149 39.8477C58.8757 39.7876 58.9558 39.7508 59.041 39.7439C59.1262 39.7371 59.2112 39.7604 59.2808 39.81C60.1449 40.4223 60.8697 42.9829 60.8697 42.9829C63.0097 50.9272 62.8159 58.3871 62.8159 58.3871C63.0097 64.8782 61.7436 72.1442 61.7436 72.1442C60.7689 77.6663 59.4038 78.8298 59.4038 78.8298Z" fill="#6F7390"/>
<path d="M76.9433 49.1591C75.6781 46.9541 66.6584 49.7539 56.7912 55.412C46.924 61.07 39.9638 67.4447 41.2281 69.6488C42.4924 71.8529 51.513 69.054 61.3802 63.396C71.2474 57.7379 78.2077 51.3633 76.9433 49.1591ZM42.3954 69.3463C41.911 69.2853 42.0204 68.8872 42.0204 68.8872C42.6146 67.1976 44.5055 65.4362 44.5055 65.4362C49.2032 60.382 61.7157 53.7659 61.7157 53.7659C71.9337 49.0119 75.1076 49.2124 75.9128 49.4341C75.9954 49.4572 76.0672 49.5088 76.1155 49.5797C76.1637 49.6506 76.1853 49.7364 76.1764 49.8217C76.0796 50.8764 74.2145 52.7786 74.2145 52.7786C68.3926 58.5905 61.8251 62.1354 61.8251 62.1354C56.2912 65.5349 49.3584 68.0509 49.3584 68.0509C44.0833 69.9518 42.3956 69.3463 42.3956 69.3463H42.3954Z" fill="#6F7390"/>
<path d="M76.8987 69.7222C78.1738 67.523 71.2311 61.1191 61.3985 55.4185C51.5659 49.7179 42.5474 46.8834 41.2735 49.0864C39.9996 51.2894 46.9411 57.6895 56.7793 63.3901C66.6175 69.0907 75.6248 71.9254 76.8987 69.7222ZM42.1184 49.9362C41.93 49.4896 42.3276 49.3821 42.3276 49.3821C44.0878 49.0497 46.5603 49.8072 46.5603 49.8072C53.2868 51.3389 65.2811 58.8521 65.2811 58.8521C74.5159 65.3141 75.9322 68.1605 76.1444 68.9685C76.166 69.0513 76.1576 69.1392 76.1207 69.2165C76.0839 69.2938 76.0209 69.3555 75.9429 69.3909C74.9799 69.8318 72.4008 69.1749 72.4008 69.1749C64.4516 67.0435 58.0943 63.1383 58.0943 63.1383C52.3822 60.0574 46.734 55.317 46.734 55.317C42.4421 51.7033 42.1197 49.9411 42.1197 49.9411L42.1184 49.9362Z" fill="#6F7390"/>
<path d="M59.0377 61.7776C60.3753 61.7776 61.4597 60.6933 61.4597 59.3556C61.4597 58.018 60.3753 56.9336 59.0377 56.9336C57.7 56.9336 56.6157 58.018 56.6157 59.3556C56.6157 60.6933 57.7 61.7776 59.0377 61.7776Z" fill="#B7B9C8"/>
<path d="M68.968 51.5082C69.7438 51.5082 70.3728 50.8576 70.3728 50.055C70.3728 49.2524 69.7438 48.6018 68.968 48.6018C68.1921 48.6018 67.5632 49.2524 67.5632 50.055C67.5632 50.8576 68.1921 51.5082 68.968 51.5082Z" fill="#B7B9C8"/>
<path d="M45.9102 56.4494C46.686 56.4494 47.315 55.7988 47.315 54.9962C47.315 54.1936 46.686 53.543 45.9102 53.543C45.1343 53.543 44.5053 54.1936 44.5053 54.9962C44.5053 55.7988 45.1343 56.4494 45.9102 56.4494Z" fill="#B7B9C8"/>
<path d="M56.1797 74.2756C56.9555 74.2756 57.5845 73.6249 57.5845 72.8224C57.5845 72.0198 56.9555 71.3691 56.1797 71.3691C55.4038 71.3691 54.7748 72.0198 54.7748 72.8224C54.7748 73.6249 55.4038 74.2756 56.1797 74.2756Z" fill="#B7B9C8"/>
</g>
<rect x="22.0077" y="97.0232" width="121.243" height="121.243" rx="60.6213" fill="white" fill-opacity="0.2"/>
<rect x="22.0077" y="97.0232" width="121.243" height="121.243" rx="60.6213" stroke="url(#paint1_linear_116_105)" stroke-width="3.53134"/>
<g clip-path="url(#clip1_116_105)">
<path d="M82.629 181.187C95.631 181.187 106.171 170.646 106.171 157.644C106.171 144.642 95.631 134.102 82.629 134.102C69.6269 134.102 59.0867 144.642 59.0867 157.644C59.0867 170.646 69.6269 181.187 82.629 181.187Z" fill="#2E3148"/>
<path d="M82.629 171.305C90.1734 171.305 96.2893 165.189 96.2893 157.644C96.2893 150.1 90.1734 143.984 82.629 143.984C75.0846 143.984 68.9686 150.1 68.9686 157.644C68.9686 165.189 75.0846 171.305 82.629 171.305Z" fill="#1B1E36"/>
<path d="M82.6774 137.105C80.1361 137.105 78.0755 146.323 78.0755 157.693C78.0755 169.063 80.1361 178.28 82.6774 178.28C85.2186 178.28 87.2792 169.063 87.2792 157.693C87.2792 146.323 85.2186 137.105 82.6774 137.105ZM82.9951 177.118C82.7045 177.506 82.4139 177.215 82.4139 177.215C81.2436 175.859 80.6584 173.34 80.6584 173.34C78.6114 166.752 79.0986 152.607 79.0986 152.607C80.0606 141.378 81.8106 138.725 82.4062 138.136C82.467 138.076 82.5471 138.039 82.6323 138.033C82.7175 138.026 82.8024 138.049 82.8721 138.099C83.7362 138.711 84.4609 141.272 84.4609 141.272C86.601 149.216 86.4072 156.676 86.4072 156.676C86.601 163.167 85.3348 170.433 85.3348 170.433C84.3602 175.955 82.9951 177.118 82.9951 177.118Z" fill="#6F7390"/>
<path d="M100.535 147.448C99.2694 145.243 90.2497 148.042 80.3825 153.701C70.5153 159.359 63.555 165.733 64.8194 167.937C66.0837 170.141 75.1043 167.343 84.9715 161.685C94.8387 156.027 101.799 149.652 100.535 147.448ZM65.9867 167.635C65.5023 167.574 65.6117 167.176 65.6117 167.176C66.2059 165.486 68.0968 163.725 68.0968 163.725C72.7945 158.671 85.3069 152.054 85.3069 152.054C95.525 147.3 98.6989 147.501 99.504 147.723C99.5867 147.746 99.6585 147.797 99.7068 147.868C99.755 147.939 99.7766 148.025 99.7677 148.11C99.6709 149.165 97.8058 151.067 97.8058 151.067C91.9839 156.879 85.4164 160.424 85.4164 160.424C79.8824 163.824 72.9497 166.34 72.9497 166.34C67.6746 168.24 65.9869 167.635 65.9869 167.635H65.9867Z" fill="#6F7390"/>
<path d="M100.49 168.011C101.765 165.812 94.8223 159.408 84.9898 153.707C75.1572 148.006 66.1387 145.172 64.8647 147.375C63.5908 149.578 70.5324 155.978 80.3706 161.679C90.2088 167.379 99.2161 170.214 100.49 168.011ZM65.7096 148.225C65.5213 147.778 65.9189 147.671 65.9189 147.671C67.6791 147.338 70.1516 148.096 70.1516 148.096C76.8781 149.627 88.8724 157.141 88.8724 157.141C98.1071 163.603 99.5234 166.449 99.7357 167.257C99.7573 167.34 99.7489 167.428 99.712 167.505C99.6752 167.582 99.6122 167.644 99.5342 167.679C98.5712 168.12 95.9921 167.463 95.9921 167.463C88.0429 165.332 81.6856 161.427 81.6856 161.427C75.9735 158.346 70.3252 153.606 70.3252 153.606C66.0334 149.992 65.711 148.23 65.711 148.23L65.7096 148.225Z" fill="#6F7390"/>
<path d="M82.629 160.066C83.9666 160.066 85.051 158.982 85.051 157.644C85.051 156.307 83.9666 155.222 82.629 155.222C81.2913 155.222 80.2069 156.307 80.2069 157.644C80.2069 158.982 81.2913 160.066 82.629 160.066Z" fill="#B7B9C8"/>
<path d="M92.5593 149.797C93.3351 149.797 93.9641 149.146 93.9641 148.344C93.9641 147.541 93.3351 146.89 92.5593 146.89C91.7834 146.89 91.1544 147.541 91.1544 148.344C91.1544 149.146 91.7834 149.797 92.5593 149.797Z" fill="#B7B9C8"/>
<path d="M69.5014 154.738C70.2773 154.738 70.9062 154.087 70.9062 153.285C70.9062 152.482 70.2773 151.832 69.5014 151.832C68.7256 151.832 68.0966 152.482 68.0966 153.285C68.0966 154.087 68.7256 154.738 69.5014 154.738Z" fill="#B7B9C8"/>
<path d="M79.7709 172.564C80.5468 172.564 81.1757 171.914 81.1757 171.111C81.1757 170.308 80.5468 169.658 79.7709 169.658C78.9951 169.658 78.3661 170.308 78.3661 171.111C78.3661 171.914 78.9951 172.564 79.7709 172.564Z" fill="#B7B9C8"/>
</g>
<defs>
<radialGradient id="paint0_radial_116_105" cx="0" cy="0" r="1" gradientUnits="userSpaceOnUse" gradientTransform="translate(41.9696 34.6362) rotate(72.7839) scale(87.4951)">
<stop stop-color="#A4FAFE"/>
<stop offset="1" stop-color="#903EB4"/>
</radialGradient>
<linearGradient id="paint1_linear_116_105" x1="40.3288" y1="174.748" x2="85.9165" y2="174.822" gradientUnits="userSpaceOnUse">
<stop stop-color="#48FF7B" stop-opacity="0.83"/>
<stop offset="1" stop-color="#D4FFE0" stop-opacity="0.83"/>
</linearGradient>
<clipPath id="clip0_116_105">
<rect width="47.0845" height="47.0845" fill="white" transform="translate(35.4955 35.8135)"/>
</clipPath>
<clipPath id="clip1_116_105">
<rect width="47.0845" height="47.0845" fill="white" transform="translate(59.0867 134.102)"/>
</clipPath>
</defs>
</svg>
