<svg width="60" height="165" viewBox="0 0 60 165" fill="black" xmlns="http://www.w3.org/2000/svg">
<g filter="url(#filter0_f_4_7196)">
<path fill-rule="evenodd" clip-rule="evenodd" d="M57.3778 44.9964L57.9965 43.7589L57.3778 42.5214L38.0072 3.78029C37.3237 2.41334 35.6615 1.85928 34.2946 2.54275C32.9276 3.22622 32.3736 4.88842 33.0571 6.25537L51.8088 43.7589L33.0571 81.2625L32.4383 82.5L33.0571 83.7375L51.8088 121.241L33.0571 158.745C32.3736 160.112 32.9276 161.774 34.2946 162.457C35.6615 163.141 37.3237 162.587 38.0072 161.22L57.3778 122.479L57.9965 121.241L57.3778 120.004L38.626 82.5L57.3778 44.9964ZM26.9383 44.9964L27.5571 43.7589L26.9383 42.5214L7.56778 3.78029C6.88431 2.41334 5.22212 1.85928 3.85517 2.54275C2.48822 3.22622 1.93416 4.88842 2.61763 6.25537L21.3694 43.7589L2.61763 81.2625L1.99886 82.5L2.61763 83.7375L21.3694 121.241L2.61763 158.745C1.93416 160.112 2.48822 161.774 3.85517 162.457C5.22212 163.141 6.88431 162.587 7.56778 161.22L26.9383 122.479L27.5571 121.241L26.9383 120.004L8.18655 82.5L26.9383 44.9964Z" stroke="white" stroke-width="1.62993" stroke-linecap="round"/>
</g>
<defs>
<filter id="filter0_f_4_7196" x="0.544398" y="0.891566" width="58.9066" height="163.217" filterUnits="userSpaceOnUse" color-interpolation-filters="sRGB">
<feFlood flood-opacity="0" result="BackgroundImageFix"/>
<feBlend mode="normal" in="SourceGraphic" in2="BackgroundImageFix" result="shape"/>
<feGaussianBlur stdDeviation="0.271655" result="effect1_foregroundBlur_4_7196"/>
</filter>
</defs>
</svg>



