<svg width="1954" height="542" viewBox="0 0 1954 542" fill="none" xmlns="http://www.w3.org/2000/svg">
<path fill-rule="evenodd" clip-rule="evenodd" d="M340.673 413.166C356.425 397.578 369.6 379.391 379.502 359.301C370.581 356.411 361.939 353.141 353.695 349.672C307.626 330.287 255.544 326.456 209.101 342.735C123.078 372.887 59.9667 369.804 18.0509 354.15C31.3931 383.298 51.5334 408.684 76.4431 428.28C105.332 427.314 140.054 421.074 181.205 406.65C233.2 388.425 290.501 392.637 340.673 413.166ZM321.432 429.929C278.526 414.769 231.467 412.885 189.101 427.735C158.928 438.311 131.573 444.799 106.963 448.088C134.755 462.719 166.41 471 200 471C245.669 471 287.763 455.693 321.432 429.929ZM362.941 329.107C371.25 332.603 379.741 335.782 388.319 338.511C395.881 317.421 400 294.691 400 271H0C0 289.305 2.45916 307.036 7.06513 323.88C39.8019 343.56 101.718 356.522 201.205 321.65C253.986 303.15 312.233 307.769 362.941 329.107Z" fill="#6495ED"/>
<path fill-rule="evenodd" clip-rule="evenodd" d="M0 271C0 160.543 89.5431 71 200 71C310.457 71 400 160.543 400 271H307.999C307.999 211.354 259.646 163.001 199.999 163.001C140.353 163.001 91.9995 211.354 91.9992 271H0Z" fill="#EDBC64"/>
<path d="M1951.17 141.886V167.521H1819.23V250.064H1919.04V275.699H1819.23V374.136H1953.56V399.77H1788.81V141.886H1951.17Z" fill="white"/>
<path d="M1722.94 198.625L1692.52 207.683C1683.74 177.263 1665.51 162.053 1637.83 162.053C1620.74 162.053 1607.52 166.325 1598.18 174.87C1590.09 182.276 1586.05 191.903 1586.05 203.752C1586.05 218.107 1590.49 228.931 1599.38 236.222C1607.24 242.717 1620.68 248.356 1639.71 253.141L1650.82 256.388C1682.26 264.364 1703.57 274.959 1714.73 288.175C1723.51 298.657 1727.89 313.012 1727.89 331.241C1727.89 355.167 1719.23 373.738 1701.92 386.954C1686.19 398.803 1665.23 404.727 1639.03 404.727C1613.39 404.727 1592.43 398.518 1576.14 386.099C1561.78 375.162 1551.7 359.781 1545.89 339.957L1575.96 329.361C1580.29 346.907 1588.72 360.123 1601.26 369.01C1611.74 376.301 1624.1 379.947 1638.34 379.947C1658.96 379.947 1674.34 375.162 1684.48 365.592C1692.69 357.844 1696.79 347.533 1696.79 334.659C1696.79 319.962 1692.52 309.025 1683.97 301.847C1675.65 294.669 1660.67 288.232 1639.03 282.536L1628.77 279.459C1599.72 271.598 1579.78 261.287 1568.96 248.527C1560.07 237.931 1555.63 223.462 1555.63 205.119C1555.63 184.725 1563.49 168.148 1579.21 155.388C1594.02 143.311 1613.33 137.273 1637.15 137.273C1681.12 137.273 1709.72 157.724 1722.94 198.625Z" fill="white"/>
<path d="M1488.55 141.886V399.77H1458.14V141.886H1488.55Z" fill="white"/>
<path d="M1219.82 141.886H1306.64C1365.65 141.886 1395.16 164.388 1395.16 209.391C1395.16 226.822 1389.98 241.291 1379.61 252.799C1370.15 263.394 1357.11 270.572 1340.47 274.332L1402.17 399.77H1368.5L1311.76 279.288H1249.56V399.77H1219.82V141.886ZM1249.56 166.325V255.533H1302.71C1343.61 255.533 1364.06 240.266 1364.06 209.732C1364.06 194.238 1358.93 183.015 1348.68 176.066C1339.11 169.572 1324.52 166.325 1304.93 166.325H1249.56Z" fill="white"/>
<path d="M1142.84 141.886V399.77H1104.04L1023.21 243.741C1021.95 241.348 1009.71 216.283 986.465 168.546H981.167C981.167 174.471 981.452 189.225 982.022 212.809C982.363 228.075 982.534 240.95 982.534 251.431V399.77H954.165V141.886H1001.5L1075.33 286.465C1081.48 298.314 1088.26 312.385 1095.67 328.677C1104.44 348.045 1109.8 359.723 1111.73 363.711H1117.2C1115.38 314.606 1114.47 286.408 1114.47 279.117V141.886H1142.84Z" fill="white"/>
<path d="M877.863 141.886V313.638C877.863 345.539 867.894 369.464 847.956 385.415C831.778 398.289 810.7 404.726 784.724 404.726C754.418 404.726 731.005 396.352 714.485 379.604C698.991 363.882 691.243 341.893 691.243 313.638V141.886H721.663V312.613C721.663 357.16 742.911 379.433 785.408 379.433C827.904 379.433 849.152 357.16 849.152 312.613V141.886H877.863Z" fill="white"/>
<path d="M626.049 198.625L595.63 207.683C586.857 177.263 568.628 162.053 540.943 162.053C523.853 162.053 510.637 166.325 501.295 174.87C493.205 182.276 489.161 191.903 489.161 203.752C489.161 218.107 493.604 228.931 502.491 236.222C510.352 242.717 523.796 248.356 542.823 253.141L553.931 256.388C585.376 264.364 606.681 274.959 617.846 288.175C626.619 298.657 631.006 313.012 631.006 331.241C631.006 355.167 622.347 373.738 605.029 386.954C589.307 398.803 568.343 404.727 542.139 404.727C516.504 404.727 495.541 398.518 479.249 386.099C464.893 375.162 454.811 359.781 449 339.957L479.078 329.361C483.407 346.907 491.838 360.123 504.371 369.01C514.852 376.301 527.214 379.947 541.455 379.947C562.077 379.947 577.458 375.162 587.598 365.592C595.801 357.844 599.902 347.533 599.902 334.659C599.902 319.962 595.63 309.025 587.085 301.847C578.768 294.669 563.786 288.232 542.139 282.536L531.885 279.459C502.833 271.598 482.895 261.287 472.071 248.527C463.184 237.931 458.741 223.462 458.741 205.119C458.741 184.725 466.602 168.148 482.325 155.388C497.136 143.311 516.447 137.273 540.259 137.273C584.237 137.273 612.833 157.724 626.049 198.625Z" fill="white"/>
</svg>
