<svg width="33" height="34" viewBox="0 0 33 34" fill="none" xmlns="http://www.w3.org/2000/svg">
<g clip-path="url(#clip0_326_2362)">
<path d="M15 30C23.2843 30 30 23.2843 30 15C30 6.71573 23.2843 0 15 0C6.71573 0 0 6.71573 0 15C0 23.2843 6.71573 30 15 30Z" fill="#2E3148"/>
<path d="M15.0006 23.7038C19.8075 23.7038 23.7043 19.807 23.7043 15.0001C23.7043 10.1932 19.8075 6.29639 15.0006 6.29639C10.1937 6.29639 6.29688 10.1932 6.29688 15.0001C6.29688 19.807 10.1937 23.7038 15.0006 23.7038Z" fill="#1B1E36"/>
<path d="M15.0317 1.91357C13.4125 1.91357 12.0996 7.78637 12.0996 15.0309C12.0996 22.2754 13.4125 28.1482 15.0317 28.1482C16.6508 28.1482 17.9638 22.2754 17.9638 15.0309C17.9638 7.78637 16.6508 1.91357 15.0317 1.91357ZM15.2341 27.4079C15.049 27.6549 14.8638 27.4696 14.8638 27.4696C14.1181 26.6056 13.7453 25.0005 13.7453 25.0005C12.441 20.803 12.7515 11.7907 12.7515 11.7907C13.3644 4.63577 14.4795 2.94557 14.8589 2.57033C14.8976 2.53204 14.9487 2.50863 15.003 2.50424C15.0573 2.49985 15.1114 2.51476 15.1558 2.54633C15.7063 2.93645 16.1681 4.56797 16.1681 4.56797C17.5317 9.62969 17.4082 14.3828 17.4082 14.3828C17.5317 18.5186 16.7249 23.1482 16.7249 23.1482C16.1039 26.6666 15.2341 27.4079 15.2341 27.4079Z" fill="#6F7390"/>
<path d="M26.4091 8.50297C25.603 7.09801 19.8561 8.88193 13.5691 12.487C7.28223 16.092 2.84751 20.1536 3.65307 21.558C4.45863 22.9624 10.2061 21.179 16.4931 17.574C22.78 13.969 27.2147 9.90733 26.4091 8.50297ZM4.39683 21.3653C4.08819 21.3264 4.15791 21.0727 4.15791 21.0727C4.53651 19.9962 5.74131 18.874 5.74131 18.874C8.73447 15.6536 16.7068 11.4382 16.7068 11.4382C23.2173 8.40913 25.2395 8.53693 25.7525 8.67817C25.8052 8.69286 25.8509 8.72572 25.8817 8.77092C25.9124 8.81613 25.9262 8.87075 25.9205 8.92513C25.8588 9.59713 24.6705 10.8091 24.6705 10.8091C20.961 14.5122 16.7765 16.7708 16.7765 16.7708C13.2505 18.9368 8.83335 20.5399 8.83335 20.5399C5.47227 21.7511 4.39695 21.3653 4.39695 21.3653H4.39683Z" fill="#6F7390"/>
<path d="M26.3807 21.6048C27.1931 20.2036 22.7695 16.1234 16.5047 12.4912C10.2399 8.85905 4.49366 7.05305 3.68198 8.45669C2.8703 9.86033 7.29314 13.9382 13.5616 17.5703C19.83 21.2025 25.569 23.0086 26.3807 21.6048ZM4.2203 8.99813C4.1003 8.71361 4.35362 8.64509 4.35362 8.64509C5.47514 8.43329 7.0505 8.91593 7.0505 8.91593C11.3363 9.89189 18.9785 14.6789 18.9785 14.6789C24.8625 18.7962 25.7649 20.6098 25.9001 21.1246C25.9138 21.1774 25.9085 21.2334 25.885 21.2826C25.8615 21.3319 25.8214 21.3712 25.7717 21.3938C25.1581 21.6747 23.5149 21.2561 23.5149 21.2561C18.45 19.8981 14.3994 17.4099 14.3994 17.4099C10.7599 15.4469 7.16113 12.4265 7.16113 12.4265C4.42658 10.1241 4.22114 9.00125 4.22114 9.00125L4.2203 8.99813Z" fill="#6F7390"/>
<path d="M15.0002 16.5432C15.8525 16.5432 16.5434 15.8523 16.5434 15C16.5434 14.1477 15.8525 13.4568 15.0002 13.4568C14.1479 13.4568 13.457 14.1477 13.457 15C13.457 15.8523 14.1479 16.5432 15.0002 16.5432Z" fill="#B7B9C8"/>
<path d="M21.3267 10C21.8211 10 22.2218 9.58548 22.2218 9.07411C22.2218 8.56274 21.8211 8.14819 21.3267 8.14819C20.8324 8.14819 20.4316 8.56274 20.4316 9.07411C20.4316 9.58548 20.8324 10 21.3267 10Z" fill="#B7B9C8"/>
<path d="M6.63531 13.1482C7.12965 13.1482 7.53039 12.7337 7.53039 12.2223C7.53039 11.7109 7.12965 11.2964 6.63531 11.2964C6.14097 11.2964 5.74023 11.7109 5.74023 12.2223C5.74023 12.7337 6.14097 13.1482 6.63531 13.1482Z" fill="#B7B9C8"/>
<path d="M13.1783 24.5061C13.6726 24.5061 14.0734 24.0916 14.0734 23.5802C14.0734 23.0688 13.6726 22.6543 13.1783 22.6543C12.6839 22.6543 12.2832 23.0688 12.2832 23.5802C12.2832 24.0916 12.6839 24.5061 13.1783 24.5061Z" fill="#B7B9C8"/>
</g>
<rect x="17" y="18" width="16" height="16" rx="8" fill="white"/>
<rect x="18.334" y="19.3333" width="13.3333" height="13.3333" rx="6.66667" fill="#EF2DAC"/>
<path d="M27.4363 24.4533V28.3267H26.5563V24.4533H25.2363V23.6733H28.7563V24.4533H27.4363Z" fill="white"/>
<path d="M22.9775 28.4066C22.5775 28.4066 22.2375 28.3355 21.9575 28.1933C21.6819 28.051 21.4441 27.8644 21.2441 27.6333L21.8375 27.0599C21.9975 27.2466 22.1753 27.3888 22.3708 27.4866C22.5708 27.5844 22.7908 27.6333 23.0308 27.6333C23.3019 27.6333 23.5064 27.5755 23.6441 27.4599C23.7819 27.3399 23.8508 27.1799 23.8508 26.9799C23.8508 26.8244 23.8064 26.6977 23.7175 26.5999C23.6286 26.5022 23.4619 26.431 23.2175 26.3866L22.7775 26.3199C21.8486 26.1733 21.3841 25.7222 21.3841 24.9666C21.3841 24.7577 21.4219 24.5688 21.4975 24.3999C21.5775 24.231 21.6908 24.0866 21.8375 23.9666C21.9841 23.8466 22.1597 23.7555 22.3641 23.6933C22.573 23.6266 22.8086 23.5933 23.0708 23.5933C23.4219 23.5933 23.7286 23.651 23.9908 23.7666C24.253 23.8822 24.4775 24.0533 24.6641 24.2799L24.0641 24.8466C23.9486 24.7044 23.8086 24.5888 23.6441 24.4999C23.4797 24.411 23.273 24.3666 23.0241 24.3666C22.7708 24.3666 22.5797 24.4155 22.4508 24.5133C22.3264 24.6066 22.2641 24.7399 22.2641 24.9133C22.2641 25.091 22.3153 25.2222 22.4175 25.3066C22.5197 25.391 22.6841 25.4533 22.9108 25.4933L23.3441 25.5733C23.8153 25.6577 24.1619 25.8088 24.3841 26.0266C24.6108 26.2399 24.7241 26.5399 24.7241 26.9266C24.7241 27.1488 24.6841 27.351 24.6041 27.5333C24.5286 27.711 24.4153 27.8666 24.2641 27.9999C24.1175 28.1288 23.9353 28.2288 23.7175 28.2999C23.5041 28.371 23.2575 28.4066 22.9775 28.4066Z" fill="white"/>
<defs>
<clipPath id="clip0_326_2362">
<rect width="30" height="30" fill="white"/>
</clipPath>
</defs>
</svg>
