<svg width="30" height="31" viewBox="0 0 30 31" fill="none" xmlns="http://www.w3.org/2000/svg">
<g id="M_Atom " clip-path="url(#clip0_494_688)">
<path id="Vector" d="M15 30.5C23.2843 30.5 30 23.7843 30 15.5C30 7.21573 23.2843 0.5 15 0.5C6.71573 0.5 0 7.21573 0 15.5C0 23.7843 6.71573 30.5 15 30.5Z" fill="#4C94FF" fill-opacity="0.4"/>
<path id="Vector_2" d="M15.0006 24.2037C19.8075 24.2037 23.7043 20.3069 23.7043 15.5C23.7043 10.6931 19.8075 6.79626 15.0006 6.79626C10.1937 6.79626 6.29688 10.6931 6.29688 15.5C6.29688 20.3069 10.1937 24.2037 15.0006 24.2037Z" fill="#4C94FF" fill-opacity="0.4"/>
<path id="Vector_3" d="M15.0317 2.4137C13.4125 2.4137 12.0996 8.2865 12.0996 15.531C12.0996 22.7755 13.4125 28.6483 15.0317 28.6483C16.6508 28.6483 17.9638 22.7755 17.9638 15.531C17.9638 8.2865 16.6508 2.4137 15.0317 2.4137ZM15.2341 27.9081C15.049 28.155 14.8638 27.9697 14.8638 27.9697C14.1181 27.1057 13.7453 25.5006 13.7453 25.5006C12.441 21.3031 12.7515 12.2908 12.7515 12.2908C13.3644 5.1359 14.4795 3.4457 14.8589 3.07046C14.8976 3.03216 14.9487 3.00876 15.003 3.00437C15.0573 2.99998 15.1114 3.01488 15.1558 3.04646C15.7063 3.43658 16.1681 5.0681 16.1681 5.0681C17.5317 10.1298 17.4082 14.8829 17.4082 14.8829C17.5317 19.0187 16.7249 23.6483 16.7249 23.6483C16.1039 27.1667 15.2341 27.9081 15.2341 27.9081Z" fill="white"/>
<path id="Vector_4" d="M26.4091 9.00309C25.603 7.59813 19.8561 9.38205 13.5691 12.9871C7.28223 16.5921 2.84751 20.6538 3.65307 22.0581C4.45863 23.4625 10.2061 21.6792 16.4931 18.0741C22.78 14.4691 27.2147 10.4074 26.4091 9.00309ZM4.39683 21.8654C4.08819 21.8265 4.15791 21.5728 4.15791 21.5728C4.53651 20.4963 5.74131 19.3741 5.74131 19.3741C8.73447 16.1538 16.7068 11.9383 16.7068 11.9383C23.2173 8.90925 25.2395 9.03705 25.7525 9.17829C25.8052 9.19299 25.8509 9.22585 25.8817 9.27105C25.9124 9.31625 25.9262 9.37087 25.9205 9.42525C25.8588 10.0972 24.6705 11.3092 24.6705 11.3092C20.961 15.0123 16.7765 17.271 16.7765 17.271C13.2505 19.437 8.83335 21.04 8.83335 21.04C5.47227 22.2512 4.39695 21.8654 4.39695 21.8654H4.39683Z" fill="white"/>
<path id="Vector_5" d="M26.3807 22.105C27.1931 20.7037 22.7695 16.6235 16.5047 12.9913C10.2399 9.35917 4.49366 7.55317 3.68198 8.95681C2.8703 10.3604 7.29314 14.4383 13.5616 18.0704C19.83 21.7026 25.569 23.5087 26.3807 22.105ZM4.2203 9.49825C4.1003 9.21373 4.35362 9.14521 4.35362 9.14521C5.47514 8.93341 7.0505 9.41605 7.0505 9.41605C11.3363 10.392 18.9785 15.179 18.9785 15.179C24.8625 19.2964 25.7649 21.1099 25.9001 21.6247C25.9138 21.6775 25.9085 21.7335 25.885 21.7827C25.8615 21.832 25.8214 21.8714 25.7717 21.8939C25.1581 22.1748 23.5149 21.7562 23.5149 21.7562C18.45 20.3982 14.3994 17.91 14.3994 17.91C10.7599 15.947 7.16113 12.9267 7.16113 12.9267C4.42658 10.6242 4.22114 9.50137 4.22114 9.50137L4.2203 9.49825Z" fill="white"/>
<path id="Vector_6" d="M15.0002 17.0432C15.8525 17.0432 16.5434 16.3523 16.5434 15.5C16.5434 14.6477 15.8525 13.9568 15.0002 13.9568C14.1479 13.9568 13.457 14.6477 13.457 15.5C13.457 16.3523 14.1479 17.0432 15.0002 17.0432Z" fill="white"/>
<path id="Vector_7" d="M21.3267 10.4999C21.8211 10.4999 22.2218 10.0854 22.2218 9.57399C22.2218 9.06262 21.8211 8.64807 21.3267 8.64807C20.8324 8.64807 20.4316 9.06262 20.4316 9.57399C20.4316 10.0854 20.8324 10.4999 21.3267 10.4999Z" fill="white"/>
<path id="Vector_8" d="M6.63531 13.6481C7.12965 13.6481 7.53039 13.2336 7.53039 12.7222C7.53039 12.2108 7.12965 11.7963 6.63531 11.7963C6.14097 11.7963 5.74023 12.2108 5.74023 12.7222C5.74023 13.2336 6.14097 13.6481 6.63531 13.6481Z" fill="white"/>
<path id="Vector_9" d="M13.1783 25.0061C13.6726 25.0061 14.0734 24.5916 14.0734 24.0802C14.0734 23.5688 13.6726 23.1543 13.1783 23.1543C12.6839 23.1543 12.2832 23.5688 12.2832 24.0802C12.2832 24.5916 12.6839 25.0061 13.1783 25.0061Z" fill="white"/>
</g>
<defs>
<clipPath id="clip0_494_688">
<rect width="30" height="30" fill="white" transform="translate(0 0.5)"/>
</clipPath>
</defs>
</svg>
