<svg width="31" height="30" viewBox="0 0 31 30" fill="none" xmlns="http://www.w3.org/2000/svg">
<g id="M_Atom " clip-path="url(#clip0_494_392)">
<path id="Vector" d="M15.3594 30C23.6436 30 30.3594 23.2843 30.3594 15C30.3594 6.71573 23.6436 0 15.3594 0C7.0751 0 0.359375 6.71573 0.359375 15C0.359375 23.2843 7.0751 30 15.3594 30Z" fill="#2E3148"/>
<path id="Vector_2" d="M15.36 23.7038C20.1669 23.7038 24.0637 19.807 24.0637 15.0001C24.0637 10.1932 20.1669 6.29639 15.36 6.29639C10.553 6.29639 6.65625 10.1932 6.65625 15.0001C6.65625 19.807 10.553 23.7038 15.36 23.7038Z" fill="#1B1E36"/>
<path id="Vector_3" d="M15.3911 1.91357C13.7719 1.91357 12.459 7.78637 12.459 15.0309C12.459 22.2754 13.7719 28.1482 15.3911 28.1482C17.0102 28.1482 18.3231 22.2754 18.3231 15.0309C18.3231 7.78637 17.0102 1.91357 15.3911 1.91357ZM15.5935 27.4079C15.4083 27.6549 15.2232 27.4696 15.2232 27.4696C14.4775 26.6056 14.1047 25.0005 14.1047 25.0005C12.8004 20.803 13.1108 11.7907 13.1108 11.7907C13.7238 4.63577 14.8388 2.94557 15.2183 2.57033C15.257 2.53204 15.308 2.50863 15.3623 2.50424C15.4166 2.49985 15.4707 2.51476 15.5151 2.54633C16.0657 2.93645 16.5275 4.56797 16.5275 4.56797C17.891 9.62969 17.7675 14.3828 17.7675 14.3828C17.891 18.5186 17.0843 23.1482 17.0843 23.1482C16.4633 26.6666 15.5935 27.4079 15.5935 27.4079Z" fill="#6F7390"/>
<path id="Vector_4" d="M26.7685 8.50297C25.9624 7.09801 20.2154 8.88193 13.9285 12.487C7.6416 16.092 3.20688 20.1536 4.01244 21.558C4.818 22.9624 10.5655 21.179 16.8524 17.574C23.1394 13.969 27.5741 9.90733 26.7685 8.50297ZM4.7562 21.3653C4.44756 21.3264 4.51728 21.0727 4.51728 21.0727C4.89588 19.9962 6.10068 18.874 6.10068 18.874C9.09384 15.6536 17.0662 11.4382 17.0662 11.4382C23.5766 8.40913 25.5989 8.53693 26.1119 8.67817C26.1645 8.69286 26.2103 8.72572 26.241 8.77092C26.2718 8.81613 26.2856 8.87075 26.2799 8.92513C26.2182 9.59713 25.0298 10.8091 25.0298 10.8091C21.3204 14.5122 17.1359 16.7708 17.1359 16.7708C13.6099 18.9368 9.19272 20.5399 9.19272 20.5399C5.83164 21.7511 4.75632 21.3653 4.75632 21.3653H4.7562Z" fill="#6F7390"/>
<path id="Vector_5" d="M26.7401 21.6048C27.5525 20.2036 23.1289 16.1234 16.8641 12.4912C10.5992 8.85905 4.85303 7.05305 4.04135 8.45669C3.22967 9.86033 7.65251 13.9382 13.9209 17.5703C20.1894 21.2025 25.9284 23.0086 26.7401 21.6048ZM4.57967 8.99813C4.45967 8.71361 4.71299 8.64509 4.71299 8.64509C5.83451 8.43329 7.40987 8.91593 7.40987 8.91593C11.6957 9.89189 19.3379 14.6789 19.3379 14.6789C25.2218 18.7962 26.1242 20.6098 26.2595 21.1246C26.2732 21.1774 26.2679 21.2334 26.2444 21.2826C26.2209 21.3319 26.1808 21.3712 26.1311 21.3938C25.5175 21.6747 23.8742 21.2561 23.8742 21.2561C18.8094 19.8981 14.7588 17.4099 14.7588 17.4099C11.1193 15.4469 7.52051 12.4265 7.52051 12.4265C4.78595 10.1241 4.58051 9.00125 4.58051 9.00125L4.57967 8.99813Z" fill="#6F7390"/>
<path id="Vector_6" d="M15.3596 16.5432C16.2119 16.5432 16.9028 15.8523 16.9028 15C16.9028 14.1477 16.2119 13.4568 15.3596 13.4568C14.5073 13.4568 13.8164 14.1477 13.8164 15C13.8164 15.8523 14.5073 16.5432 15.3596 16.5432Z" fill="#B7B9C8"/>
<path id="Vector_7" d="M21.6861 10C22.1804 10 22.5812 9.58548 22.5812 9.07411C22.5812 8.56274 22.1804 8.14819 21.6861 8.14819C21.1918 8.14819 20.791 8.56274 20.791 9.07411C20.791 9.58548 21.1918 10 21.6861 10Z" fill="#B7B9C8"/>
<path id="Vector_8" d="M6.99469 13.1482C7.48903 13.1482 7.88977 12.7337 7.88977 12.2223C7.88977 11.7109 7.48903 11.2964 6.99469 11.2964C6.50035 11.2964 6.09961 11.7109 6.09961 12.2223C6.09961 12.7337 6.50035 13.1482 6.99469 13.1482Z" fill="#B7B9C8"/>
<path id="Vector_9" d="M13.5377 24.5061C14.032 24.5061 14.4327 24.0916 14.4327 23.5802C14.4327 23.0688 14.032 22.6543 13.5377 22.6543C13.0433 22.6543 12.6426 23.0688 12.6426 23.5802C12.6426 24.0916 13.0433 24.5061 13.5377 24.5061Z" fill="#B7B9C8"/>
</g>
<defs>
<clipPath id="clip0_494_392">
<rect width="30" height="30" fill="white" transform="translate(0.359375)"/>
</clipPath>
</defs>
</svg>
