<svg width="20" height="25" viewBox="0 0 20 25" fill="none" xmlns="http://www.w3.org/2000/svg">
<path id="Vector" d="M6 24.5V19.5M14 24.5V19.5M1 24.5V19.5C1 14.53 5.03 11.5 10 11.5M10 11.5C14.97 11.5 19 14.53 19 19.5V24.5M10 11.5C11.3261 11.5 12.5979 10.9732 13.5355 10.0355C14.4732 9.09785 15 7.82608 15 6.5C15 5.17392 14.4732 3.90215 13.5355 2.96447C12.5979 2.02678 11.3261 1.5 10 1.5C8.67392 1.5 7.40215 2.02678 6.46447 2.96447C5.52678 3.90215 5 5.17392 5 6.5C5 7.82608 5.52678 9.09785 6.46447 10.0355C7.40215 10.9732 8.67392 11.5 10 11.5Z" stroke="white" stroke-width="2"/>
</svg>
