<svg width="32" height="32" viewBox="0 0 32 32" fill="none" xmlns="http://www.w3.org/2000/svg">
<g id="ep:trend-charts">
<path id="Vector" d="M4 28V4H28V28H4ZM13.116 17.772L17.116 20.972L22.746 14.666L21.254 13.334L16.884 18.228L12.884 15.028L7.254 21.334L8.746 22.666L13.116 17.772ZM25.5 11C25.5 10.6022 25.342 10.2206 25.0607 9.93934C24.7794 9.65804 24.3978 9.5 24 9.5C23.6022 9.5 23.2206 9.65804 22.9393 9.93934C22.658 10.2206 22.5 10.6022 22.5 11C22.5 11.3978 22.658 11.7794 22.9393 12.0607C23.2206 12.342 23.6022 12.5 24 12.5C24.3978 12.5 24.7794 12.342 25.0607 12.0607C25.342 11.7794 25.5 11.3978 25.5 11Z" fill="#1E565F"/>
</g>
</svg>
