<svg width="48" height="48" viewBox="0 0 48 48" fill="none" xmlns="http://www.w3.org/2000/svg">
<g id="ph:video-fill">
<path id="Vector" d="M43.5 39C43.5 39.3978 43.342 39.7794 43.0607 40.0607C42.7794 40.342 42.3978 40.5 42 40.5H6C5.60218 40.5 5.22064 40.342 4.93934 40.0607C4.65804 39.7794 4.5 39.3978 4.5 39C4.5 38.6022 4.65804 38.2206 4.93934 37.9393C5.22064 37.658 5.60218 37.5 6 37.5H42C42.3978 37.5 42.7794 37.658 43.0607 37.9393C43.342 38.2206 43.5 38.6022 43.5 39ZM43.5 10.5V31.5C43.5 32.2956 43.1839 33.0587 42.6213 33.6213C42.0587 34.1839 41.2957 34.5 40.5 34.5H7.5C6.70435 34.5 5.94129 34.1839 5.37868 33.6213C4.81607 33.0587 4.5 32.2956 4.5 31.5V10.5C4.5 9.70435 4.81607 8.94129 5.37868 8.37868C5.94129 7.81607 6.70435 7.5 7.5 7.5H40.5C41.2957 7.5 42.0587 7.81607 42.6213 8.37868C43.1839 8.94129 43.5 9.70435 43.5 10.5ZM30.75 21C30.7499 20.7475 30.6861 20.4992 30.5645 20.278C30.4429 20.0567 30.2675 19.8698 30.0544 19.7344L21.8044 14.4844C21.5776 14.3403 21.3163 14.2598 21.0478 14.2512C20.7793 14.2427 20.5134 14.3064 20.2779 14.4357C20.0424 14.565 19.846 14.7552 19.7092 14.9864C19.5723 15.2176 19.5001 15.4813 19.5 15.75V26.25C19.5001 26.5187 19.5723 26.7824 19.7092 27.0136C19.846 27.2448 20.0424 27.435 20.2779 27.5643C20.5134 27.6936 20.7793 27.7573 21.0478 27.7488C21.3163 27.7402 21.5776 27.6597 21.8044 27.5156L30.0544 22.2656C30.2675 22.1302 30.4429 21.9433 30.5645 21.722C30.6861 21.5008 30.7499 21.2525 30.75 21Z" fill="#B4CFDB"/>
</g>
</svg>
