<svg width="44" height="36" viewBox="0 0 44 36" fill="none" xmlns="http://www.w3.org/2000/svg">
<path id="Vector" d="M28 0C28.5304 0 29.0391 0.210714 29.4142 0.585786C29.7893 0.960859 30 1.46957 30 2V6H38C38.5304 6 39.0391 6.21071 39.4142 6.58579C39.7893 6.96086 40 7.46957 40 8V32H44V36H0V32H4V8C4 7.46957 4.21071 6.96086 4.58579 6.58579C4.96086 6.21071 5.46957 6 6 6H14V2C14 1.46957 14.2107 0.960859 14.5858 0.585786C14.9609 0.210714 15.4696 0 16 0H28ZM18 10H14V32H18V10ZM30 10H26V32H30V10ZM26 4H18V6H26V4Z" fill="white"/>
</svg>
