<svg width="36" height="32" viewBox="0 0 36 32" fill="none" xmlns="http://www.w3.org/2000/svg">
<path id="Vector" d="M32 0C33.0609 0 34.0783 0.421427 34.8284 1.17157C35.5786 1.92172 36 2.93913 36 4V28C36 29.0609 35.5786 30.0783 34.8284 30.8284C34.0783 31.5786 33.0609 32 32 32H4C2.93913 32 1.92172 31.5786 1.17157 30.8284C0.421427 30.0783 0 29.0609 0 28V4C0 2.93913 0.421427 1.92172 1.17157 1.17157C1.92172 0.421427 2.93913 0 4 0H32ZM32 12H4V26C4.00006 26.4899 4.17991 26.9627 4.50543 27.3287C4.83095 27.6948 5.2795 27.9287 5.766 27.986L6 28H30C30.4899 27.9999 30.9627 27.8201 31.3287 27.4946C31.6948 27.1691 31.9287 26.7205 31.986 26.234L32 26V12ZM6 4C5.46957 4 4.96086 4.21071 4.58579 4.58579C4.21071 4.96086 4 5.46957 4 6C4 6.53043 4.21071 7.03914 4.58579 7.41421C4.96086 7.78929 5.46957 8 6 8C6.53043 8 7.03914 7.78929 7.41421 7.41421C7.78929 7.03914 8 6.53043 8 6C8 5.46957 7.78929 4.96086 7.41421 4.58579C7.03914 4.21071 6.53043 4 6 4ZM12 4C11.4696 4 10.9609 4.21071 10.5858 4.58579C10.2107 4.96086 10 5.46957 10 6C10 6.53043 10.2107 7.03914 10.5858 7.41421C10.9609 7.78929 11.4696 8 12 8C12.5304 8 13.0391 7.78929 13.4142 7.41421C13.7893 7.03914 14 6.53043 14 6C14 5.46957 13.7893 4.96086 13.4142 4.58579C13.0391 4.21071 12.5304 4 12 4ZM18 4C17.4696 4 16.9609 4.21071 16.5858 4.58579C16.2107 4.96086 16 5.46957 16 6C16 6.53043 16.2107 7.03914 16.5858 7.41421C16.9609 7.78929 17.4696 8 18 8C18.5304 8 19.0391 7.78929 19.4142 7.41421C19.7893 7.03914 20 6.53043 20 6C20 5.46957 19.7893 4.96086 19.4142 4.58579C19.0391 4.21071 18.5304 4 18 4Z" fill="white"/>
</svg>
