<svg width="38" height="38" viewBox="0 0 38 38" fill="none" xmlns="http://www.w3.org/2000/svg">
<g id="Group">
<path id="Vector" d="M33 7H5C2.79086 7 1 8.79086 1 11V33C1 35.2091 2.79086 37 5 37H33C35.2091 37 37 35.2091 37 33V11C37 8.79086 35.2091 7 33 7Z" stroke="white" stroke-width="2"/>
<path id="Vector_2" d="M1 15C1 11.228 1 9.344 2.172 8.172C3.344 7 5.228 7 9 7H29C32.772 7 34.656 7 35.828 8.172C37 9.344 37 11.228 37 15H1Z" fill="white"/>
<path id="Vector_3" d="M9 1V7M29 1V7" stroke="white" stroke-width="2" stroke-linecap="round"/>
</g>
</svg>
