<svg width="32" height="32" viewBox="0 0 32 32" fill="none" xmlns="http://www.w3.org/2000/svg">
<g id="flat-color-icons:about">
<path id="Vector" d="M24.6663 26.6667H7.33301L3.33301 30.6667V8C3.33301 5.8 5.13301 4 7.33301 4H24.6663C26.8663 4 28.6663 5.8 28.6663 8V22.6667C28.6663 24.8667 26.8663 26.6667 24.6663 26.6667Z" fill="#3ED96C"/>
<g id="Group">
<path id="Vector_2" d="M14.667 13.333H17.3337V20.6663H14.667V13.333Z" fill="white"/>
<path id="Vector_3" d="M16.0003 11.3332C16.7367 11.3332 17.3337 10.7362 17.3337 9.99984C17.3337 9.26346 16.7367 8.6665 16.0003 8.6665C15.2639 8.6665 14.667 9.26346 14.667 9.99984C14.667 10.7362 15.2639 11.3332 16.0003 11.3332Z" fill="white"/>
</g>
</g>
</svg>
