<svg width="33" height="39" viewBox="0 0 33 39" fill="none" xmlns="http://www.w3.org/2000/svg">
<path id="Vector" d="M29.7206 6.01688C27.4575 2.1375 24.36 0 21 0H12C8.64 0 5.5425 2.1375 3.27938 6.01688C1.16438 9.64125 0 14.4375 0 19.5C0 24.5625 1.16438 29.3588 3.27938 32.9831C5.5425 36.8625 8.64 39 12 39H21C24.36 39 27.4575 36.8625 29.7206 32.9831C31.8356 29.3588 33 24.5625 33 19.5C33 14.4375 31.8356 9.64125 29.7206 6.01688ZM29.9606 18H23.9606C23.8434 14.9219 23.2306 11.8829 22.1456 9H27.8812C29.0287 11.5087 29.7862 14.625 29.9606 18ZM26.0981 6H20.7113C20.0847 4.91309 19.3293 3.90581 18.4613 3H21C22.875 3 24.6375 4.125 26.0981 6ZM21 36H18.4669C19.3349 35.0942 20.0903 34.0869 20.7169 33H26.1038C24.6375 34.875 22.875 36 21 36ZM27.8812 30H22.1475C23.2324 27.1171 23.8453 24.0781 23.9625 21H29.9625C29.7863 24.375 29.0287 27.4912 27.8812 30Z" fill="white"/>
</svg>
