<svg width="39" height="40" viewBox="0 0 39 40" fill="none" xmlns="http://www.w3.org/2000/svg">
<path id="Vector" d="M7.414 7.656L2.828 12.242L0 9.414L9.414 0L18.828 9.414L16 12.242L11.414 7.656V17.828H7.414V7.656ZM20.414 9.828C20.414 12.2149 21.3622 14.5041 23.05 16.192C24.7379 17.8798 27.0271 18.828 29.414 18.828C31.8009 18.828 34.0901 17.8798 35.778 16.192C37.4658 14.5041 38.414 12.2149 38.414 9.828C38.414 7.44105 37.4658 5.15187 35.778 3.46404C34.0901 1.77621 31.8009 0.828 29.414 0.828C27.0271 0.828 24.7379 1.77621 23.05 3.46404C21.3622 5.15187 20.414 7.44105 20.414 9.828ZM38.828 30.242L36 27.414L31.414 32V21.828H27.414V32L22.828 27.414L20 30.242L29.414 39.656L38.828 30.242ZM17.414 23.828C17.414 23.2976 17.2033 22.7889 16.8282 22.4138C16.4531 22.0387 15.9444 21.828 15.414 21.828H3.414C2.88357 21.828 2.37486 22.0387 1.99979 22.4138C1.62471 22.7889 1.414 23.2976 1.414 23.828V35.828C1.414 36.3584 1.62471 36.8671 1.99979 37.2422C2.37486 37.6173 2.88357 37.828 3.414 37.828H15.414C15.9444 37.828 16.4531 37.6173 16.8282 37.2422C17.2033 36.8671 17.414 36.3584 17.414 35.828V23.828Z" fill="white"/>
</svg>
