<svg width="18" height="18" viewBox="0 0 18 18" fill="none" xmlns="http://www.w3.org/2000/svg">
<path d="M3.32812 1.78125C2.91787 1.78125 2.52441 1.94422 2.23432 2.23432C1.94422 2.52441 1.78125 2.91787 1.78125 3.32812V14.6719C1.78125 15.0821 1.94422 15.4756 2.23432 15.7657C2.52441 16.0558 2.91787 16.2188 3.32812 16.2188H14.6719C15.0821 16.2188 15.4756 16.0558 15.7657 15.7657C16.0558 15.4756 16.2188 15.0821 16.2188 14.6719V11.2344C16.2188 11.0065 16.3093 10.7879 16.4705 10.6267C16.6316 10.4655 16.8502 10.375 17.0781 10.375C17.306 10.375 17.5246 10.4655 17.6858 10.6267C17.847 10.7879 17.9375 11.0065 17.9375 11.2344V14.6719C17.9375 15.538 17.5934 16.3686 16.981 16.981C16.3686 17.5934 15.538 17.9375 14.6719 17.9375H3.32812C2.46203 17.9375 1.6314 17.5934 1.01898 16.981C0.406556 16.3686 0.0625 15.538 0.0625 14.6719V3.32812C0.0625 2.46203 0.406556 1.6314 1.01898 1.01898C1.6314 0.406556 2.46203 0.0625 3.32812 0.0625H6.76562C6.99355 0.0625 7.21213 0.153041 7.37329 0.314205C7.53446 0.475369 7.625 0.693955 7.625 0.921875C7.625 1.1498 7.53446 1.36838 7.37329 1.52954C7.21213 1.69071 6.99355 1.78125 6.76562 1.78125H3.32812ZM10.375 0.921875C10.375 0.4475 10.76 0.0625 11.2344 0.0625H17.0781C17.5525 0.0625 17.9375 0.4475 17.9375 0.921875V6.76562C17.9375 6.99355 17.847 7.21213 17.6858 7.37329C17.5246 7.53446 17.306 7.625 17.0781 7.625C16.8502 7.625 16.6316 7.53446 16.4705 7.37329C16.3093 7.21213 16.2188 6.99355 16.2188 6.76562V2.99675L11.8421 7.37337C11.7623 7.45319 11.6676 7.5165 11.5633 7.55969C11.459 7.60288 11.3472 7.62511 11.2344 7.62511C11.1215 7.62511 11.0097 7.60288 10.9055 7.55969C10.8012 7.5165 10.7064 7.45319 10.6266 7.37337C10.5468 7.29356 10.4835 7.19881 10.4403 7.09454C10.3971 6.99026 10.3749 6.87849 10.3749 6.76562C10.3749 6.65276 10.3971 6.54099 10.4403 6.43671C10.4835 6.33244 10.5468 6.23769 10.6266 6.15788L15.0033 1.78125H11.2344C10.76 1.78125 10.375 1.39625 10.375 0.921875Z" fill="white"/>
</svg>
