<svg width="8" height="6" viewBox="0 0 8 6" fill="none" xmlns="http://www.w3.org/2000/svg">
<g id="ST">
<path id="Vector" d="M6.43633 1.45334V5.32667H5.55633V1.45334H4.23633V0.67334H7.75633V1.45334H6.43633Z" fill="white"/>
<path id="Vector_2" d="M1.97747 5.4066C1.57747 5.4066 1.23747 5.33548 0.957474 5.19326C0.681918 5.05104 0.444141 4.86437 0.244141 4.63326L0.837474 4.05993C0.997474 4.2466 1.17525 4.38882 1.37081 4.48659C1.57081 4.58437 1.79081 4.63326 2.03081 4.63326C2.30192 4.63326 2.50636 4.57548 2.64414 4.45993C2.78192 4.33993 2.85081 4.17993 2.85081 3.97993C2.85081 3.82437 2.80636 3.69771 2.71747 3.59993C2.62859 3.50215 2.46192 3.43104 2.21747 3.38659L1.77747 3.31993C0.848585 3.17326 0.384141 2.72215 0.384141 1.9666C0.384141 1.75771 0.421918 1.56882 0.497474 1.39993C0.577474 1.23104 0.690807 1.0866 0.837474 0.966595C0.984141 0.846595 1.1597 0.755484 1.36414 0.693262C1.57303 0.626595 1.80859 0.593262 2.07081 0.593262C2.42192 0.593262 2.72859 0.65104 2.99081 0.766595C3.25303 0.882151 3.47747 1.05326 3.66414 1.27993L3.06414 1.8466C2.94859 1.70437 2.80859 1.58882 2.64414 1.49993C2.4797 1.41104 2.27303 1.3666 2.02414 1.3666C1.77081 1.3666 1.5797 1.41548 1.45081 1.51326C1.32636 1.6066 1.26414 1.73993 1.26414 1.91326C1.26414 2.09104 1.31525 2.22215 1.41747 2.3066C1.5197 2.39104 1.68414 2.45326 1.91081 2.49326L2.34414 2.57326C2.81525 2.65771 3.16192 2.80882 3.38414 3.02659C3.61081 3.23993 3.72414 3.53993 3.72414 3.92659C3.72414 4.14882 3.68414 4.35104 3.60414 4.53326C3.52859 4.71104 3.41525 4.86659 3.26414 4.99993C3.11747 5.12882 2.93525 5.22882 2.71747 5.29993C2.50414 5.37104 2.25747 5.4066 1.97747 5.4066Z" fill="white"/>
</g>
</svg>
