<svg width="32" height="32" viewBox="0 0 32 32" fill="none" xmlns="http://www.w3.org/2000/svg">
<g clip-path="url(#clip0_285_13360)">
<path d="M15.8024 3.00001C8.84114 3.10626 3.15114 8.76126 2.99989 15.7263C2.94692 18.069 3.53103 20.3821 4.68989 22.4188C4.73541 22.4984 4.80195 22.5639 4.88223 22.6083C4.9625 22.6526 5.05343 22.674 5.14505 22.6701C5.23668 22.6663 5.32547 22.6373 5.40172 22.5863C5.47798 22.5354 5.53875 22.4644 5.57739 22.3813C6.5162 20.3873 7.00158 18.2102 6.99864 16.0063C6.99643 14.6564 7.29888 13.3233 7.88346 12.1066C8.46804 10.8898 9.31967 9.82064 10.3749 8.97876C10.4784 8.89783 10.5968 8.83808 10.7234 8.80292C10.85 8.76776 10.9823 8.75788 11.1127 8.77384C11.2431 8.7898 11.3691 8.83129 11.4834 8.89594C11.5978 8.96059 11.6983 9.04714 11.7793 9.15064C11.8602 9.25413 11.9199 9.37256 11.9551 9.49915C11.9903 9.62574 12.0001 9.75801 11.9842 9.88842C11.9682 10.0188 11.9267 10.1448 11.8621 10.2592C11.7974 10.3736 11.7109 10.4741 11.6074 10.555C10.7916 11.2104 10.1337 12.0408 9.68237 12.9848C9.23101 13.9289 8.99776 14.9624 8.99989 16.0088C9.00318 19.0109 8.20717 21.9598 6.69364 24.5525C6.63754 24.6478 6.61459 24.7589 6.62838 24.8686C6.64218 24.9783 6.69194 25.0804 6.76989 25.1588C7.01989 25.4088 7.28114 25.6588 7.55114 25.8863C7.60647 25.9327 7.67123 25.9667 7.74094 25.9857C7.81065 26.0048 7.88366 26.0085 7.95495 25.9966C8.02623 25.9847 8.0941 25.9575 8.15386 25.9169C8.21362 25.8763 8.26387 25.8232 8.30114 25.7613C9.40774 23.9242 10.1935 21.9121 10.6249 19.8113C10.6778 19.5513 10.8317 19.3231 11.0529 19.1767C11.2741 19.0303 11.5444 18.9778 11.8043 19.0306C12.0642 19.0835 12.2924 19.2375 12.4388 19.4587C12.5852 19.6798 12.6378 19.9501 12.5849 20.21C12.1014 22.5805 11.2102 24.8491 9.95114 26.915C9.91563 26.9737 9.89259 27.0392 9.88346 27.1072C9.87433 27.1752 9.8793 27.2444 9.89806 27.3104C9.91682 27.3764 9.94897 27.4379 9.99251 27.4909C10.0361 27.544 10.09 27.5875 10.1511 27.6188C10.4599 27.775 10.7761 27.92 11.0974 28.0525C11.2083 28.1 11.3327 28.1058 11.4476 28.0689C11.5624 28.0319 11.66 27.9546 11.7224 27.8513C13.8699 24.2842 15.0031 20.1986 14.9999 16.035C14.9973 15.7783 15.0916 15.5301 15.264 15.3399C15.4364 15.1496 15.6742 15.0314 15.9299 15.0088C16.067 14.9991 16.2046 15.0179 16.3341 15.0638C16.4636 15.1097 16.5823 15.1819 16.6827 15.2757C16.7831 15.3695 16.8631 15.4831 16.9177 15.6092C16.9722 15.7353 17.0002 15.8713 16.9999 16.0088C17.0048 20.2599 15.9199 24.4413 13.8486 28.1538C13.8088 28.2249 13.7869 28.3046 13.7849 28.3861C13.7829 28.4676 13.8009 28.5484 13.8372 28.6213C13.8736 28.6943 13.9272 28.7572 13.9935 28.8047C14.0598 28.8522 14.1366 28.8828 14.2174 28.8938C14.5966 28.9463 14.9803 28.9821 15.3686 29.0013C15.462 29.0047 15.5545 28.982 15.6355 28.9356C15.7166 28.8892 15.7831 28.821 15.8274 28.7388C17.9063 24.8501 18.9958 20.5095 18.9999 16.1C19.0061 14.4438 17.7124 13.0388 16.0574 13.0075C15.6592 12.9999 15.2636 13.0716 14.8934 13.2185C14.5233 13.3653 14.1861 13.5844 13.9015 13.863C13.6169 14.1415 13.3906 14.4739 13.2358 14.8408C13.081 15.2077 13.0008 15.6018 12.9999 16C12.9981 16.2497 12.904 16.49 12.7358 16.6745C12.5676 16.8591 12.3371 16.975 12.0886 17C11.9501 17.0124 11.8104 16.9957 11.6786 16.951C11.5469 16.9063 11.4259 16.8346 11.3234 16.7404C11.221 16.6463 11.1393 16.5319 11.0835 16.4044C11.0278 16.2769 10.9993 16.1391 10.9999 16C10.9999 15.339 11.1309 14.6845 11.3855 14.0744C11.64 13.4643 12.013 12.9108 12.4829 12.4458C12.9527 11.9808 13.5101 11.6136 14.1228 11.3654C14.7355 11.1173 15.3914 10.9931 16.0524 11C18.8024 11.0288 21.0124 13.3963 20.9986 16.145C20.9865 20.2222 20.1123 24.2507 18.4336 27.9663C18.3955 28.0518 18.3822 28.1464 18.3952 28.2392C18.4082 28.332 18.447 28.4193 18.5072 28.4911C18.5674 28.5629 18.6466 28.6163 18.7357 28.6453C18.8248 28.6743 18.9202 28.6777 19.0111 28.655C19.4448 28.5522 19.8729 28.427 20.2936 28.28C20.3592 28.2567 20.4192 28.22 20.4698 28.1723C20.5204 28.1245 20.5604 28.0667 20.5874 28.0025C21.1695 26.623 21.6491 25.2025 22.0224 23.7525C22.0552 23.6253 22.1128 23.5058 22.1918 23.4008C22.2708 23.2958 22.3697 23.2075 22.4829 23.1407C22.5961 23.074 22.7213 23.0302 22.8514 23.0118C22.9815 22.9935 23.1139 23.0009 23.2411 23.0338C23.3684 23.0666 23.4879 23.1242 23.5928 23.2032C23.6978 23.2822 23.7862 23.3811 23.8529 23.4943C23.9197 23.6074 23.9635 23.7327 23.9818 23.8628C24.0002 23.9929 23.9927 24.1253 23.9599 24.2525C23.8666 24.6167 23.7666 24.9792 23.6599 25.34C23.6285 25.4439 23.6318 25.5552 23.6692 25.6571C23.7066 25.7589 23.7762 25.8459 23.8673 25.9047C23.9585 25.9636 24.0664 25.9912 24.1746 25.9833C24.2829 25.9755 24.3856 25.9326 24.4674 25.8613C26.4945 24.1206 27.936 21.7975 28.5957 19.2083C29.2555 16.6191 29.1013 13.8895 28.1543 11.3911C27.2074 8.89258 25.5135 6.74658 23.3033 5.24514C21.0932 3.7437 18.474 2.95976 15.8024 3.00001ZM24.7499 20.135C24.7195 20.3763 24.6022 20.5982 24.42 20.7593C24.2378 20.9204 24.0031 21.0095 23.7599 21.01C23.7181 21.01 23.6764 21.0075 23.6349 21.0025C23.5045 20.9863 23.3787 20.9445 23.2645 20.8797C23.1503 20.8148 23.0499 20.728 22.9693 20.6244C22.8886 20.5207 22.8291 20.4022 22.7943 20.2755C22.7594 20.1489 22.7499 20.0166 22.7661 19.8863C22.9256 18.6007 23.0057 17.3066 23.0061 16.0113C23.0035 14.1556 22.2651 12.3766 20.953 11.0644C19.6408 9.75225 17.8618 9.01391 16.0061 9.01126C15.7136 9.01113 15.4214 9.02908 15.1311 9.06501C14.8677 9.09816 14.602 9.02532 14.3923 8.86252C14.1826 8.69971 14.0462 8.46028 14.013 8.19689C13.9799 7.93349 14.0527 7.66772 14.2155 7.45803C14.3783 7.24834 14.6177 7.11191 14.8811 7.07876C16.1482 6.92115 17.4343 7.03457 18.6543 7.41151C19.8742 7.78845 21.0001 8.42031 21.9574 9.26522C22.9147 10.1101 23.6816 11.1488 24.2072 12.3125C24.7328 13.4761 25.0051 14.7382 25.0061 16.015C25.0058 17.3923 24.9203 18.7683 24.7499 20.135Z" fill="black"/>
</g>
<defs>
<clipPath id="clip0_285_13360">
<rect width="32" height="32" fill="white"/>
</clipPath>
</defs>
</svg>
