<svg width="32" height="32" viewBox="0 0 32 32" fill="none" xmlns="http://www.w3.org/2000/svg">
<g clip-path="url(#clip0_305_35184)">
<path d="M29 26C29 26.2652 28.8946 26.5196 28.7071 26.7071C28.5196 26.8946 28.2652 27 28 27H4C3.73478 27 3.48043 26.8946 3.29289 26.7071C3.10536 26.5196 3 26.2652 3 26C3 25.7348 3.10536 25.4804 3.29289 25.2929C3.48043 25.1054 3.73478 25 4 25H5V17C5 16.7348 5.10536 16.4804 5.29289 16.2929C5.48043 16.1054 5.73478 16 6 16H9C9.26522 16 9.51957 16.1054 9.70711 16.2929C9.89464 16.4804 10 16.7348 10 17V25H12V11C12 10.7348 12.1054 10.4804 12.2929 10.2929C12.4804 10.1054 12.7348 10 13 10H17C17.2652 10 17.5196 10.1054 17.7071 10.2929C17.8946 10.4804 18 10.7348 18 11V25H20V5C20 4.73478 20.1054 4.48043 20.2929 4.29289C20.4804 4.10536 20.7348 4 21 4H26C26.2652 4 26.5196 4.10536 26.7071 4.29289C26.8946 4.48043 27 4.73478 27 5V25H28C28.2652 25 28.5196 25.1054 28.7071 25.2929C28.8946 25.4804 29 25.7348 29 26Z" fill="black"/>
</g>
<defs>
<clipPath id="clip0_305_35184">
<rect width="32" height="32" fill="white"/>
</clipPath>
</defs>
</svg>
