<svg width="32" height="32" viewBox="0 0 32 32" fill="none" xmlns="http://www.w3.org/2000/svg">
<g clip-path="url(#clip0_305_35147)">
<path d="M20 7V19C20 19.2652 19.8946 19.5196 19.7071 19.7071C19.5196 19.8946 19.2652 20 19 20H14C13.7348 20 13.4804 19.8946 13.2929 19.7071C13.1054 19.5196 13 19.2652 13 19V7C13 6.73478 13.1054 6.48043 13.2929 6.29289C13.4804 6.10536 13.7348 6 14 6H19C19.2652 6 19.5196 6.10536 19.7071 6.29289C19.8946 6.48043 20 6.73478 20 7ZM28 6H23C22.7348 6 22.4804 6.10536 22.2929 6.29289C22.1054 6.48043 22 6.73478 22 7V13C22 13.2652 22.1054 13.5196 22.2929 13.7071C22.4804 13.8946 22.7348 14 23 14H28C28.2652 14 28.5196 13.8946 28.7071 13.7071C28.8946 13.5196 29 13.2652 29 13V7C29 6.73478 28.8946 6.48043 28.7071 6.29289C28.5196 6.10536 28.2652 6 28 6ZM28 16H23C22.7348 16 22.4804 16.1054 22.2929 16.2929C22.1054 16.4804 22 16.7348 22 17V22C22 22.5304 22.2107 23.0391 22.5858 23.4142C22.9609 23.7893 23.4696 24 24 24H27C27.5304 24 28.0391 23.7893 28.4142 23.4142C28.7893 23.0391 29 22.5304 29 22V17C29 16.7348 28.8946 16.4804 28.7071 16.2929C28.5196 16.1054 28.2652 16 28 16ZM10 6H5C4.73478 6 4.48043 6.10536 4.29289 6.29289C4.10536 6.48043 4 6.73478 4 7V13C4 13.2652 4.10536 13.5196 4.29289 13.7071C4.48043 13.8946 4.73478 14 5 14H10C10.2652 14 10.5196 13.8946 10.7071 13.7071C10.8946 13.5196 11 13.2652 11 13V7C11 6.73478 10.8946 6.48043 10.7071 6.29289C10.5196 6.10536 10.2652 6 10 6ZM10 16H5C4.73478 16 4.48043 16.1054 4.29289 16.2929C4.10536 16.4804 4 16.7348 4 17V26C4 26.5304 4.21071 27.0391 4.58579 27.4142C4.96086 27.7893 5.46957 28 6 28H9C9.53043 28 10.0391 27.7893 10.4142 27.4142C10.7893 27.0391 11 26.5304 11 26V17C11 16.7348 10.8946 16.4804 10.7071 16.2929C10.5196 16.1054 10.2652 16 10 16Z" fill="black"/>
</g>
<defs>
<clipPath id="clip0_305_35147">
<rect width="32" height="32" fill="white"/>
</clipPath>
</defs>
</svg>
