<svg width="161" height="124" viewBox="0 0 161 124" fill="none" xmlns="http://www.w3.org/2000/svg">
<g clip-path="url(#clip0_287_37322)">
<path fill-rule="evenodd" clip-rule="evenodd" d="M79.5976 26.6689C77.9251 27.348 76.8015 28.9323 76.4136 30.707C76.2341 31.5274 76.4044 32.7798 75.8787 33.4412C75.2495 34.2328 74.2714 33.5476 73.5463 34.0437C71.8921 35.1757 73.6634 37.2189 74.8961 37.5553C75.8791 37.8235 76.879 37.9879 77.8673 38.1837C78.7955 38.3675 79.2486 39.2064 79.8056 39.9666C79.0362 39.8355 78.2813 39.6373 77.5076 39.5121C77.1746 39.4583 76.6916 39.2889 76.3448 39.3108C75.9264 39.3373 75.6596 39.6353 75.2621 39.7059C74.5786 39.8273 74.1087 39.3787 73.8395 40.257C73.6413 40.9043 73.9565 41.6779 74.523 41.9973C74.0224 42.4983 72.8674 42.6331 72.2125 42.841C71.2638 43.142 70.2988 43.3376 69.4189 43.8457C69.4189 42.264 69.4381 41.0118 68.6826 39.5649C68.316 38.8625 67.6166 36.8895 66.867 36.5959C66.6417 36.5076 66.3236 36.5563 66.0886 36.4846C65.8444 36.4102 65.7093 36.1929 65.4358 36.1855C64.938 36.1719 64.4007 36.7664 64.1053 37.1549C63.3582 38.1374 63.3874 39.7093 63.4335 40.893C63.4811 42.1164 63.602 43.6523 64.0908 44.784C64.2044 45.047 64.3209 45.3425 64.5687 45.5006C64.7487 45.6153 65.0842 45.5247 65.2227 45.6551C65.7257 46.1292 65.0273 46.4006 64.6392 46.6909C63.6479 47.4324 62.7915 48.1509 62.0662 49.1461C61.4538 49.9863 60.4987 51.0062 60.3421 52.0831C59.6681 51.1498 59.1942 50.0968 58.6772 49.0699C58.3837 48.4866 58.3774 48.6048 58.6896 48.1631C58.933 47.8188 59.3608 47.4605 59.7083 47.22C60.419 46.7279 61.1537 46.1982 61.3623 45.2618C61.52 44.5538 61.143 43.2454 60.9268 42.529C60.6506 41.6136 59.9286 40.9112 59.0027 41.4459C58.3169 41.8421 57.9868 43.2586 57.3219 43.4569C56.5716 43.6806 56.6748 41.8202 56.6056 41.304C56.4768 40.3409 55.9791 38.7213 56.2902 37.7754C56.5325 37.0389 57.7007 36.6464 58.3076 36.1984C59.209 35.533 60.0976 34.6855 60.7314 33.745C61.3812 32.7803 61.3238 31.7979 61.2075 30.6735C61.1395 30.0178 61.034 28.233 59.964 28.6115C59.3481 28.8294 56.5957 32.6618 56.1084 31.3016C55.9712 30.9181 56.2679 29.9515 56.3201 29.5093C56.3581 29.1869 56.352 27.6504 56.5647 27.4362C56.6465 27.3538 57.6115 27.2208 57.8225 27.088C58.3285 26.7691 58.7083 26.3512 59.0127 25.8315C60.0209 24.1097 58.8747 21.4184 56.9801 20.9863C55.7451 20.7046 55.0774 21.1476 54.386 22.1651C53.717 23.1498 52.404 22.7242 51.2873 22.9615C51.077 22.3768 51.8163 21.2266 52.0118 20.6631C52.2996 19.8332 52.6174 18.9714 52.7322 18.0958C52.9557 16.3871 52.5704 14.5439 52.0402 12.9336C52.6762 13.0333 53.5801 12.9937 54.0176 13.4802C54.4563 13.9674 54.6511 14.9678 55.0215 15.5535C55.7363 16.6833 56.5578 17.9162 57.5416 18.8148C58.8261 19.988 59.3341 19.4402 60.3187 18.3507C61.3166 17.2464 60.7936 15.6879 60.4389 14.3244C61.2465 14.2006 62.1796 14.433 62.9733 14.5637C63.6927 14.6821 65.0422 14.7087 65.6527 15.1532C66.1095 15.4856 65.9472 15.8479 65.9917 16.5014C66.0516 17.3852 66.1875 18.2788 66.4503 19.1253C66.9852 20.8477 68.1934 21.4389 69.6457 20.3307C70.1502 21.0232 70.6983 21.939 71.4773 22.3317C72.2419 22.7174 73.6636 23.0349 74.5195 23.0984C75.5968 23.1781 76.4575 22.688 77.3483 22.1313C77.7843 21.8589 77.907 21.6354 78.2876 21.8492C78.5689 22.0075 78.9404 22.7551 79.2261 23.0133C79.5461 23.3024 79.8981 23.5686 80.241 23.8283C80.4009 23.9629 80.5669 24.089 80.7392 24.2065C81.1182 24.2991 81.2455 24.5291 81.1213 24.8964C81.3609 25.6039 81.407 26.3534 81.6095 27.0684C81.8486 27.9131 82.4165 28.3733 83.18 28.685C83.4448 28.762 83.705 28.8534 83.9602 28.959C84.4152 28.9682 84.5185 29.1563 84.2699 29.5234C84.2698 30.0168 83.78 30.7671 83.5178 31.1555C83.2604 30.424 82.2655 29.6093 81.4936 29.9195C80.5962 30.28 80.5614 31.3349 80.6251 32.1599C80.0644 31.89 79.5827 31.5004 79.1035 31.1058C78.8705 30.9139 78.4848 30.6915 78.3136 30.4354C78.0167 29.9915 78.0428 30.2217 78.2515 29.6198C78.4823 28.9542 80.1908 27.3165 79.5976 26.6689Z" fill="#A982EC"/>
<path fill-rule="evenodd" clip-rule="evenodd" d="M73.7843 0.0963685C74.5586 0.303328 74.6199 0.626389 75.2068 0.982577C75.8045 1.34536 76.9464 1.04947 77.7083 1.28843C78.1081 1.41386 78.3545 1.64076 78.6962 1.8601C78.9032 1.99309 78.8775 2.06385 79.0947 2.15615C79.2079 2.20407 79.4628 2.14634 79.5965 2.17609C80.5228 2.38337 80.6058 3.49889 81.1959 3.71759C81.65 3.88611 81.8637 3.55967 82.3622 3.9186C82.6438 4.12137 82.9223 4.50008 83.0712 4.81494C83.1443 4.96947 83.2152 5.48936 83.2787 5.56671C83.4795 5.81114 83.398 5.67831 83.5932 5.81548C83.9944 6.09754 84.4662 6.09561 84.9066 6.57063C85.5041 7.21515 86.2158 7.72587 86.3578 8.65646C86.3819 8.81433 86.3868 8.95962 86.3809 9.09929L86.3758 9.01683C86.3863 9.19951 86.397 9.38186 86.4074 9.56422C86.3984 9.40919 86.3894 9.25429 86.3805 9.09959C86.3675 9.41219 86.3002 9.69651 86.2729 10.0306C86.246 10.3594 86.2034 10.3605 86.271 10.5963C86.3166 10.755 86.5835 10.9689 86.6479 11.203C87.1539 13.0389 84.2425 15.1069 82.7454 14.0742C82.1339 15.3965 81.6931 16.788 81.1054 18.1174C80.7835 18.8459 79.0894 20.5499 79.2119 21.0679C79.3127 21.4947 80.2766 21.7817 80.6129 21.9874C81.2223 22.3605 81.8127 22.8106 82.3974 23.2227C82.9056 23.581 83.3928 23.9623 83.8877 24.331L83.8708 24.3265C84.1539 24.3934 84.3644 24.5591 84.5256 24.7915C84.8644 25.0267 85.2122 25.2493 85.5777 25.4488C86.1399 25.7557 86.2897 25.8154 86.5303 26.4279C86.7768 27.0546 86.4693 26.8357 87.0064 27.2361C88.05 28.0141 89.6395 28.3525 90.8215 28.8815C93.4434 30.0546 96.0117 30.67 98.8944 30.1599C101.483 29.7021 103.901 28.4319 106.323 27.4402C108.722 26.4585 111.111 25.3843 113.384 24.1374C115.534 22.9579 117.662 21.7102 119.646 20.233C120.758 19.4051 121.933 18.6677 123.001 17.7829C124.051 16.9138 125.03 15.9494 126.096 15.1074C128.184 13.4575 130.387 11.8779 132.592 10.3829C133.221 9.95691 133.837 9.51308 134.452 9.06604C134.821 8.79701 135.563 8.01355 136.052 8.11052C137.578 8.41252 136.049 10.4295 135.791 11.0197C136.545 10.6077 137.16 9.99904 137.945 9.61938C138.346 9.42512 139.455 8.73799 139.879 9.02744C140.875 9.70685 138.525 11.9467 138.146 12.4666C138.776 12.0992 140.897 10.6445 141.411 11.8351C141.95 13.0816 139.99 14.5591 139.277 15.2536C137.171 17.3023 134.739 18.9156 132.596 20.904C132.301 21.1782 131.332 21.7825 131.405 22.2767C131.474 22.7384 132.364 23.2716 132.682 23.5781C133.309 24.1805 135.298 26.1409 134.032 27.1297C133.585 27.4785 132.31 27.1898 131.776 27.1321C130.993 27.0477 130.222 26.9824 129.445 26.8497C128.303 26.6545 127.184 25.7387 126.041 25.7041C124.756 25.6654 123.372 26.8282 122.266 27.3892C120.967 28.0481 119.72 28.7776 118.427 29.4506C115.96 30.7353 113.604 32.1747 111.058 33.3325C108.266 34.6019 105.272 35.4233 102.515 36.7722C99.7087 38.1448 97.0036 38.5809 93.9302 38.484C90.9303 38.3894 87.7233 36.3568 85.3489 34.6161C85.2118 34.5146 85.0745 34.4131 84.9374 34.3117C84.6829 33.9143 84.4609 33.904 84.2713 34.2805C83.8857 34.3449 83.7263 34.4062 83.2669 34.3732C82.5166 34.3195 82.1416 34.1468 81.4533 33.8865C79.8933 33.2965 78.7146 32.8363 77.6118 31.4589C76.8889 33.3817 78.7113 35.4105 79.687 36.9153C80.2246 37.7446 80.8362 38.5354 81.2995 39.412C81.6758 40.124 81.8116 41.2302 82.5317 41.543C82.9617 41.7299 83.2278 41.4206 83.5177 41.8641C83.707 42.1537 83.4998 42.4861 83.4627 42.7309C83.368 43.3527 83.0745 42.4763 83.2848 43.3934C83.3513 43.683 83.7497 44.2352 83.8823 44.5012C84.7857 46.3142 85.5223 48.211 86.2951 50.0864C87.0639 51.9521 87.8258 53.7997 88.5791 55.6688C88.9041 56.4754 89.3601 57.2188 89.67 58.0341C90.0478 59.0281 90.28 60.0661 90.6399 61.0677C91.1985 62.6227 91.3057 64.6795 90.8446 66.2871C90.3932 67.8612 88.4326 69.4796 86.8699 69.3787C87.5933 70.8601 88.414 72.1921 89.1679 73.647C89.8744 75.0102 90.368 76.4662 91.101 77.7801C91.9354 79.2758 92.6643 80.8721 93.5013 82.3374C94.2081 83.575 94.6517 84.9844 95.3158 86.242C96.8297 89.1088 98.2893 92.0897 99.9123 94.9342C100.856 96.5889 101.707 98.2916 102.665 99.9408C103.178 100.823 103.701 101.697 104.223 102.573C104.524 103.079 104.865 104.19 105.43 104.435C105.267 104.608 104.746 105.007 104.727 105.26C104.678 105.934 105.344 105.748 105.717 105.655C106.666 105.419 107.579 105.171 108.495 104.835C110.25 104.19 111.921 103.278 113.696 102.7C115.538 102.1 117.275 101.052 119.188 100.606C120.058 100.403 122.92 99.1543 123.172 100.201C123.22 100.399 123.095 100.875 123.097 101.115C123.101 101.54 123.209 101.919 123.15 102.36C123.037 103.206 122.583 104.05 122.141 104.755C121.082 106.444 119.895 108.1 118.499 109.512C116.107 111.933 113.944 115.18 110.991 116.909C110.406 117.252 109.85 117.86 109.188 118.04C108.452 118.241 107.827 117.989 107.17 117.961C106.808 117.945 106.788 118.151 106.352 117.983C105.994 117.845 105.534 117.399 105.242 117.163C104.504 116.568 103.881 115.814 103.272 115.084C102.734 114.438 102.163 113.206 101.434 112.794C101.03 112.565 101.051 112.932 100.688 112.423C100.487 112.141 100.469 111.854 100.221 111.572C99.9568 111.27 99.7898 111.228 99.6149 110.864C99.4925 110.611 99.4877 110.363 99.3296 110.102C98.8037 109.235 98.0085 108.491 97.4447 107.633C96.6021 106.35 95.5197 105.241 94.6331 103.996C93.572 102.505 92.392 101.021 91.2408 99.6044C89.0233 96.8758 86.9842 93.8663 84.8843 90.9834C82.6127 87.865 80.4912 84.5361 78.597 81.1601C77.5818 79.3506 76.3538 77.5994 75.2877 75.8107C74.2454 74.0623 73.2859 72.2302 72.0669 70.6078C71.8318 70.7979 72.229 71.488 71.9402 71.7709C71.6383 72.0671 70.2242 72.0788 69.8383 72.147C68.5205 72.38 67.1171 72.6389 65.7777 72.691C63.0196 72.798 60.2999 73.3713 57.52 73.4948C56.8986 73.5224 56.4059 73.4219 55.8067 73.2942C54.908 73.1024 54.7393 72.9926 54.5551 73.8963C54.2751 75.2712 53.944 76.7416 53.8201 78.1349C53.6921 79.5742 53.6692 81.0151 53.6495 82.4606C53.6402 83.1495 53.622 83.839 53.6251 84.5278C53.6299 85.5293 53.8962 86.5065 53.8454 87.5064C53.7806 88.7806 53.5619 89.8887 52.2787 90.2478C51.5609 90.4485 51.5466 90.3462 51.0394 89.9426C50.5061 89.5186 49.802 89.1355 49.3528 88.633C47.6832 86.7651 46.3606 84.1484 45.8567 81.6511C45.2858 78.821 46.0544 75.7699 46.3344 72.9561C46.4522 71.7733 46.4974 69.8726 47.3112 68.9331C48.1807 67.9294 49.9558 67.9628 51.1243 67.9495C51.3912 67.9464 51.5973 67.9186 51.7754 67.8703C51.7349 67.8667 51.6947 67.8644 51.6548 67.8655L51.8822 67.8379C52.2014 67.7304 52.4446 67.5518 52.8379 67.3299C53.3903 67.0182 54.1901 66.8605 54.7869 66.6256C56.4095 65.9867 58.1179 65.6643 59.7614 65.0971C61.0906 64.6385 62.411 64.3689 63.7606 64.0348C64.7482 63.7901 65.7785 63.7435 66.7686 63.571C66.6555 63.5576 66.5425 63.5439 66.4319 63.5593C66.6664 63.4028 66.9213 63.4881 67.1694 63.4928C67.4099 63.4406 67.6473 63.3779 67.8802 63.3002C66.3283 60.415 64.9106 57.4735 63.1903 54.6843C62.8146 55.3866 62.177 55.3993 61.4308 55.1594C61.0132 55.0249 60.8395 54.603 60.4486 54.4526C60.2049 54.3589 60.0595 54.6432 59.8042 54.4405C59.6555 54.3228 59.5643 53.9068 59.4776 53.5505C58.0441 52.0704 57.3653 50.3918 56.7021 48.4372C57.1894 49.3631 57.6343 50.3167 58.1386 51.2328C58.253 51.4408 58.3989 51.6514 58.5548 51.8647L58.5097 51.7964C58.3023 51.4818 58.1005 51.1622 57.9232 50.8213C56.3581 47.8108 55.5232 44.8576 55.0127 41.4985C54.5558 38.4906 54.4625 35.3148 54.563 32.2744L54.545 32.6633C54.5512 32.531 54.5573 32.3985 54.5634 32.266L54.563 32.2744C54.57 32.0624 54.5798 31.8522 54.5923 31.6433C54.6704 30.3464 54.8558 29.1012 55.1506 27.8184C55.2658 27.317 55.5065 26.5789 55.5169 26.0807C55.5232 25.7783 55.438 24.2988 55.3417 24.2163C54.9694 23.8967 53.5212 24.1456 53.1123 24.1888C52.368 24.2678 51.6281 24.3876 50.8837 24.4675C50.7342 24.4823 50.5844 24.4969 50.4349 24.5116C50.1475 24.4363 49.9377 24.5196 49.8058 24.7615C49.4143 24.8319 49.9091 25.1638 49.3637 24.839C48.7302 24.4619 48.7463 23.0587 48.7439 22.4222C48.7429 22.1815 48.917 21.1632 48.7549 20.9857C48.6299 20.8489 47.7727 20.9037 47.5584 20.8857C46.7441 20.8178 45.9247 20.717 45.108 20.6836C43.496 20.6173 41.8599 20.6585 40.248 20.6657C37.3833 20.6783 34.6701 22.0123 32.2774 23.5184C31.1724 24.2139 29.953 24.6983 28.862 25.4082C27.7886 26.1069 26.8458 26.965 25.7912 27.6989C24.3165 28.7249 22.771 29.5847 21.4035 30.7591C20.7486 31.3213 19.8791 31.8835 19.3994 32.6277C18.9175 33.375 19.2421 34.2205 19.2219 35.0777C19.1999 36.0064 19.2573 36.9913 19.1017 37.9015C19.0477 38.2172 18.9999 38.8186 18.7157 39.0251C18.2823 39.3398 18.3915 39.1098 18.0199 38.8998C16.4126 37.9908 16.1271 36.2891 15.6636 34.6664C13.0071 38.3141 11.2413 42.5271 8.72926 46.2976C8.34453 46.8752 7.67411 48.0986 6.86644 47.5061C6.38045 47.1494 6.29862 46.455 6.35471 45.7849L6.35531 45.9711C6.35452 45.7929 6.35405 45.6155 6.35358 45.4383C6.35409 45.5535 6.35453 45.6687 6.35487 45.7836C6.39256 45.3339 6.49233 44.8954 6.57368 44.5773C6.87886 43.385 7.14583 42.166 7.69502 41.0615C7.97033 40.508 8.2994 39.9838 8.57864 39.4326C8.72155 39.151 9.16478 38.5909 9.14528 38.2746C9.01195 38.4476 8.87894 38.6205 8.74561 38.7937C8.11859 39.1031 7.64046 40.1047 7.12256 40.6031C6.65135 41.0564 6.11615 41.5076 5.60737 41.9404C4.67391 42.7338 3.8631 43.5957 3.07193 44.562C2.59176 45.1485 1.98329 45.7061 1.55548 44.6315C1.22845 43.8101 1.74132 43.0728 2.11631 42.371C2.60654 41.4536 3.09945 40.623 3.75052 39.8179C4.30207 39.1362 5.07657 38.4093 5.29276 37.5502C4.19359 38.3299 3.20778 39.2396 2.0193 39.8909C1.07358 40.409 -0.453874 40.3807 0.128965 38.827C0.552219 37.6992 1.85657 36.3288 2.71817 35.5074C3.61358 34.6535 4.64168 33.8596 5.60328 33.0771C7.83888 31.2578 10.3317 29.7632 12.6896 28.1111C14.8427 26.6026 17.0443 25.1786 19.1833 23.7019C23.9862 20.3857 28.6884 16.678 34.2536 14.7749C36.8381 13.8911 39.5564 13.2023 42.2363 12.7276C43.6191 12.4827 45.0973 12.1328 46.4965 12.0696C47.0122 12.0463 47.5101 12.1458 48.0202 12.1143C48.5505 12.0817 49.206 12.2246 49.7278 12.101C50.277 11.971 50.7613 11.3709 51.3072 11.4076C51.4873 11.4198 51.6538 11.6132 51.8358 11.6316C51.8358 11.6316 51.8358 11.6316 51.8358 11.6316C52.0623 11.6068 52.2842 11.4199 52.4979 11.6172C52.4976 11.6172 52.4978 11.6172 52.4979 11.6172C53.2552 11.6396 54.0113 11.6503 54.765 11.6889L54.7316 11.7035C55.0031 11.5787 55.2742 11.5993 55.5451 11.7053C55.3754 11.7049 55.2058 11.7045 55.0361 11.7042C55.6221 11.7399 56.2064 11.7956 56.7884 11.89C59.312 12.2994 62.2569 12.5145 64.6652 13.5441C64.6542 13.5318 64.6435 13.5189 64.633 13.5057C64.8476 13.4591 65.0103 13.5449 65.1402 13.7144C65.1173 13.7213 65.0951 13.7263 65.0736 13.7296C65.3472 13.8607 65.6127 14.004 65.8685 14.1607C66.2574 13.3062 65.5308 13.5638 64.8554 13.2448C64.1092 12.8924 63.5211 12.4522 62.9633 11.852C62.4864 11.339 62.0783 10.6989 62.2448 9.93456C62.3309 9.53929 62.7616 9.38218 62.8382 9.09257C62.8643 8.994 62.6003 8.66547 62.5894 8.52396C62.563 8.1853 62.5622 7.92575 62.6385 7.5924C63.026 5.90183 62.8587 3.73206 64.7341 3.00682C65.1401 2.85003 65.1313 3.02451 65.4329 2.69791C65.7247 2.38208 65.8333 1.85769 66.1671 1.51694C66.8051 0.865349 67.6026 0.35752 68.486 0.157154C69.4123 -0.0530214 70.1968 0.272935 71.0874 0.240934C72.0534 0.2062 72.7744 -0.173788 73.7843 0.0963685ZM120.288 103.064C119.627 103.615 118.944 104.157 118.258 104.677C116.691 105.865 115.23 107.166 113.745 108.46C112.401 109.631 110.962 110.68 109.563 111.779C108.233 112.823 107.049 114.054 105.805 115.205C106.615 115.689 107.497 116.403 108.476 116.173C109.271 115.986 110.209 115.279 110.895 114.82C112.491 113.751 113.825 112.277 115.159 110.898C116.466 109.547 117.715 108.228 118.949 106.826C120.336 105.249 121.317 103.747 122.246 101.858C121.539 101.378 120.763 102.668 120.288 103.064ZM108.428 106.869C107.496 107.178 106.529 107.314 105.6 107.606C104.791 107.86 104.099 108.663 103.589 109.329C103.254 109.767 103.035 110.282 102.736 110.753C102.566 111.02 101.92 111.647 101.928 111.908C101.938 112.244 102.889 113.088 103.113 113.347C103.528 113.826 103.954 114.294 104.388 114.755C105.025 113.383 106.551 112.232 107.689 111.292C108.87 110.316 110.109 109.35 111.332 108.384C114.033 106.249 116.575 104.143 119.491 102.296C119.316 101.866 109.512 106.509 108.428 106.869ZM103.914 106.065C103.024 107.195 101.672 108.471 101.383 109.953C101.944 109.291 102.44 108.563 102.983 107.885C103.219 107.59 103.465 107.327 103.73 107.059C104.216 106.568 104.37 106.612 103.914 106.065ZM80.9835 43.4682C79.204 43.6044 77.4054 43.9249 75.6523 44.3189L75.5714 44.3188C75.7001 44.3188 75.8268 44.3192 75.9537 44.3195C75.8527 44.3195 75.7517 44.3194 75.6514 44.3191C75.2281 44.4142 74.8073 44.5137 74.3901 44.6159C70.2793 45.6226 66.1941 47.6275 63.2261 50.7481L63.1265 50.8538C62.9881 51.0784 62.666 51.3925 62.7301 51.6948C62.529 51.5655 62.4656 51.4541 62.4855 51.3535C62.4574 51.3952 62.4324 51.4404 62.4111 51.4897C63.2523 52.0304 63.7897 53.272 64.3452 54.1101C64.9716 55.055 65.673 55.9433 66.2728 56.9083C67.5763 59.006 68.8264 61.1726 69.9979 63.3509C72.0254 67.1208 74.5218 70.6991 76.7518 74.3475C78.9779 77.9901 81.1021 81.5798 83.3274 85.2175C85.6965 89.0897 88.4142 92.7381 90.8614 96.513C92.3206 98.7639 93.9872 100.875 95.4822 103.105C96.8967 105.215 98.2913 107.325 99.7323 109.416C100.492 107.233 101.974 105.358 104.021 104.254C101.233 100.207 98.5652 96.1052 96.1107 91.8331C93.9962 88.1525 92.1313 84.4602 90.1677 80.7348C88.2334 77.0647 86.3247 73.391 84.3697 69.7238C83.3933 67.8922 82.571 65.9679 81.7333 64.0543C80.8422 62.0183 80.4677 59.7509 79.5028 57.7532C79.0518 56.8192 78.4407 55.7412 78.5007 54.6591C78.5574 53.6386 79.2506 52.5971 79.7836 51.7747C80.1002 51.2866 80.7068 49.9297 81.358 49.9231C82.5333 49.9112 81.1407 52.3661 80.9568 52.8492C80.1096 55.0745 81.2888 56.9985 82.1756 58.9919C83.0414 60.9386 83.7299 62.9812 84.6513 64.9049C85.0381 65.7125 85.4308 66.5008 85.7828 67.3201C85.9045 67.6029 86.2385 68.5324 86.5478 68.6244C86.7246 68.677 87.602 68.0963 87.7372 68.008C88.4238 67.5602 89.3596 66.7817 89.7717 66.0565C90.1795 65.3386 90.0141 64.1134 89.827 63.3457C89.284 61.1158 88.1405 58.9948 87.2416 56.903C86.2981 54.7072 85.308 52.4832 84.4948 50.233C84.0554 49.0173 83.6598 47.7907 83.1793 46.5899C82.9064 45.9073 82.6207 45.2301 82.3171 44.5612C81.9314 43.711 81.9022 43.3978 80.9835 43.4682ZM49.4547 70.007C48.5981 70.4306 48.3711 70.6546 48.1964 71.6049C48.015 72.5926 48.0953 73.5673 47.9956 74.5601L47.995 74.5668L47.9826 74.7412C47.9866 74.6837 47.9907 74.6261 47.9948 74.5685L47.9956 74.5601C47.8403 76.1032 47.6488 77.646 47.5565 79.1711C47.4356 81.1651 48.15 83.0263 48.9972 84.7659C49.37 85.5317 49.75 86.2757 50.3155 86.917C50.6628 87.3108 51.0653 87.645 51.4641 87.9812C51.9686 88.4063 52.0455 88.6687 52.3747 88.0927C52.7793 87.3845 52.4566 86.2352 52.3419 85.4712C52.1611 84.2666 52.0672 83.1171 52.082 81.8936C52.1273 81.3418 52.1596 80.7891 52.19 80.2364C52.1895 80.1916 52.1893 80.1469 52.189 80.1023L52.19 80.2353C52.2642 78.8847 52.3275 77.5338 52.5445 76.1937C52.6227 75.712 52.717 75.2323 52.834 74.7589C52.9406 74.3268 53.3739 73.5428 53.3391 73.119C53.3041 72.6914 52.6533 71.8934 52.5305 71.1827C52.4603 70.7752 52.4595 70.3433 52.4373 69.9314C52.4049 69.3347 52.5445 69.1901 52.0395 69.024C51.4359 68.8254 49.9726 69.7508 49.4547 70.007ZM40.6095 65.3344C40.3801 66.0467 39.4473 66.7559 38.9652 67.2867C37.6491 68.7364 36.63 70.2095 35.597 71.8689C33.9395 74.5309 32.4289 77.6329 31.7371 80.7484C29.9724 81.2472 30.5865 77.5337 30.8288 76.815C31.4234 75.0515 32.1166 73.3181 33.0188 71.6962C33.8463 70.2087 34.9763 68.5971 36.132 67.3576C36.6097 66.8453 37.1726 66.2206 37.6933 65.7438C38.1524 65.3233 39.1833 64.3002 39.7585 64.2034C40.43 64.0903 40.8425 64.6107 40.6095 65.3344ZM103.65 54.4533C104.68 56.4067 105.182 58.8195 105.553 60.9923C105.889 62.9609 106.155 65.1112 106.104 67.1101C106.154 67.4532 106.175 67.798 106.179 68.1436L106.172 68.4571C106.178 68.2024 106.183 67.9477 106.189 67.6935C106.291 67.9459 106.303 68.1957 106.179 68.442C106.174 68.9458 106.144 69.4508 106.134 69.9548C106.118 70.6835 106.27 72.1723 105.784 72.7991C105.043 73.7551 104.821 72.0411 104.775 71.5725C104.66 70.3999 104.644 69.2133 104.553 68.0381C104.235 63.9192 103.714 59.3674 102.166 55.5305C102.019 55.1664 101.787 54.3865 101.505 54.1286C101.305 53.9461 101.151 54.1463 100.921 53.8272C100.681 53.4947 100.341 51.5582 100.755 51.1829C101.624 50.3959 103.293 53.7771 103.65 54.4533ZM33.1277 64.049C34.3603 64.928 29.836 67.0722 29.2294 67.466C28.145 68.17 27.0642 68.853 26.0044 69.5973C24.891 70.3792 23.8375 71.3157 22.6928 72.0289C21.2583 70.3015 25.2976 67.7863 26.4696 67.142C27.6601 66.4873 28.7932 65.7421 30.0301 65.187C30.6215 64.9217 32.5027 63.6032 33.1277 64.049ZM68.2085 64.6843C67.9658 64.7229 67.4966 65.023 67.2617 65.1074C64.9489 65.9399 62.2806 66.3342 60.1493 67.5155C58.71 67.5299 57.1918 68.4091 55.8119 68.8148C55.2638 68.9759 54.1662 69.1356 53.7055 69.4562C53.1893 69.8157 53.4357 71.2994 53.4357 71.9549C54.3336 71.0942 55.3869 71.2705 56.575 71.2187C58.2462 71.146 59.9065 70.9773 61.5687 70.8796C63.3315 70.7758 65.0543 70.496 66.8256 70.5031C68.57 70.5102 70.2769 70.1376 71.9944 70.4811C71.6949 69.2779 70.6172 67.9895 69.9621 66.9604C69.5586 66.3266 69.2621 65.5197 68.8035 64.9323C68.4551 64.4859 68.7005 64.6057 68.2085 64.6843ZM56.4759 71.2165L55.8818 71.2264C56.0774 71.064 56.2761 71.102 56.4759 71.2165ZM109.118 56.62C109.967 59.0958 110.751 61.512 110.804 64.1659C110.822 65.0856 110.847 66.5364 110.466 67.3835C109.832 68.7931 109.262 67.5459 109.287 66.5782C109.079 64.1452 108.795 61.6966 108.282 59.3081C108.043 58.1972 107.515 56.7935 107.706 55.6422C107.986 53.9492 108.929 56.0694 109.118 56.62ZM109.287 66.5782C109.281 66.816 109.275 67.054 109.268 67.291C109.274 67.0527 109.281 66.8155 109.287 66.5782ZM114.594 61.2642C114.871 62.0055 115.344 63.7717 114.887 64.5006C114.278 65.4733 113.823 64.3832 113.645 63.6847C113.364 62.5849 113.385 61.442 112.979 60.378C113.598 59.0306 114.245 60.3259 114.594 61.2642ZM27.8322 60.2296C27.8322 61.0074 26.672 61.2457 26.045 61.5677C25.5832 61.8047 25.0419 62.497 24.7466 61.9449C24.2506 61.0169 27.2222 60.2296 27.8322 60.2296ZM52.0403 12.9339C52.57 14.5431 52.9557 16.389 52.7323 18.0962C52.6173 18.9735 52.2993 19.8321 52.0118 20.6635C51.8345 21.1768 51.087 22.4047 51.2873 22.9619C52.1125 22.7866 53.4687 23.0791 54.1368 22.6092C54.8963 22.075 54.8273 20.9592 56.0247 20.8846C57.8622 20.7701 59.3424 22.4386 59.4707 24.3077C59.537 25.2751 58.8407 26.2978 58.1331 26.8692C57.7517 27.1773 57.3896 27.2749 56.9705 27.468C56.6921 27.5962 56.6104 27.5906 56.592 27.5841L56.5913 27.5836L56.5924 27.585C56.6042 27.6013 56.6245 27.6767 56.5029 27.9612C56.3518 28.3148 56.395 28.8752 56.3504 29.2531C56.2849 29.8071 56.0677 30.4989 56.139 31.0447C56.2158 31.6326 56.1908 31.695 56.8135 31.4855C57.5292 31.2447 58.4473 30.2323 58.9848 29.6872C59.512 29.1525 60.034 28.0059 60.7915 28.9235C61.3725 29.6272 61.3712 31.3933 61.2824 32.2659C61.0763 34.2935 58.8182 35.9461 57.2382 36.9092C56.1243 37.5881 56.284 38.0329 56.3541 39.3144C56.4109 40.354 56.5706 41.4018 56.7057 42.4331C56.869 43.6792 57.2602 43.6983 57.8582 42.7741C58.3157 42.0669 59.0647 40.9081 60.0479 41.3138C61.0236 41.7165 60.9398 43.0112 61.1582 43.8577C61.464 45.0423 61.3657 45.9338 60.3805 46.7996C59.9332 47.1928 58.4916 47.8327 58.369 48.4701C58.3094 48.78 59.0086 49.7495 59.1754 50.0807C59.5238 50.7729 59.8889 51.4558 60.3422 52.0834C60.4955 51.0292 61.3975 50.1356 61.9616 49.295C62.6429 48.28 63.4759 47.5657 64.453 46.8295C64.811 46.5602 65.7137 46.1982 65.2909 45.7304C64.9239 45.3241 64.5419 45.6243 64.1782 44.9729C63.5688 43.8813 63.4815 42.1232 63.4336 40.8933C63.391 39.7949 63.3518 38.2538 63.99 37.3012C64.7668 36.1415 65.545 36.0973 66.7094 36.5914C67.6181 36.9772 68.0947 38.4772 68.5807 39.3724C69.4027 40.8859 69.419 42.1716 69.419 43.8461C70.2989 43.3379 71.2639 43.1424 72.2126 42.8414C72.8675 42.6334 74.0225 42.4987 74.5231 41.9976C73.9858 41.6948 73.6991 41.0368 73.8107 40.4157C73.9937 39.398 74.5045 39.8409 75.2622 39.7063C75.6018 39.646 75.8475 39.3837 76.1892 39.3335C76.539 39.2824 76.915 39.4248 77.2627 39.4798C78.1198 39.6154 78.9547 39.822 79.8057 39.9669C79.3317 39.3203 78.8534 38.4402 78.0907 38.1964C77.1716 37.9025 76.0661 37.855 75.1059 37.6097C73.8677 37.2933 71.7332 35.2847 73.5464 34.0442C74.2316 33.5753 75.1322 34.1698 75.781 33.5412C76.3961 32.9453 76.2145 31.7066 76.3794 30.904C76.7598 29.0544 77.8399 27.383 79.5977 26.6693C80.2005 27.3273 78.4844 28.9505 78.2515 29.6201C78.1129 30.0191 78.0067 29.975 78.1498 30.3061C78.249 30.5364 78.7356 30.7967 78.9462 30.9728L79.1224 31.1201C79.5929 31.5121 80.072 31.8939 80.6252 32.1602C80.5613 31.334 80.5922 30.282 81.4937 29.9198C82.2682 29.6085 83.2609 30.4261 83.5178 31.1558C83.7801 30.7675 84.2699 30.0173 84.27 29.5238C84.5184 29.1567 84.4153 28.9685 83.9603 28.9593C83.768 28.8777 83.5721 28.8069 83.3726 28.7469C82.5259 28.4068 81.8824 28.0262 81.6096 27.0687C81.4058 26.3536 81.3607 25.6033 81.1214 24.8967C81.2456 24.5294 81.1182 24.2995 80.7393 24.2068C80.6211 24.1199 80.503 24.033 80.3848 23.946C79.9935 23.6517 79.5903 23.3427 79.2262 23.0137C78.9396 22.7544 78.6723 22.217 78.3833 22.0178C78.3185 21.8793 78.2305 21.7576 78.1195 21.6529C77.8633 21.814 77.6064 21.9736 77.3484 22.1316C76.4551 22.69 75.6031 23.1857 74.5196 23.0987C73.6737 23.0307 72.4203 22.7347 71.6315 22.4127C70.7699 22.061 70.1773 21.0605 69.6458 20.3311C68.1933 21.4392 66.9877 20.845 66.4504 19.1257C66.2107 18.3586 66.0761 17.5456 66.008 16.7446C65.9525 16.0899 66.1432 15.5102 65.6528 15.1536C65.0406 14.7081 63.6961 14.6827 62.9734 14.564C62.1806 14.4338 61.2458 14.2011 60.439 14.3248C60.7928 15.6845 61.32 17.2513 60.3186 18.3511C59.3293 19.4378 58.8314 19.9929 57.5417 18.8151C56.5552 17.9141 55.7422 16.6835 55.0216 15.5538C54.6438 14.9614 54.4757 14.189 54.0937 13.6277C53.6539 12.9815 52.7799 13.0499 52.0403 12.9339ZM50.7937 13.2097C50.4665 13.2031 49.6907 13.352 49.3663 13.4183C48.4843 13.5987 47.6078 13.7454 46.6838 13.8962C44.6121 14.2341 42.5507 14.6718 40.4887 15.0502C38.5968 15.3973 36.4977 15.8714 34.6992 16.6079C32.7335 17.4127 30.8254 18.1954 28.9538 19.2162C27.077 20.2397 25.4654 21.5736 23.6713 22.703C20.3081 24.8198 16.9043 26.9969 13.6056 29.2446C11.5078 30.674 9.26949 31.9116 7.23498 33.4214C6.18675 34.1993 5.16635 35.0121 4.1678 35.8552C3.43292 36.4755 2.09917 37.3302 1.90374 38.3664C2.88861 38.3664 4.2211 36.6061 5.02406 36.0551C5.60878 35.6539 6.26332 35.3297 6.871 34.9644C7.21973 34.7547 8.33415 33.6626 8.71338 33.657C9.26037 33.6488 9.3404 34.4482 9.20408 34.8095C9.02736 35.2778 8.50647 35.6623 8.16041 35.9977C7.03231 37.0914 6.09666 38.5306 5.34653 39.9209C6.72635 39.4019 7.87064 37.6983 8.85174 36.6067C9.37027 36.0297 12.0199 33.5417 11.8315 35.8987C11.7618 36.7707 11.1466 37.4373 10.7177 38.1585C10.2539 38.9386 9.77623 39.7299 9.36823 40.5413C8.53949 42.189 7.91325 43.8839 7.41846 45.6698C8.2766 45.3241 8.50097 44.3571 8.90142 43.6004C9.30911 42.8299 9.78598 42.0854 10.2438 41.3457C11.2153 39.7759 12.0593 38.1249 13.0909 36.5929C13.4983 35.9874 15.3185 32.7887 16.0499 33.2397C16.5425 33.5433 16.6882 34.9721 16.836 35.4737C17.07 36.2671 17.4303 37.0984 18.2097 37.4579C18.2454 35.8372 18.191 34.2187 18.2163 32.6023C18.2364 31.3301 18.9094 30.967 19.7584 30.079C21.727 28.0199 24.2442 26.6916 26.5808 25.1386C27.6207 24.4474 28.5834 23.548 29.7319 22.9725C31.0235 22.3254 32.2783 21.5788 33.5396 20.8539C36.2267 19.3097 39.2465 18.7391 42.3045 19.0476L42.3095 19.0482C42.0666 19.0236 41.8238 18.999 41.5809 18.9744C41.8222 18.9989 42.0634 19.0232 42.3045 19.0476C42.3061 19.0477 42.3078 19.0481 42.3095 19.0482C45.2094 18.6326 48.461 19.2072 51.1304 20.3595C51.7152 18.2978 51.9331 16.1281 51.4713 14.012C51.3359 13.3913 51.359 13.2216 50.7937 13.2097ZM77.0803 44.0967C76.9572 44.1035 76.8343 44.1101 76.7096 44.1168C76.8321 44.1101 76.9561 44.1035 77.0803 44.0967ZM135.197 9.86284C134.354 10.6437 133.251 11.2915 132.319 11.9424C131.464 12.5401 130.669 13.2203 129.824 13.8177C127.63 15.3698 125.625 17.2053 123.499 18.8713C119.505 22.0003 115.344 24.8239 110.775 27.0054C108.62 28.0339 106.404 28.9293 104.191 29.8103C102.034 30.6689 100.001 31.8439 97.6168 31.8526C96.3945 31.8569 95.1045 31.8907 93.8902 31.7022C92.581 31.4988 91.2155 30.697 90.0221 30.1331C89.4612 29.8679 88.8885 29.6151 88.3489 29.3067C87.8529 29.0232 87.1837 28.2978 86.6594 28.204C85.4748 27.9923 85.3536 30.4803 85.0473 31.3491C84.9433 31.6445 84.5908 32.1594 84.5868 32.4495C84.5791 32.9945 84.4977 32.7161 84.9734 33.0686C85.4898 33.4512 86.2047 33.7623 86.7781 34.0635C87.8628 34.6331 89.0201 35.1411 90.1377 35.6145C91.3348 36.1217 92.4919 36.4563 93.7876 36.5999C94.3469 36.6619 94.8748 36.6785 95.404 36.6826L95.3802 36.6931C95.6159 36.5874 95.8519 36.5091 96.092 36.6807L95.914 36.6838C96.3015 36.6834 96.6951 36.6819 97.1074 36.6921C96.9015 36.6869 96.6958 36.682 96.49 36.6768C96.6983 36.5757 96.9049 36.5544 97.1076 36.6921C100.136 36.351 102.794 34.5704 105.638 33.6213C108.536 32.6539 111.546 31.2636 114.299 29.805C116.912 28.4203 119.531 27.0083 122.217 25.7392C123.757 25.011 125.395 23.503 127.157 24.0729C127.97 24.3357 128.695 24.8486 129.538 25.0268C130.507 25.2317 131.447 25.2667 132.406 25.561C132.346 25.1051 131.082 24.4207 130.789 23.9476C130.594 23.632 130.566 23.2734 130.404 22.9619C130.256 22.6771 130.027 22.653 129.969 22.3172C129.747 21.0242 131.827 19.669 132.614 18.948C135.122 16.6481 138.07 14.8117 140.57 12.4485C139.064 12.4485 137.246 14.4161 136.119 15.3145C135.361 15.9188 134.61 16.5241 133.811 17.0712C133.592 17.2211 132.577 18.0163 132.298 17.9272C131.517 17.6776 132.261 16.2823 132.545 15.97C133.099 15.3584 133.845 14.8668 134.482 14.3502C135.821 13.2625 137.045 12.1026 138.181 10.7675C137.06 10.8362 135.516 12.7312 134.723 13.4834C133.857 14.3055 132.711 15.4207 131.585 15.8519C131.003 16.0747 130.715 16.0137 130.671 15.2923C130.622 14.4698 131.248 14.0366 131.789 13.5493C132.868 12.5777 134.598 11.2196 135.197 9.86284ZM71.2465 31.0323C71.3964 32.3874 70.4192 34.0643 68.9539 34.1203C67.3838 34.18 67.2928 32.2958 67.3489 31.1518C67.3789 30.5375 67.3055 30.1754 67.7198 29.7508C67.8916 29.5749 68.3084 29.4995 68.5125 29.3298C68.7752 29.1113 68.9521 28.7931 69.2103 28.5655C70.5404 27.3928 71.405 29.9454 71.2465 31.0323ZM65.3293 21.6714C65.8362 21.9939 66.3894 22.8209 66.632 23.3546C67.0626 24.3016 67.4013 25.2074 67.6162 26.2257C67.3797 27.3201 66.3471 30.192 64.7014 29.5113C62.9933 28.8049 62.9502 26.5865 62.9426 25.0872C62.9373 23.9953 63.5261 20.5244 65.3293 21.6714ZM76.5232 26.7106C76.5483 27.7065 75.2905 28.7924 74.5185 29.2136C73.2618 29.8993 73.008 28.1807 73.0918 27.2511C73.1854 26.2121 73.5935 25.6371 74.5289 25.1952C75.9178 24.5389 76.2334 25.5055 76.5232 26.7106ZM56.5898 27.5821C56.5872 27.5799 56.5861 27.5814 56.59 27.5832L56.5913 27.5836L56.5898 27.5821ZM73.7516 10.8195C73.2854 10.9706 72.5832 11.8864 72.2269 12.2524C72.0065 12.4787 71.6285 13.1727 71.3142 13.2128C70.8468 13.2724 70.8896 13.0467 70.5718 12.6575C69.3748 11.1908 68.1089 11.1961 67.4215 12.9761C67.8221 13.1792 68.2461 13.2163 68.6845 13.2007C68.8332 13.1956 69.405 13.0208 69.5151 13.0952C70.1376 13.517 69.2258 13.8816 69.1006 14.0977C69.0057 14.2617 68.9593 14.4076 68.9222 14.5383C68.9278 14.6552 68.9332 14.7724 68.9383 14.8901C68.9304 14.7245 68.9229 14.5577 68.9153 14.3911L68.9219 14.5392C68.8316 14.8573 68.7952 15.0855 68.2423 15.2661C67.7005 15.4432 67.2457 15.2883 66.7069 15.115C66.7753 16.2 66.7724 18.1335 67.5153 19.0244L67.5565 19.0719C67.7661 19.17 67.9756 19.2679 68.1852 19.366C68.1566 19.3683 68.1283 19.3698 68.1005 19.3702C68.4608 19.3773 68.8898 19.2125 69.1456 19.1569C69.0348 18.618 68.4326 16.7901 68.7047 16.3995C69.2198 15.6609 69.4454 16.7616 69.5737 17.2595C69.8756 18.4315 70.5334 19.9709 71.5687 20.7073C71.5584 20.6909 71.5489 20.6729 71.5401 20.6535C71.7868 20.6982 72.0511 20.7093 72.1739 20.9952C72.1001 20.9638 72.019 20.9464 71.939 20.9269L71.9394 20.927C72.9227 21.3975 74.7638 22.1799 75.7485 21.654C77.1107 20.9265 78.2094 19.7216 79.3592 18.7117C78.5668 18.3113 78.4586 17.6903 79.0743 17.0397C80.3802 18.4713 81.1791 15.3994 81.5989 14.4622C80.7953 14.3897 80.0747 14.8842 79.2528 14.7158C78.5833 14.5787 77.7758 14.3376 77.2019 13.9525C76.4353 13.4377 75.7633 12.6947 75.1047 12.0511C74.7103 11.6658 74.175 10.682 73.7516 10.8195ZM49.6319 21.0724C49.6692 21.2289 49.7056 21.3816 49.7418 21.5347C49.9611 21.1108 49.9611 21.1108 49.6319 21.0724ZM74.9113 20.8163C74.5856 20.7797 73.2947 20.5436 74.1256 20.163C74.5498 19.9686 74.9514 20.4177 74.9113 20.8163ZM78.7925 16.0579C78.9732 16.4926 78.2528 17.2713 78.0506 17.6449C77.7338 18.2304 77.1816 20.6785 76.2878 20.4306C75.3049 20.428 75.4677 19.4705 76.0079 19.0044C76.1963 18.8418 76.4025 18.8341 76.5893 18.6268C76.7516 18.4467 76.8522 18.0857 76.9602 17.8652C77.225 17.3254 77.4641 16.6997 77.8831 16.2645C78.2199 15.9149 78.5749 15.5349 78.7925 16.0579ZM74.0418 15.474C74.5188 15.5309 74.2076 15.7639 74.4524 15.9715C74.6162 16.1104 74.6416 16.179 74.6278 16.2105L74.6259 16.214L74.638 16.2133C74.703 16.2095 74.8219 16.2119 75.0288 16.2317C75.4827 16.2751 76.8789 15.8588 75.9917 16.777C75.7986 16.9769 74.637 17.5354 74.3784 17.4078C73.8015 17.1237 74.0463 15.9667 74.0418 15.474ZM74.6259 16.214C74.51 16.2234 74.6012 16.2539 74.6255 16.2149L74.6259 16.214ZM36.5406 16.0833C36.4167 16.0868 36.2927 16.0904 36.1672 16.0937C36.2906 16.09 36.4156 16.0867 36.5406 16.0833ZM55.7741 11.7316C55.9711 11.7581 56.168 11.7845 56.3647 11.8111C56.1677 11.7845 55.9708 11.7581 55.7741 11.7316Z" fill="black"/>
</g>
<defs>
<clipPath id="clip0_287_37322">
<rect width="161" height="123.5" fill="white"/>
</clipPath>
</defs>
</svg>
