<svg width="32" height="32" viewBox="0 0 32 32" fill="none" xmlns="http://www.w3.org/2000/svg">
<g clip-path="url(#clip0_285_13235)">
<path d="M28.925 5.54254C28.925 5.54254 28.925 5.55504 28.925 5.56129L21.65 29.5538C21.5399 29.9435 21.3132 30.2902 21.0004 30.5473C20.6876 30.8045 20.3036 30.9599 19.9 30.9925C19.8425 30.9975 19.785 31 19.7275 31C19.3492 31.0012 18.9785 30.8942 18.6592 30.6915C18.3398 30.4888 18.085 30.199 17.925 29.8563L13.4612 20.4325C13.4172 20.3393 13.403 20.2347 13.4207 20.1331C13.4384 20.0315 13.487 19.9379 13.56 19.865L20.7175 12.7063C20.8971 12.5172 20.9958 12.2655 20.9924 12.0047C20.9891 11.744 20.884 11.4948 20.6996 11.3104C20.5152 11.126 20.2661 11.0209 20.0053 11.0176C19.7446 11.0143 19.4928 11.1129 19.3037 11.2925L12.135 18.45C12.0621 18.523 11.9685 18.5717 11.8669 18.5893C11.7653 18.607 11.6607 18.5929 11.5675 18.5488L2.19249 14.1075C1.8243 13.9389 1.51444 13.6647 1.30216 13.3198C1.08987 12.9749 0.984714 12.5747 0.999992 12.17C1.02035 11.7541 1.17094 11.355 1.43047 11.0293C1.69 10.7036 2.04533 10.4678 2.44624 10.355L26.4387 3.08004H26.4575C26.7991 2.98407 27.1601 2.9807 27.5034 3.07029C27.8468 3.15988 28.1601 3.3392 28.4112 3.58985C28.6624 3.84049 28.8423 4.15345 28.9326 4.4966C29.0229 4.83975 29.0203 5.20074 28.925 5.54254Z" fill="black"/>
</g>
<defs>
<clipPath id="clip0_285_13235">
<rect width="32" height="32" fill="white"/>
</clipPath>
</defs>
</svg>
