<svg width="373" height="423" viewBox="0 0 373 423" fill="none" xmlns="http://www.w3.org/2000/svg">
<path opacity="0.3" d="M247.541 104.854L247.562 104.866L247.583 104.878L310 139.921V211.112V283.079L247.583 318.122L247.562 318.134L247.541 318.146L186 354.674L124.459 318.146L124.438 318.134L124.417 318.122L62 283.079V211.5V139.921L124.417 104.878L124.438 104.866L124.459 104.854L186 68.3258L247.541 104.854Z" stroke="url(#paint0_linear)" stroke-width="4"/>
<g opacity="0.85" filter="url(#filter0_f)">
<path d="M265.474 74.4332L265.505 74.4517L265.536 74.4694L345.76 119.506V212V303.494L265.536 348.531L265.505 348.548L265.474 348.567L186.38 395.511L107.286 348.567L107.255 348.548L107.223 348.531L27 303.494V211.5V119.506L107.223 74.4694L107.255 74.4517L107.286 74.4332L186.38 27.4886L265.474 74.4332Z" stroke="url(#paint1_linear)" stroke-width="6"/>
</g>
<path d="M265.984 73.5733L266.005 73.5856L266.026 73.5974L346.76 118.921V212V304.079L266.026 349.403L266.005 349.414L265.984 349.427L186.38 396.674L106.776 349.427L106.755 349.414L106.734 349.403L26 304.079V211.5V118.921L106.734 73.5974L106.755 73.5856L106.776 73.5733L186.38 26.3257L265.984 73.5733Z" stroke="url(#paint2_linear)" stroke-width="4"/>
<g opacity="0.85" filter="url(#filter1_f)">
<mask id="path-4-inside-1" fill="white">
<path fill-rule="evenodd" clip-rule="evenodd" d="M184.514 106.685L185.52 107.277L229.183 132.996L230.974 134.051L229.851 135.8L221.278 149.158L220.228 150.794L218.563 149.791L184.44 129.24L164.972 139.514V205.692H216.604H218.604V207.692V225.436V227.436H216.604H164.967L164.772 313.366L164.764 317.035L161.685 315.04L147.529 305.869L146.617 305.277V304.19V129.735V128.581L147.616 128.003L183.504 107.268L184.514 106.685ZM150.617 130.889V303.103L160.781 309.688L160.972 225.432L160.976 223.436H162.972H214.604V209.692H162.972H160.972V207.692V138.308V137.103L162.038 136.54L183.571 125.175L184.569 124.648L185.536 125.231L218.962 145.362L225.363 135.388L184.495 111.315L150.617 130.889ZM234.067 136.507L235.817 137.615L283.07 167.522L284 168.111V169.212V186.757V190.515L280.883 188.416L263.863 176.957V283.056V284.219L262.853 284.794L247.102 293.766L244.112 295.469V292.028V165.14L226.116 153.964L224.462 152.936L225.445 151.255L233.021 138.296L234.067 136.507ZM235.429 142.103L229.881 151.593L247.167 162.329L248.112 162.916V164.028V288.587L259.863 281.894V173.199V169.442L262.98 171.54L280 182.999V170.313L235.429 142.103ZM137.857 139.505V135.98L134.831 137.788L119.479 146.959L118.511 147.537L118.505 148.665L118.183 205.828L105.078 161.271L104.378 158.892L102.201 160.079L89.0423 167.257L88 167.825V169.012V270.894V272.039L88.9872 272.619L101.548 279.996L104.541 281.754L104.561 278.282L104.874 222.299L122.956 291.338L123.159 292.112L123.839 292.533L134.805 299.312L137.857 301.198V297.611V139.505ZM122.106 219.466L122.498 149.815L133.857 143.029V294.023L126.623 289.551L104.894 206.587L100.96 207.082L100.58 274.788L92 269.749V170.2L101.94 164.778L118.187 220.019L122.106 219.466Z"/>
</mask>
<path d="M185.52 107.277L182.474 112.447V112.447L185.52 107.277ZM184.514 106.685L187.56 101.515L184.543 99.7382L181.513 101.489L184.514 106.685ZM229.183 132.996L226.138 138.166L226.138 138.166L229.183 132.996ZM230.974 134.051L236.023 137.292L239.39 132.045L234.019 128.881L230.974 134.051ZM229.851 135.8L224.802 132.559V132.559L229.851 135.8ZM221.278 149.158L226.328 152.399L221.278 149.158ZM220.228 150.794L217.133 155.934L222.128 158.942L225.278 154.035L220.228 150.794ZM218.563 149.791L215.467 154.931V154.931L218.563 149.791ZM184.44 129.24L187.535 124.1L184.634 122.353L181.639 123.933L184.44 129.24ZM164.972 139.514L162.171 134.208L158.972 135.897V139.514H164.972ZM164.972 205.692H158.972V211.692H164.972V205.692ZM218.604 205.692H224.604V199.692H218.604V205.692ZM218.604 227.436V233.436H224.604V227.436H218.604ZM164.967 227.436V221.436H158.981L158.967 227.423L164.967 227.436ZM164.772 313.366L170.772 313.38L164.772 313.366ZM164.764 317.035L161.502 322.07L170.739 328.055L170.764 317.048L164.764 317.035ZM161.685 315.04L164.947 310.004L161.685 315.04ZM147.529 305.869L150.792 300.833L150.792 300.833L147.529 305.869ZM146.617 305.277H140.617V308.539L143.354 310.313L146.617 305.277ZM146.617 128.581L143.615 123.386L140.617 125.118V128.581H146.617ZM147.616 128.003L144.614 122.808L144.614 122.808L147.616 128.003ZM183.504 107.268L180.502 102.073V102.073L183.504 107.268ZM150.617 303.103H144.617V306.365L147.354 308.138L150.617 303.103ZM150.617 130.889L147.615 125.694L144.617 127.427V130.889H150.617ZM160.781 309.688L157.518 314.723L166.756 320.708L166.781 309.702L160.781 309.688ZM160.972 225.432L166.972 225.445L160.972 225.432ZM160.976 223.436V217.436H154.99L154.976 223.423L160.976 223.436ZM214.604 223.436V229.436H220.604V223.436H214.604ZM214.604 209.692H220.604V203.692H214.604V209.692ZM160.972 209.692H154.972V215.692H160.972V209.692ZM160.972 137.103L158.171 131.796L154.972 133.485V137.103H160.972ZM162.038 136.54L159.238 131.233L162.038 136.54ZM183.571 125.175L180.77 119.869L180.77 119.869L183.571 125.175ZM184.569 124.648L187.665 119.508L184.764 117.761L181.769 119.342L184.569 124.648ZM185.536 125.231L188.632 120.091L188.632 120.091L185.536 125.231ZM218.962 145.362L215.866 150.502L220.861 153.51L224.011 148.603L218.962 145.362ZM225.363 135.388L230.412 138.629L233.779 133.382L228.408 130.218L225.363 135.388ZM184.495 111.315L187.54 106.146L184.524 104.369L181.493 106.12L184.495 111.315ZM235.817 137.615L232.609 142.685V142.685L235.817 137.615ZM234.067 136.507L237.276 131.438L232.024 128.114L228.887 133.479L234.067 136.507ZM283.07 167.522L279.861 172.592L283.07 167.522ZM284 168.111H290V164.807L287.209 163.041L284 168.111ZM284 190.515L280.649 195.492L290 201.787V190.515H284ZM280.883 188.416L284.234 183.439L280.883 188.416ZM263.863 176.957L267.214 171.98L257.863 165.684V176.957H263.863ZM263.863 284.219L266.833 289.432L269.863 287.706V284.219H263.863ZM262.853 284.794L259.883 279.58H259.883L262.853 284.794ZM247.102 293.766L250.072 298.979L250.072 298.979L247.102 293.766ZM244.112 295.469H238.112V305.792L247.082 300.683L244.112 295.469ZM244.112 165.14H250.112V161.804L247.278 160.043L244.112 165.14ZM226.116 153.964L222.951 159.061L222.951 159.061L226.116 153.964ZM224.462 152.936L219.282 149.908L216.334 154.951L221.296 158.033L224.462 152.936ZM225.445 151.255L230.625 154.284V154.284L225.445 151.255ZM233.021 138.296L227.841 135.268V135.268L233.021 138.296ZM229.881 151.593L224.701 148.565L221.753 153.608L226.715 156.69L229.881 151.593ZM235.429 142.103L238.637 137.033L233.386 133.709L230.249 139.075L235.429 142.103ZM247.167 162.329L250.333 157.232L250.333 157.232L247.167 162.329ZM248.112 162.916H254.112V159.579L251.278 157.819L248.112 162.916ZM248.112 288.587H242.112V298.91L251.082 293.801L248.112 288.587ZM259.863 281.894L262.833 287.107L265.863 285.381V281.894H259.863ZM259.863 169.442L263.214 164.465L253.863 158.169V169.442H259.863ZM262.98 171.54L266.331 166.563L262.98 171.54ZM280 182.999L276.649 187.977L286 194.272V182.999H280ZM280 170.313H286V167.01L283.209 165.243L280 170.313ZM137.857 135.98H143.857V125.407L134.78 130.829L137.857 135.98ZM134.831 137.788L131.754 132.637L134.831 137.788ZM119.479 146.959L122.556 152.11L122.556 152.11L119.479 146.959ZM118.511 147.537L115.434 142.386L112.53 144.121L112.511 147.503L118.511 147.537ZM118.505 148.665L124.505 148.699L118.505 148.665ZM118.183 205.828L112.426 207.521L124.183 205.862L118.183 205.828ZM105.078 161.271L110.834 159.578L105.078 161.271ZM104.378 158.892L110.134 157.199L108.035 150.062L101.505 153.624L104.378 158.892ZM102.201 160.079L99.3281 154.812H99.3281L102.201 160.079ZM89.0423 167.257L86.1692 161.989L86.1692 161.989L89.0423 167.257ZM88 167.825L85.1269 162.558L82 164.263V167.825H88ZM88 272.039H82V275.473L84.9615 277.213L88 272.039ZM88.9872 272.619L92.0257 267.445H92.0257L88.9872 272.619ZM101.548 279.996L104.586 274.822H104.586L101.548 279.996ZM104.541 281.754L101.503 286.927L110.483 292.201L110.541 281.787L104.541 281.754ZM104.561 278.282L98.5608 278.249L104.561 278.282ZM104.874 222.299L110.679 220.778L98.8744 222.265L104.874 222.299ZM122.956 291.338L117.152 292.859L117.152 292.859L122.956 291.338ZM123.159 292.112L117.355 293.633L117.963 295.954L120.004 297.216L123.159 292.112ZM123.839 292.533L120.684 297.636L120.684 297.637L123.839 292.533ZM134.805 299.312L137.96 294.208H137.96L134.805 299.312ZM137.857 301.198L134.702 306.302L143.857 311.961V301.198H137.857ZM122.498 149.815L119.421 144.664L116.517 146.399L116.498 149.781L122.498 149.815ZM122.106 219.466L122.944 225.407L128.077 224.683L128.106 219.5L122.106 219.466ZM133.857 143.029H139.857V132.456L130.78 137.878L133.857 143.029ZM133.857 294.023L130.702 299.126L139.857 304.786V294.023H133.857ZM126.623 289.551L120.819 291.071L121.427 293.393L123.468 294.655L126.623 289.551ZM104.894 206.587L110.698 205.067L109.365 199.976L104.145 200.634L104.894 206.587ZM100.96 207.082L100.21 201.129L94.9891 201.787L94.9596 207.049L100.96 207.082ZM100.58 274.788L97.5417 279.962L106.522 285.236L106.58 274.822L100.58 274.788ZM92 269.749H86V273.184L88.9615 274.923L92 269.749ZM92 170.2L89.1269 164.932L86 166.638V170.2H92ZM101.94 164.778L107.696 163.085L105.597 155.949L99.0667 159.511L101.94 164.778ZM118.187 220.019L112.431 221.712L113.893 226.685L119.026 225.96L118.187 220.019ZM188.565 102.107L187.56 101.515L181.469 111.854L182.474 112.447L188.565 102.107ZM232.228 127.827L188.565 102.107L182.474 112.447L226.138 138.166L232.228 127.827ZM234.019 128.881L232.228 127.827L226.138 138.166L227.928 139.221L234.019 128.881ZM234.901 139.041L236.023 137.292L225.924 130.81L224.802 132.559L234.901 139.041ZM226.328 152.399L234.901 139.041L224.802 132.559L216.229 145.917L226.328 152.399ZM225.278 154.035L226.328 152.399L216.229 145.917L215.179 147.553L225.278 154.035ZM215.467 154.931L217.133 155.934L223.324 145.654L221.659 144.651L215.467 154.931ZM181.344 134.379L215.467 154.931L221.659 144.651L187.535 124.1L181.344 134.379ZM167.772 144.821L187.24 134.546L181.639 123.933L162.171 134.208L167.772 144.821ZM170.972 205.692V139.514H158.972V205.692H170.972ZM216.604 199.692H164.972V211.692H216.604V199.692ZM218.604 199.692H216.604V211.692H218.604V199.692ZM224.604 207.692V205.692H212.604V207.692H224.604ZM224.604 225.436V207.692H212.604V225.436H224.604ZM224.604 227.436V225.436H212.604V227.436H224.604ZM216.604 233.436H218.604V221.436H216.604V233.436ZM164.967 233.436H216.604V221.436H164.967V233.436ZM170.772 313.38L170.967 227.45L158.967 227.423L158.772 313.352L170.772 313.38ZM170.764 317.048L170.772 313.38L158.772 313.352L158.764 317.021L170.764 317.048ZM158.423 320.075L161.502 322.07L168.027 311.999L164.947 310.004L158.423 320.075ZM144.267 310.904L158.423 320.075L164.947 310.004L150.792 300.833L144.267 310.904ZM143.354 310.313L144.267 310.904L150.792 300.833L149.879 300.242L143.354 310.313ZM140.617 304.19V305.277H152.617V304.19H140.617ZM140.617 129.735V304.19H152.617V129.735H140.617ZM140.617 128.581V129.735H152.617V128.581H140.617ZM144.614 122.808L143.615 123.386L149.618 133.776L150.618 133.199L144.614 122.808ZM180.502 102.073L144.614 122.808L150.618 133.199L186.506 112.463L180.502 102.073ZM181.513 101.489L180.502 102.073L186.506 112.463L187.516 111.88L181.513 101.489ZM156.617 303.103V130.889H144.617V303.103H156.617ZM164.043 304.652L153.879 298.067L147.354 308.138L157.518 314.723L164.043 304.652ZM154.972 225.418L154.781 309.674L166.781 309.702L166.972 225.445L154.972 225.418ZM154.976 223.423L154.972 225.418L166.972 225.445L166.976 223.45L154.976 223.423ZM162.972 217.436H160.976V229.436H162.972V217.436ZM214.604 217.436H162.972V229.436H214.604V217.436ZM208.604 209.692V223.436H220.604V209.692H208.604ZM162.972 215.692H214.604V203.692H162.972V215.692ZM160.972 215.692H162.972V203.692H160.972V215.692ZM154.972 207.692V209.692H166.972V207.692H154.972ZM154.972 138.308V207.692H166.972V138.308H154.972ZM154.972 137.103V138.308H166.972V137.103H154.972ZM159.238 131.233L158.171 131.796L163.772 142.409L164.839 141.846L159.238 131.233ZM180.77 119.869L159.238 131.233L164.839 141.846L186.372 130.481L180.77 119.869ZM181.769 119.342L180.77 119.869L186.372 130.481L187.37 129.955L181.769 119.342ZM188.632 120.091L187.665 119.508L181.474 129.788L182.441 130.37L188.632 120.091ZM222.057 140.222L188.632 120.091L182.441 130.37L215.866 150.502L222.057 140.222ZM220.313 132.147L213.912 142.121L224.011 148.603L230.412 138.629L220.313 132.147ZM181.45 116.485L222.317 140.558L228.408 130.218L187.54 106.146L181.45 116.485ZM153.618 136.085L187.496 116.511L181.493 106.12L147.615 125.694L153.618 136.085ZM239.026 132.545L237.276 131.438L230.858 141.577L232.609 142.685L239.026 132.545ZM286.278 162.452L239.026 132.545L232.609 142.685L279.861 172.592L286.278 162.452ZM287.209 163.041L286.278 162.452L279.861 172.592L280.791 173.181L287.209 163.041ZM290 169.212V168.111H278V169.212H290ZM290 186.757V169.212H278V186.757H290ZM290 190.515V186.757H278V190.515H290ZM277.532 193.393L280.649 195.492L287.351 185.538L284.234 183.439L277.532 193.393ZM260.512 181.934L277.532 193.393L284.234 183.439L267.214 171.98L260.512 181.934ZM269.863 283.056V176.957H257.863V283.056H269.863ZM269.863 284.219V283.056H257.863V284.219H269.863ZM265.823 290.007L266.833 289.432L260.893 279.005L259.883 279.58L265.823 290.007ZM250.072 298.979L265.823 290.007L259.883 279.58L244.132 288.552L250.072 298.979ZM247.082 300.683L250.072 298.979L244.132 288.552L241.142 290.255L247.082 300.683ZM238.112 292.028V295.469H250.112V292.028H238.112ZM238.112 165.14V292.028H250.112V165.14H238.112ZM222.951 159.061L240.947 170.237L247.278 160.043L229.282 148.867L222.951 159.061ZM221.296 158.033L222.951 159.061L229.282 148.867L227.628 147.839L221.296 158.033ZM220.265 148.227L219.282 149.908L229.642 155.965L230.625 154.284L220.265 148.227ZM227.841 135.268L220.265 148.227L230.625 154.284L238.201 141.324L227.841 135.268ZM228.887 133.479L227.841 135.268L238.201 141.324L239.247 139.536L228.887 133.479ZM235.061 154.621L240.608 145.131L230.249 139.075L224.701 148.565L235.061 154.621ZM250.333 157.232L233.046 146.496L226.715 156.69L244.002 167.426L250.333 157.232ZM251.278 157.819L250.333 157.232L244.002 167.426L244.947 168.013L251.278 157.819ZM254.112 164.028V162.916H242.112V164.028H254.112ZM254.112 288.587V164.028H242.112V288.587H254.112ZM256.893 276.68L245.142 283.374L251.082 293.801L262.833 287.107L256.893 276.68ZM253.863 173.199V281.894H265.863V173.199H253.863ZM253.863 169.442V173.199H265.863V169.442H253.863ZM266.331 166.563L263.214 164.465L256.512 174.419L259.629 176.517L266.331 166.563ZM283.351 178.022L266.331 166.563L259.629 176.517L276.649 187.977L283.351 178.022ZM274 170.313V182.999H286V170.313H274ZM232.22 147.173L276.791 175.383L283.209 165.243L238.637 137.033L232.22 147.173ZM131.857 135.98V139.505H143.857V135.98H131.857ZM137.908 142.939L140.934 141.131L134.78 130.829L131.754 132.637L137.908 142.939ZM122.556 152.11L137.908 142.939L131.754 132.637L116.402 141.808L122.556 152.11ZM121.588 152.688L122.556 152.11L116.402 141.808L115.434 142.386L121.588 152.688ZM124.505 148.699L124.511 147.571L112.511 147.503L112.505 148.631L124.505 148.699ZM124.183 205.862L124.505 148.699L112.505 148.631L112.183 205.794L124.183 205.862ZM99.3214 162.964L112.426 207.521L123.939 204.135L110.834 159.578L99.3214 162.964ZM98.6218 160.585L99.3214 162.964L110.834 159.578L110.134 157.199L98.6218 160.585ZM105.074 165.346L107.251 164.159L101.505 153.624L99.3281 154.812L105.074 165.346ZM91.9154 172.524L105.074 165.346L99.3281 154.812L86.1692 161.989L91.9154 172.524ZM90.8731 173.093L91.9154 172.524L86.1692 161.989L85.1269 162.558L90.8731 173.093ZM94 169.012V167.825H82V169.012H94ZM94 270.894V169.012H82V270.894H94ZM94 272.039V270.894H82V272.039H94ZM92.0257 267.445L91.0385 266.865L84.9615 277.213L85.9486 277.792L92.0257 267.445ZM104.586 274.822L92.0257 267.445L85.9486 277.792L98.5094 285.169L104.586 274.822ZM107.58 276.58L104.586 274.822L98.5094 285.169L101.503 286.927L107.58 276.58ZM98.5608 278.249L98.5414 281.72L110.541 281.787L110.561 278.316L98.5608 278.249ZM98.8744 222.265L98.5608 278.249L110.561 278.316L110.874 222.332L98.8744 222.265ZM128.76 289.818L110.679 220.778L99.0701 223.819L117.152 292.859L128.76 289.818ZM128.963 290.592L128.76 289.818L117.152 292.859L117.355 293.633L128.963 290.592ZM126.994 287.429L126.314 287.009L120.004 297.216L120.684 297.636L126.994 287.429ZM137.96 294.208L126.994 287.429L120.684 297.637L131.65 304.415L137.96 294.208ZM141.012 296.095L137.96 294.208L131.65 304.415L134.702 306.302L141.012 296.095ZM131.857 297.611V301.198H143.857V297.611H131.857ZM131.857 139.505V297.611H143.857V139.505H131.857ZM116.498 149.781L116.106 219.432L128.106 219.5L128.498 149.849L116.498 149.781ZM130.78 137.878L119.421 144.664L125.575 154.966L136.934 148.18L130.78 137.878ZM139.857 294.023V143.029H127.857V294.023H139.857ZM123.468 294.655L130.702 299.126L137.012 288.919L129.778 284.448L123.468 294.655ZM99.09 208.107L120.819 291.071L132.427 288.031L110.698 205.067L99.09 208.107ZM101.709 213.035L105.644 212.54L104.145 200.634L100.21 201.129L101.709 213.035ZM106.58 274.822L106.959 207.116L94.9596 207.049L94.5803 274.755L106.58 274.822ZM88.9615 274.923L97.5417 279.962L103.619 269.615L95.0385 264.576L88.9615 274.923ZM86 170.2V269.749H98V170.2H86ZM99.0667 159.511L89.1269 164.932L94.8731 175.467L104.813 170.045L99.0667 159.511ZM123.943 218.326L107.696 163.085L96.1836 166.471L112.431 221.712L123.943 218.326ZM121.267 213.525L117.349 214.078L119.026 225.96L122.944 225.407L121.267 213.525Z" fill="url(#paint3_linear)" mask="url(#path-4-inside-1)"/>
</g>
<path fill-rule="evenodd" clip-rule="evenodd" d="M184.514 106.685L185.52 107.277L229.183 132.996L230.974 134.051L229.851 135.8L221.278 149.158L220.228 150.794L218.563 149.791L184.44 129.24L164.972 139.514V205.692H216.604H218.604V207.692V225.436V227.436H216.604H164.967L164.772 313.366L164.764 317.035L161.685 315.04L147.529 305.869L146.617 305.277V304.19V129.735V128.581L147.616 128.003L183.504 107.268L184.514 106.685ZM150.617 130.889V303.103L160.781 309.688L160.972 225.432L160.976 223.436H162.972H214.604V209.692H162.972H160.972V207.692V138.308V137.103L162.038 136.54L183.571 125.175L184.569 124.648L185.536 125.231L218.962 145.362L225.363 135.388L184.495 111.315L150.617 130.889ZM234.067 136.507L235.817 137.615L283.07 167.522L284 168.111V169.212V186.757V190.515L280.883 188.416L263.863 176.957V283.056V284.219L262.853 284.794L247.102 293.766L244.112 295.469V292.028V165.14L226.116 153.964L224.462 152.936L225.445 151.255L233.021 138.296L234.067 136.507ZM235.429 142.103L229.881 151.593L247.167 162.329L248.112 162.916V164.028V288.587L259.863 281.894V173.199V169.442L262.98 171.54L280 182.999V170.313L235.429 142.103ZM137.857 139.505V135.98L134.831 137.788L119.479 146.959L118.511 147.537L118.505 148.665L118.183 205.828L105.078 161.271L104.378 158.892L102.201 160.079L89.0423 167.257L88 167.825V169.012V270.894V272.039L88.9872 272.619L101.548 279.996L104.541 281.754L104.561 278.282L104.874 222.299L122.956 291.338L123.159 292.112L123.839 292.533L134.805 299.312L137.857 301.198V297.611V139.505ZM122.106 219.466L122.498 149.815L133.857 143.029V294.023L126.623 289.551L104.894 206.587L100.96 207.082L100.58 274.788L92 269.749V170.2L101.94 164.778L118.187 220.019L122.106 219.466Z" fill="url(#paint4_linear)"/>
<defs>
<filter id="filter0_f" x="0" y="0" width="372.76" height="423" filterUnits="userSpaceOnUse" color-interpolation-filters="sRGB">
<feFlood flood-opacity="0" result="BackgroundImageFix"/>
<feBlend mode="normal" in="SourceGraphic" in2="BackgroundImageFix" result="shape"/>
<feGaussianBlur stdDeviation="12" result="effect1_foregroundBlur"/>
</filter>
<filter id="filter1_f" x="64" y="82.6846" width="244" height="258.35" filterUnits="userSpaceOnUse" color-interpolation-filters="sRGB">
<feFlood flood-opacity="0" result="BackgroundImageFix"/>
<feBlend mode="normal" in="SourceGraphic" in2="BackgroundImageFix" result="shape"/>
<feGaussianBlur stdDeviation="12" result="effect1_foregroundBlur"/>
</filter>
<linearGradient id="paint0_linear" x1="203.244" y1="-110.679" x2="-214.185" y2="169.131" gradientUnits="userSpaceOnUse">
<stop stop-color="#00FFA3"/>
<stop offset="1" stop-color="#DC1FFF"/>
</linearGradient>
<linearGradient id="paint1_linear" x1="208.602" y1="-203.679" x2="-329.333" y2="156.927" gradientUnits="userSpaceOnUse">
<stop stop-color="#00FFA3"/>
<stop offset="1" stop-color="#DC1FFF"/>
</linearGradient>
<linearGradient id="paint2_linear" x1="208.602" y1="-203.679" x2="-329.333" y2="156.927" gradientUnits="userSpaceOnUse">
<stop stop-color="#00FFA3"/>
<stop offset="1" stop-color="#DC1FFF"/>
</linearGradient>
<linearGradient id="paint3_linear" x1="199.412" y1="-21.0281" x2="-110.118" y2="202.22" gradientUnits="userSpaceOnUse">
<stop stop-color="#00FFA3"/>
<stop offset="1" stop-color="#DC1FFF"/>
</linearGradient>
<linearGradient id="paint4_linear" x1="199.412" y1="-21.0281" x2="-110.118" y2="202.22" gradientUnits="userSpaceOnUse">
<stop stop-color="#00FFA3"/>
<stop offset="1" stop-color="#DC1FFF"/>
</linearGradient>
</defs>
</svg>
