<?xml version="1.0" encoding="utf-8"?>
<!-- Generator: Adobe Illustrator 26.5.0, SVG Export Plug-In . SVG Version: 6.00 Build 0)  -->
<svg version="1.1" id="Layer_1" xmlns="http://www.w3.org/2000/svg" xmlns:xlink="http://www.w3.org/1999/xlink" x="0px" y="0px"
	 viewBox="0 0 177 177" style="enable-background:new 0 0 177 177;" xml:space="preserve">
<style type="text/css">
	.st0{clip-path:url(#SVGID_00000170254039309923305420000016987296534759017364_);}
	.st1{fill:#4BAF74;}
	.st2{fill:#32DA6D;}
	.st3{fill:#F1F1E8;}
	.st4{fill:#0D0D0D;}
</style>
<g>
	<defs>
		<rect id="SVGID_1_" y="31" width="177" height="115"/>
	</defs>
	<clipPath id="SVGID_00000018916430933710774580000003727767419964200609_">
		<use xlink:href="#SVGID_1_"  style="overflow:visible;"/>
	</clipPath>
	<g style="clip-path:url(#SVGID_00000018916430933710774580000003727767419964200609_);">
		<path class="st1" d="M159.5,110.4c0,25.3-30.9,35.6-69.3,35.6c-38.4,0-69.7-10.3-69.7-35.6c0-25.3,31.1-45.8,69.5-45.8
			C128.3,64.6,159.5,85.1,159.5,110.4z"/>
		<path class="st2" d="M152.4,55.2c0-13.3-10.9-24.2-24.3-24.2c-7.6,0-14.3,3.4-18.8,8.8c-6.1-1.3-12.6-2.1-19.3-2.1
			c-6.7,0-13.2,0.7-19.3,2.1C66.3,34.4,59.6,31,52.1,31c-13.4,0-24.3,10.8-24.3,24.2c0,4.4,1.2,8.5,3.2,12c-1.9,4.1-3,8.5-3,13.1
			c0,23.5,27.8,42.5,62.1,42.5c34.3,0,62.1-19,62.1-42.5c0-4.6-1-8.9-3-13.1C151.2,63.6,152.4,59.5,152.4,55.2z"/>
		<path class="st3" d="M50.1,68.6C58.3,68.6,65,62,65,53.8c0-8.2-6.6-14.8-14.8-14.8c-8.2,0-14.8,6.6-14.8,14.8
			C35.3,62,41.9,68.6,50.1,68.6z"/>
		<path class="st3" d="M129.3,68.6c8.2,0,14.8-6.6,14.8-14.8c0-8.2-6.6-14.8-14.8-14.8s-14.8,6.6-14.8,14.8
			C114.5,62,121.1,68.6,129.3,68.6z"/>
		<path class="st2" d="M42.2,144.2c3.2,0,5.7-2.8,5.4-5.9c-1.3-11.1-6.8-35.1-31.2-49.6c-32.4-19.2-6.7,47-6.7,47l-6.7,3.8
			c-2.2,1.3-1.3,4.7,1.3,4.7H42.2z"/>
		<path class="st2" d="M138.9,144.2c-2.9,0-5.1-2.8-4.8-5.9c1.1-11.1,6.2-35.1,28.1-49.6c29.3-19.2,6.1,47,6.1,47l6.1,3.8
			c2,1.3,1.2,4.7-1.1,4.7H138.9z"/>
		<path class="st4" d="M50.1,56.5c1.5,0,2.7-1.2,2.7-2.7c0-1.5-1.2-2.7-2.7-2.7c-1.5,0-2.7,1.2-2.7,2.7
			C47.4,55.3,48.6,56.5,50.1,56.5z"/>
		<path class="st4" d="M129.3,56.5c1.5,0,2.7-1.2,2.7-2.7c0-1.5-1.2-2.7-2.7-2.7s-2.7,1.2-2.7,2.7C126.6,55.3,127.8,56.5,129.3,56.5
			z"/>
	</g>
</g>
</svg>
