<svg width="32" height="32" viewBox="0 0 32 32" fill="none" xmlns="http://www.w3.org/2000/svg">
<g clip-path="url(#clip0_305_35153)">
<path d="M3.09384 14.4426C3.38914 11.9664 4.40194 9.63057 6.00759 7.72256C6.18525 7.50833 6.40567 7.33353 6.65475 7.20935C6.90383 7.08518 7.17608 7.01435 7.45409 7.00141C7.73211 6.98847 8.00977 7.03369 8.2693 7.13419C8.52884 7.23469 8.76454 7.38826 8.96134 7.58506L12.4201 11.1176C12.7532 11.4499 12.9573 11.8898 12.996 12.3588C13.0347 12.8277 12.9055 13.2951 12.6313 13.6776C12.4237 13.9721 12.2673 14.2996 12.1688 14.6463C12.1376 14.7486 12.0743 14.8382 11.9883 14.9018C11.9024 14.9655 11.7983 14.9999 11.6913 15.0001H3.59134C3.52076 15.0002 3.45095 14.9853 3.38651 14.9565C3.32207 14.9277 3.26446 14.8856 3.21746 14.833C3.17047 14.7803 3.13516 14.7183 3.11385 14.651C3.09254 14.5837 3.08572 14.5127 3.09384 14.4426ZM17.1738 3.00756C16.8976 2.98347 16.6194 3.01709 16.3568 3.10628C16.0942 3.19547 15.8531 3.33829 15.6487 3.52566C15.4443 3.71303 15.281 3.94086 15.1694 4.19468C15.0577 4.4485 15.0001 4.72277 15.0001 5.00006V10.0838C14.9966 10.5555 15.1615 11.013 15.4651 11.3741C15.7686 11.7352 16.191 11.9762 16.6563 12.0538C17.5325 12.1984 18.3357 12.6304 18.9393 13.2817C19.5428 13.9331 19.9125 14.7668 19.99 15.6514C20.0675 16.536 19.8484 17.4213 19.3673 18.1677C18.8861 18.9141 18.1703 19.4791 17.3326 19.7738C17.2351 19.8096 17.1509 19.8745 17.0915 19.9597C17.032 20.0448 17.0001 20.1462 17.0001 20.2501V28.4038C16.9996 28.4746 17.0142 28.5447 17.0428 28.6094C17.0715 28.6742 17.1135 28.7321 17.1662 28.7794C17.2189 28.8266 17.2811 28.8622 17.3485 28.8836C17.416 28.9051 17.4873 28.912 17.5576 28.9038C20.6774 28.5186 23.5532 27.0197 25.6556 24.6827C27.7581 22.3458 28.9457 19.3281 29.0001 16.1851C29.0938 9.39881 23.8988 3.61006 17.1738 3.00756ZM14.6563 19.7701C14.0974 19.5707 13.5898 19.2494 13.1703 18.8295C12.7509 18.4097 12.4302 17.9017 12.2313 17.3426C12.1973 17.2434 12.1333 17.1572 12.0482 17.0959C11.9632 17.0346 11.8612 17.0011 11.7563 17.0001H3.59009C3.51942 16.9996 3.44945 17.0142 3.3848 17.0427C3.32016 17.0713 3.26231 17.1132 3.21506 17.1658C3.16781 17.2184 3.13225 17.2803 3.1107 17.3477C3.08916 17.415 3.08214 17.4861 3.09009 17.5563C3.44023 20.4456 4.74888 23.1341 6.80685 25.1921C8.86482 27.25 11.5533 28.5587 14.4426 28.9088C14.5128 28.9168 14.5839 28.9097 14.6512 28.8882C14.7186 28.8667 14.7805 28.8311 14.8331 28.7838C14.8857 28.7366 14.9276 28.6787 14.9562 28.6141C14.9847 28.5495 14.9993 28.4795 14.9988 28.4088V20.2501C14.999 20.1443 14.9661 20.0411 14.9047 19.955C14.8433 19.869 14.7564 19.8043 14.6563 19.7701Z" fill="black"/>
</g>
<defs>
<clipPath id="clip0_305_35153">
<rect width="32" height="32" fill="white"/>
</clipPath>
</defs>
</svg>
