<svg width="32" height="32" viewBox="0 0 32 32" fill="none" xmlns="http://www.w3.org/2000/svg">
<g clip-path="url(#clip0_305_35190)">
<path d="M26.7312 15.6826L12.7312 30.6826C12.5828 30.8409 12.387 30.9467 12.1732 30.984C11.9595 31.0213 11.7394 30.988 11.5462 30.8892C11.353 30.7904 11.1972 30.6315 11.1023 30.4364C11.0073 30.2413 10.9784 30.0206 11.0199 29.8076L12.8524 20.6414L5.64867 17.9364C5.49396 17.8785 5.356 17.7832 5.2471 17.659C5.13821 17.5348 5.06177 17.3855 5.02463 17.2246C4.98749 17.0637 4.9908 16.896 5.03425 16.7366C5.07771 16.5773 5.15997 16.4312 5.27367 16.3114L19.2737 1.31136C19.422 1.15303 19.6179 1.04725 19.8316 1.00998C20.0454 0.972711 20.2655 1.00598 20.4586 1.10476C20.6518 1.20354 20.8076 1.36248 20.9026 1.55759C20.9975 1.75269 21.0264 1.97338 20.9849 2.18636L19.1474 11.3626L26.3512 14.0639C26.5047 14.1221 26.6416 14.2173 26.7496 14.341C26.8577 14.4647 26.9336 14.6131 26.9707 14.7732C27.0077 14.9332 27.0048 15.0998 26.9622 15.2585C26.9195 15.4171 26.8385 15.5628 26.7262 15.6826H26.7312Z" fill="black"/>
</g>
<defs>
<clipPath id="clip0_305_35190">
<rect width="32" height="32" fill="white"/>
</clipPath>
</defs>
</svg>
