<svg width="123" height="59" viewBox="0 0 123 59" fill="none" xmlns="http://www.w3.org/2000/svg">
<g clip-path="url(#clip0_102_2606)">
<mask id="mask0_102_2606" style="mask-type:luminance" maskUnits="userSpaceOnUse" x="-21" y="0" width="164" height="59">
<path d="M142.167 0H-21V58.74H142.167V0Z" fill="white"/>
</mask>
<g mask="url(#mask0_102_2606)">
<path d="M45.8821 20.9255H49.3998V39.8667H45.8821V20.9255Z" fill="white"/>
<path d="M61.0445 25.2551C62.8663 25.2551 64.3274 25.7873 65.428 26.8516C66.5285 27.916 67.0784 29.4944 67.0784 31.5869V39.8669H63.696V32.02C63.696 30.7571 63.3982 29.8101 62.8034 29.1787C62.2079 28.5293 61.3602 28.2045 60.2599 28.2045C59.015 28.2045 58.0317 28.5834 57.3104 29.3411C56.5887 30.0807 56.2277 31.1542 56.2277 32.561V39.8669H52.8455V25.4175H56.0655V27.2846C56.6248 26.6171 57.3284 26.112 58.1763 25.7693C59.0242 25.4265 59.9803 25.2551 61.0445 25.2551Z" fill="white"/>
<path d="M83.2817 25.4175L77.0846 39.8669H73.5944L67.3982 25.4175H70.9153L75.4072 36.1328L80.0346 25.4175H83.2817Z" fill="white"/>
<path d="M97.23 32.7233C97.23 32.9581 97.212 33.2915 97.1761 33.7246H85.8377C86.0368 34.7889 86.5507 35.6368 87.3804 36.2682C88.2281 36.8817 89.2748 37.1882 90.5189 37.1882C92.1065 37.1882 93.4143 36.665 94.4431 35.6187L96.2559 37.7023C95.6065 38.4781 94.7857 39.0642 93.7937 39.461C92.8008 39.8581 91.6831 40.0564 90.4382 40.0564C88.8506 40.0564 87.453 39.7407 86.244 39.1095C85.0357 38.4781 84.0975 37.6029 83.4302 36.4846C82.7799 35.3482 82.4561 34.0673 82.4561 32.6423C82.4561 31.2351 82.7718 29.9724 83.4032 28.854C84.0518 27.7175 84.9452 26.8336 86.0816 26.2022C87.2181 25.5709 88.4989 25.2551 89.9242 25.2551C91.3307 25.2551 92.5846 25.5709 93.6852 26.2022C94.8037 26.8156 95.6693 27.6905 96.2828 28.8269C96.9143 29.9454 97.23 31.2443 97.23 32.7233ZM89.9242 27.9611C88.8416 27.9611 87.9213 28.2857 87.1642 28.9352C86.4243 29.5666 85.9731 30.4145 85.8108 31.4787H94.0099C93.8655 30.4325 93.4233 29.5846 92.6842 28.9352C91.9442 28.2857 91.0248 27.9611 89.9242 27.9611Z" fill="white"/>
<path d="M102.346 27.528C103.32 26.0128 105.034 25.5257 107.487 25.5257V28.2316C107.198 28.1774 106.937 28.1504 106.702 28.1504C105.386 28.1504 104.358 28.7818 103.618 29.5575C102.879 30.3151 102.508 31.4154 102.508 32.8587V39.8669H99.1257V25.4175H102.346V27.528Z" fill="white"/>
<path d="M118.898 39.0823C118.501 39.407 118.015 39.6506 117.437 39.8128C116.878 39.9755 116.283 40.0564 115.651 40.0564C114.064 40.0564 112.838 39.6417 111.971 38.8119C111.106 37.982 110.672 36.7732 110.672 35.186V28.2317H108.292V25.5258H110.672V22.2246H114.055V25.5258H117.924V28.2317H114.055V35.1047C114.055 35.8083 114.226 36.3492 114.569 36.7282C114.911 37.0889 115.407 37.2696 116.057 37.2696C116.815 37.2696 117.446 37.0709 117.951 36.6742L118.898 39.0823Z" fill="white"/>
<path fill-rule="evenodd" clip-rule="evenodd" d="M37.0363 30.4521C37.0363 40.0355 29.2677 47.8041 19.6842 47.8041C10.101 47.8041 2.33228 40.0355 2.33228 30.4521C2.33228 20.8689 10.101 13.1001 19.6842 13.1001C29.2677 13.1001 37.0363 20.8689 37.0363 30.4521ZM31.5829 30.4521C31.5829 37.0233 26.2559 42.3504 19.6846 42.3504C19.229 42.3504 18.7793 42.325 18.337 42.2753C24.3169 41.6468 28.9775 36.5889 28.9775 30.4422C28.9775 24.3266 24.3632 19.2885 18.4264 18.6194C18.8398 18.5759 19.2597 18.5536 19.6846 18.5536C26.2559 18.5536 31.5829 23.8808 31.5829 30.4521ZM15.842 38.8331C19.7635 38.1404 22.7464 34.6516 22.7464 30.4521C22.7464 26.2524 19.7635 22.7636 15.842 22.0712C16.3166 21.989 16.8046 21.9462 17.3026 21.9462C22.0002 21.9462 25.8085 25.7544 25.8085 30.4521C25.8085 35.1497 22.0002 38.9579 17.3026 38.9579C16.8046 38.9579 16.3166 38.9151 15.842 38.8331Z" fill="white"/>
</g>
</g>
<defs>
<clipPath id="clip0_102_2606">
<rect width="123" height="58.74" fill="white"/>
</clipPath>
</defs>
</svg>
