<svg width="151" height="55" viewBox="0 0 151 55" fill="none" xmlns="http://www.w3.org/2000/svg">
<path d="M36.3066 14.7893L22.4004 31.4769H34.9159L33.5253 42.6017L47.4315 25.9143H34.9159L36.3066 14.7893Z" fill="black"/>
<path d="M67.1186 26.4213V31.569H59.6935V38.6196H53.8594V17.717H68.6784V22.8647H59.6935V26.4213H67.1186Z" fill="black"/>
<path d="M76.8154 17.717V38.6196H71.4492V17.717H76.8154Z" fill="black"/>
<path d="M85.6701 22.241C86.5018 22.241 87.3125 22.4281 88.1028 22.8025C88.9142 23.1561 89.5798 23.6137 90.1001 24.1753V22.7089H95.4664V38.6199H90.1001V35.9682C89.7046 36.8417 89.1015 37.58 88.2908 38.1833C87.4794 38.7865 86.5018 39.0879 85.358 39.0879C84.1721 39.0879 83.0592 38.7865 82.0199 38.1833C80.9799 37.58 80.1268 36.6545 79.4615 35.4066C78.8167 34.1378 78.4941 32.5467 78.4941 30.6332C78.4941 28.8445 78.8167 27.3262 79.4615 26.0783C80.1268 24.8304 81.0009 23.884 82.0823 23.2392C83.1847 22.5737 84.3804 22.241 85.6701 22.241ZM86.7928 27.4823C86.0235 27.4823 85.3783 27.7942 84.8587 28.4182C84.3594 29.0421 84.1097 29.7805 84.1097 30.6332C84.1097 31.4861 84.3699 32.2037 84.8895 32.7858C85.4099 33.3682 86.0965 33.6596 86.9493 33.6596C87.4065 33.6596 87.8742 33.545 88.3532 33.3163C88.8308 33.0668 89.2368 32.7026 89.5692 32.2244C89.9234 31.7252 90.1001 31.0908 90.1001 30.3213V28.7925C89.6422 28.4182 89.1225 28.1062 88.5397 27.8566C87.9787 27.607 87.3959 27.4823 86.7928 27.4823Z" fill="black"/>
<path d="M103.79 22.241C104.83 22.241 105.787 22.3969 106.66 22.7089C107.554 23.0001 108.272 23.4057 108.813 23.9257V28.1374C108.272 27.8046 107.658 27.4926 106.972 27.2015C106.286 26.8895 105.547 26.7335 104.757 26.7335C104.258 26.7335 103.811 26.8375 103.415 27.0455C103.041 27.2327 102.854 27.5342 102.854 27.9502C102.854 28.2414 102.969 28.4598 103.197 28.6054C103.426 28.751 103.873 28.9069 104.539 29.0733L105.506 29.3229C108.272 30.0301 109.655 31.5173 109.655 33.7843C109.655 34.8242 109.343 35.7496 108.719 36.561C108.116 37.3514 107.315 37.9751 106.317 38.4327C105.339 38.8696 104.279 39.0879 103.135 39.0879C101.949 39.0879 100.847 38.9216 99.8277 38.5887C98.8087 38.2353 97.9349 37.8087 97.2069 37.3098V33.1292C97.9559 33.5865 98.7982 33.9714 99.7344 34.2833C100.691 34.5954 101.544 34.7514 102.293 34.7514C102.896 34.7514 103.333 34.6786 103.603 34.5331C103.894 34.3876 104.04 34.1274 104.04 33.7531C104.04 33.4618 103.873 33.2435 103.54 33.098C103.207 32.9316 102.73 32.7442 102.105 32.5363L100.514 32.037C99.3494 31.6836 98.4966 31.1324 97.9559 30.3836C97.4153 29.6141 97.1445 28.6782 97.1445 27.5758C97.1445 26.4735 97.4356 25.5271 98.0184 24.7368C98.6004 23.9464 99.3908 23.3329 100.389 22.8961C101.408 22.4593 102.542 22.241 103.79 22.241Z" fill="black"/>
<path d="M120.724 22.2408C122.347 22.2408 123.667 22.7919 124.686 23.8943C125.726 24.9966 126.246 26.6293 126.246 28.7923V38.6197H120.88L120.849 29.6347C120.849 28.8444 120.631 28.2932 120.194 27.9812C119.757 27.6484 119.268 27.4821 118.727 27.4821C118.145 27.4821 117.657 27.638 117.261 27.95C116.866 28.2412 116.523 28.5948 116.232 29.0107V38.6197H110.865V17.717H116.232V24.7678C116.731 24.0814 117.334 23.4887 118.041 22.9895C118.769 22.4904 119.664 22.2408 120.724 22.2408Z" fill="black"/>
<path d="M125.976 17.8389V18.5027H125.177V20.5222H124.419V18.5027H123.619V17.8389H125.976Z" fill="black"/>
<path d="M129.09 17.7986V20.5342H128.332V19.2066L127.776 19.8302H127.549L126.993 19.2066V20.5342H126.234V17.7986H126.502L127.662 18.9652L128.822 17.7986H129.09Z" fill="black"/>
</svg>
