<svg width="151" height="55" viewBox="0 0 151 55" fill="none" xmlns="http://www.w3.org/2000/svg">
<mask id="mask0_33_177" style="mask-type:luminance" maskUnits="userSpaceOnUse" x="0" y="0" width="151" height="55">
<path d="M150.599 0H0.199219V54.144H150.599V0Z" fill="white"/>
</mask>
<g mask="url(#mask0_33_177)">
<path d="M65.6158 20.6292V38.0344H61.3761V30.869H54.7808V38.0344H50.541V20.6292H54.7808V27.4475H61.3761V20.6292H65.6158Z" fill="black"/>
<path d="M69.818 22.7614C69.0742 22.7614 68.4626 22.5465 67.9835 22.1168C67.5205 21.6705 67.2891 21.125 67.2891 20.4803C67.2891 19.8192 67.5205 19.2738 67.9835 18.8439C68.4626 18.3977 69.0742 18.1746 69.818 18.1746C70.5454 18.1746 71.1406 18.3977 71.6031 18.8439C72.0827 19.2738 72.3223 19.8192 72.3223 20.4803C72.3223 21.125 72.0827 21.6705 71.6031 22.1168C71.1406 22.5465 70.5454 22.7614 69.818 22.7614ZM71.9256 24.1994V38.0344H67.6858V24.1994H71.9256Z" fill="black"/>
<path d="M81.7153 34.4393V38.0343H79.5586C78.0215 38.0343 76.8228 37.6623 75.9633 36.9188C75.104 36.1583 74.6743 34.927 74.6743 33.2244V27.7201H72.9883V24.1994H74.6743V20.8274H78.9141V24.1994H81.6905V27.7201H78.9141V33.274C78.9141 33.6873 79.0134 33.9846 79.2112 34.1665C79.4097 34.3484 79.7406 34.4393 80.203 34.4393H81.7153Z" fill="black"/>
<path d="M96.1283 30.8938C96.1283 31.2905 96.1035 31.7039 96.0539 32.1335H86.4591C86.5253 32.9931 86.7975 33.6542 87.2773 34.1171C87.7728 34.5634 88.3759 34.7867 89.0866 34.7867C90.1447 34.7867 90.8801 34.3401 91.2937 33.4475H95.8057C95.5748 34.3567 95.153 35.175 94.5416 35.9022C93.9468 36.6295 93.1948 37.1999 92.2856 37.6129C91.3764 38.0263 90.3597 38.233 89.2355 38.233C87.8804 38.233 86.6734 37.9435 85.6161 37.3652C84.558 36.7866 83.7316 35.9602 83.136 34.8858C82.5412 33.8114 82.2441 32.555 82.2441 31.1171C82.2441 29.6788 82.5329 28.4228 83.1119 27.3484C83.7068 26.2739 84.5332 25.4475 85.5913 24.869C86.6486 24.2904 87.8638 24.0012 89.2355 24.0012C90.5748 24.0012 91.7645 24.2822 92.806 24.8442C93.8475 25.4062 94.6574 26.2078 95.2357 27.2492C95.8305 28.2906 96.1283 29.5054 96.1283 30.8938ZM91.7893 29.7782C91.7893 29.0509 91.5419 28.4723 91.0456 28.0425C90.55 27.6129 89.9296 27.3979 89.1866 27.3979C88.4752 27.3979 87.8721 27.6046 87.3758 28.0178C86.8968 28.431 86.599 29.0178 86.4839 29.7782H91.7893Z" fill="black"/>
<path d="M96.5293 31.1171C96.5293 29.6788 96.8181 28.4228 97.3971 27.3484C97.9919 26.2739 98.8101 25.4475 99.8516 24.869C100.909 24.2904 102.116 24.0012 103.471 24.0012C105.207 24.0012 106.653 24.4557 107.81 25.3648C108.984 26.2739 109.752 27.5549 110.116 29.2079H105.604C105.223 28.15 104.488 27.621 103.397 27.621C102.62 27.621 102 27.9269 101.538 28.5385C101.074 29.1335 100.843 29.9931 100.843 31.1171C100.843 32.2411 101.074 33.1088 101.538 33.7204C102 34.3154 102.62 34.6129 103.397 34.6129C104.488 34.6129 105.223 34.0842 105.604 33.026H110.116C109.752 34.6462 108.984 35.9188 107.81 36.8443C106.636 37.7701 105.19 38.233 103.471 38.233C102.116 38.233 100.909 37.9435 99.8516 37.3652C98.8101 36.7866 97.9919 35.9602 97.3971 34.8858C96.8181 33.8114 96.5293 32.555 96.5293 31.1171Z" fill="black"/>
<path d="M119.897 24.0505C121.484 24.0505 122.757 24.5794 123.716 25.6373C124.674 26.6786 125.153 28.1167 125.153 29.9514V38.0342H120.938V30.5216C120.938 29.5961 120.699 28.877 120.22 28.3646C119.74 27.8522 119.095 27.5961 118.285 27.5961C117.476 27.5961 116.831 27.8522 116.351 28.3646C115.872 28.877 115.632 29.5961 115.632 30.5216V38.0342H111.393V19.6868H115.632V26.0588C116.062 25.4472 116.649 24.9596 117.393 24.596C118.137 24.2323 118.971 24.0505 119.897 24.0505Z" fill="black"/>
<path d="M28.5879 28.9365V13.8862H33.6057V21.6227C34.4815 21.2847 35.4332 21.0993 36.4282 21.0993C40.7583 21.0993 44.2684 24.6096 44.2684 28.9397V38.0344H39.2507V28.9397C39.2507 27.3809 37.987 26.1171 36.4282 26.1171C34.87 26.1171 33.6067 27.3797 33.6057 28.9376V28.9397V38.0344H28.5879V28.9397V28.9365Z" fill="black"/>
<path d="M39.25 18.904V13.8862H44.2676V18.904H39.25Z" fill="black"/>
</g>
</svg>
