<svg width="122" height="28" viewBox="0 0 122 28" fill="none" xmlns="http://www.w3.org/2000/svg">
<rect y="17.2573" width="7.0438" height="10.4483" fill="url(#paint0_linear_305_35116)"/>
<rect x="10" y="10.2722" width="7.0438" height="17.4334" fill="url(#paint1_linear_305_35116)"/>
<rect x="20" y="3.28711" width="7.0438" height="24.4185" fill="url(#paint2_linear_305_35116)"/>
<path fill-rule="evenodd" clip-rule="evenodd" d="M3.52214 13.9716C5.46724 13.9716 7.04381 15.5481 7.04381 17.4932C7.04381 19.4388 5.46724 21.0154 3.52214 21.0154C1.57656 21.0154 0 19.4388 0 17.4932C0 15.5481 1.57656 13.9716 3.52214 13.9716Z" fill="black"/>
<path fill-rule="evenodd" clip-rule="evenodd" d="M23.5221 0C25.4672 0 27.0438 1.57656 27.0438 3.52166C27.0438 5.46724 25.4672 7.0438 23.5221 7.0438C21.5766 7.0438 20 5.46724 20 3.52166C20 1.5765 21.5766 0 23.5221 0Z" fill="black"/>
<path fill-rule="evenodd" clip-rule="evenodd" d="M13.5205 6.98468C15.4654 6.98468 17.0438 8.56303 17.0438 10.508C17.0438 12.4524 15.4654 14.0285 13.5205 14.0285C11.576 14.0285 10 12.4524 10 10.508C10 8.56303 11.576 6.98468 13.5205 6.98468Z" fill="black"/>
<path d="M37.9988 8.28005V12.9916H45.4753V15.4247H37.9988V21.3528H35.1232V5.86899H46.4264V8.28005H37.9988ZM48.7258 9.54088H51.4908V21.3528H48.7258V9.54088ZM50.1194 7.59434C49.618 7.59434 49.1977 7.4395 48.8586 7.12982C48.5194 6.8054 48.3498 6.40724 48.3498 5.93535C48.3498 5.46347 48.5194 5.07268 48.8586 4.76301C49.1977 4.43858 49.618 4.27637 50.1194 4.27637C50.6208 4.27637 51.041 4.43121 51.3802 4.74089C51.7194 5.03582 51.889 5.41185 51.889 5.86899C51.889 6.35563 51.7194 6.76853 51.3802 7.1077C51.0558 7.43213 50.6355 7.59434 50.1194 7.59434ZM61.8221 9.40816C63.3115 9.40816 64.506 9.84318 65.4055 10.7132C66.3051 11.5833 66.7548 12.8736 66.7548 14.5842V21.3528H63.9899V14.9381C63.9899 13.9059 63.7466 13.1317 63.2599 12.6155C62.7733 12.0847 62.0802 11.8192 61.1807 11.8192C60.1631 11.8192 59.3595 12.1289 58.7696 12.7482C58.1797 13.3529 57.8848 14.2303 57.8848 15.3805V21.3528H55.1198V9.54088H57.7521V11.0671C58.2092 10.5215 58.7843 10.1086 59.4774 9.82844C60.1705 9.54825 60.9521 9.40816 61.8221 9.40816ZM88.4722 9.54088L84.1146 21.3528H81.4602L78.4076 13.2128L75.3109 21.3528H72.6565L68.321 9.54088H70.9312L74.0501 18.2561L77.3017 9.54088H79.6242L82.8095 18.3003L86.0169 9.54088H88.4722ZM90.3732 9.54088H93.1382V21.3528H90.3732V9.54088ZM91.7668 7.59434C91.2654 7.59434 90.8451 7.4395 90.506 7.12982C90.1668 6.8054 89.9972 6.40724 89.9972 5.93535C89.9972 5.46347 90.1668 5.07268 90.506 4.76301C90.8451 4.43858 91.2654 4.27637 91.7668 4.27637C92.2682 4.27637 92.6884 4.43121 93.0276 4.74089C93.3668 5.03582 93.5364 5.41185 93.5364 5.86899C93.5364 6.35563 93.3668 6.76853 93.0276 7.1077C92.7032 7.43213 92.2829 7.59434 91.7668 7.59434ZM100.417 21.5077C99.4585 21.5077 98.5221 21.3823 97.6078 21.1316C96.6935 20.881 95.9636 20.5639 95.4179 20.1805L96.4797 18.0791C97.0106 18.433 97.6447 18.7206 98.382 18.9418C99.1341 19.1482 99.8714 19.2515 100.594 19.2515C102.246 19.2515 103.071 18.8164 103.071 17.9464C103.071 17.5335 102.858 17.2459 102.43 17.0837C102.017 16.9215 101.346 16.7667 100.417 16.6192C99.4437 16.4717 98.6474 16.3022 98.0281 16.1105C97.4235 15.9188 96.8926 15.587 96.4354 15.1151C95.993 14.6284 95.7719 13.9575 95.7719 13.1022C95.7719 11.9814 96.2364 11.0893 97.1654 10.4257C98.1092 9.74733 99.3774 9.40816 100.97 9.40816C101.781 9.40816 102.592 9.50401 103.403 9.69572C104.214 9.87268 104.878 10.116 105.394 10.4257L104.332 12.5271C103.329 11.9372 102.201 11.6423 100.948 11.6423C100.137 11.6423 99.5175 11.7676 99.0898 12.0183C98.6769 12.2542 98.4705 12.5713 98.4705 12.9694C98.4705 13.4118 98.6917 13.7289 99.1341 13.9206C99.5912 14.0976 100.292 14.2671 101.235 14.4294C102.179 14.5768 102.953 14.7464 103.558 14.9381C104.163 15.1298 104.679 15.4542 105.106 15.9114C105.549 16.3685 105.77 17.0174 105.77 17.8579C105.77 18.9639 105.291 19.8487 104.332 20.5123C103.374 21.1759 102.069 21.5077 100.417 21.5077ZM119.255 15.5132C119.255 15.7049 119.241 15.9777 119.211 16.3317H109.943C110.105 17.2017 110.525 17.8948 111.204 18.4109C111.897 18.9123 112.752 19.163 113.77 19.163C115.067 19.163 116.136 18.7353 116.977 17.88L118.459 19.5833C117.928 20.2174 117.257 20.6966 116.446 21.021C115.635 21.3455 114.721 21.5077 113.703 21.5077C112.406 21.5077 111.263 21.2496 110.275 20.7335C109.287 20.2174 108.52 19.5022 107.974 18.5879C107.443 17.6588 107.178 16.6118 107.178 15.4469C107.178 14.2966 107.436 13.2644 107.952 12.3501C108.483 11.4211 109.213 10.6985 110.142 10.1824C111.071 9.66623 112.118 9.40816 113.283 9.40816C114.433 9.40816 115.458 9.66623 116.358 10.1824C117.272 10.6837 117.98 11.3989 118.481 12.328C118.997 13.2423 119.255 14.304 119.255 15.5132ZM113.283 11.6201C112.398 11.6201 111.646 11.8856 111.027 12.4165C110.422 12.9326 110.053 13.6257 109.921 14.4957H116.623C116.505 13.6404 116.144 12.9473 115.539 12.4165C114.935 11.8856 114.182 11.6201 113.283 11.6201Z" fill="black"/>
<path d="M37.9988 8.28005V8.08771H37.8064V8.28005H37.9988ZM37.9988 12.9916H37.8064V13.1839H37.9988V12.9916ZM45.4753 12.9916H45.6676V12.7992H45.4753V12.9916ZM45.4753 15.4247V15.6171H45.6676V15.4247H45.4753ZM37.9988 15.4247V15.2324H37.8064V15.4247H37.9988ZM37.9988 21.3528V21.5452H38.1911V21.3528H37.9988ZM35.1232 21.3528H34.9309V21.5452H35.1232V21.3528ZM35.1232 5.86899V5.67665H34.9309V5.86899H35.1232ZM46.4264 5.86899H46.6188V5.67665H46.4264V5.86899ZM46.4264 8.28005V8.4724H46.6188V8.28005H46.4264ZM37.8064 8.28005V12.9916H38.1911V8.28005H37.8064ZM37.9988 13.1839H45.4753V12.7992H37.9988V13.1839ZM45.2829 12.9916V15.4247H45.6676V12.9916H45.2829ZM45.4753 15.2324H37.9988V15.6171H45.4753V15.2324ZM37.8064 15.4247V21.3528H38.1911V15.4247H37.8064ZM37.9988 21.1605H35.1232V21.5452H37.9988V21.1605ZM35.3156 21.3528V5.86899H34.9309V21.3528H35.3156ZM35.1232 6.06134H46.4264V5.67665H35.1232V6.06134ZM46.2341 5.86899V8.28005H46.6188V5.86899H46.2341ZM46.4264 8.08771H37.9988V8.4724H46.4264V8.08771ZM48.7258 9.54088V9.34853H48.5335V9.54088H48.7258ZM51.4908 9.54088H51.6832V9.34853H51.4908V9.54088ZM51.4908 21.3528V21.5452H51.6832V21.3528H51.4908ZM48.7258 21.3528H48.5335V21.5452H48.7258V21.3528ZM48.8586 7.12982L48.7256 7.26886L48.7289 7.27187L48.8586 7.12982ZM48.8586 4.76301L48.9883 4.90509L48.9915 4.902L48.8586 4.76301ZM51.3802 4.74089L51.2505 4.88297L51.254 4.88603L51.3802 4.74089ZM51.3802 7.1077L51.2442 6.97169L51.2442 6.97169L51.3802 7.1077ZM48.7258 9.73323H51.4908V9.34853H48.7258V9.73323ZM51.2985 9.54088V21.3528H51.6832V9.54088H51.2985ZM51.4908 21.1605H48.7258V21.5452H51.4908V21.1605ZM48.9182 21.3528V9.54088H48.5335V21.3528H48.9182ZM50.1194 7.40199C49.6612 7.40199 49.2886 7.26201 48.9882 6.98778L48.7289 7.27187C49.1068 7.61699 49.5748 7.78668 50.1194 7.78668V7.40199ZM48.9915 6.99083C48.6905 6.70291 48.5421 6.35507 48.5421 5.93535H48.1575C48.1575 6.45942 48.3483 6.90789 48.7256 7.26882L48.9915 6.99083ZM48.5421 5.93535C48.5421 5.51583 48.6902 5.17716 48.9882 4.90505L48.7289 4.62096C48.3485 4.9682 48.1575 5.4111 48.1575 5.93535H48.5421ZM48.9915 4.902C49.2923 4.61431 49.6638 4.46872 50.1194 4.46872V4.08403C49.5722 4.08403 49.1032 4.26286 48.7256 4.62401L48.9915 4.902ZM50.1194 4.46872C50.5775 4.46872 50.9502 4.6087 51.2505 4.88293L51.5099 4.59884C51.1319 4.25372 50.664 4.08403 50.1194 4.08403V4.46872ZM51.254 4.88603C51.5503 5.14372 51.6966 5.46643 51.6966 5.86899H52.0813C52.0813 5.35727 51.8884 4.92791 51.5064 4.59574L51.254 4.88603ZM51.6966 5.86899C51.6966 6.30545 51.5467 6.66918 51.2442 6.97169L51.5162 7.24371C51.892 6.86788 52.0813 6.40581 52.0813 5.86899H51.6966ZM51.2442 6.97169C50.9605 7.25541 50.5915 7.40199 50.1194 7.40199V7.78668C50.6796 7.78668 51.1511 7.60885 51.5162 7.24371L51.2442 6.97169ZM65.4055 10.7132L65.5393 10.575L65.5393 10.575L65.4055 10.7132ZM66.7548 21.3528V21.5452H66.9472V21.3528H66.7548ZM63.9899 21.3528H63.7975V21.5452H63.9899V21.3528ZM63.2599 12.6155L63.1181 12.7455L63.12 12.7475L63.2599 12.6155ZM58.7696 12.7482L58.9073 12.8826L58.9089 12.8809L58.7696 12.7482ZM57.8848 21.3528V21.5452H58.0772V21.3528H57.8848ZM55.1198 21.3528H54.9275V21.5452H55.1198V21.3528ZM55.1198 9.54088V9.34853H54.9275V9.54088H55.1198ZM57.7521 9.54088H57.9444V9.34853H57.7521V9.54088ZM57.7521 11.0671H57.5597V11.5962L57.8995 11.1907L57.7521 11.0671ZM59.4774 9.82844L59.5495 10.0068L59.5495 10.0068L59.4774 9.82844ZM61.8221 9.60051C63.2718 9.60051 64.4148 10.0226 65.2718 10.8515L65.5393 10.575C64.5972 9.66378 63.3513 9.21581 61.8221 9.21581V9.60051ZM65.2718 10.8515C66.1218 11.6736 66.5625 12.906 66.5625 14.5842H66.9472C66.9472 12.8412 66.4884 11.493 65.5393 10.575L65.2718 10.8515ZM66.5625 14.5842V21.3528H66.9472V14.5842H66.5625ZM66.7548 21.1605H63.9899V21.5452H66.7548V21.1605ZM64.1822 21.3528V14.9381H63.7975V21.3528H64.1822ZM64.1822 14.9381C64.1822 13.8789 63.9328 13.0488 63.3999 12.4836L63.12 12.7475C63.5603 13.2145 63.7975 13.9328 63.7975 14.9381H64.1822ZM63.4017 12.4856C62.8699 11.9054 62.1197 11.6269 61.1807 11.6269V12.0116C62.0407 12.0116 62.6766 12.2639 63.1181 12.7455L63.4017 12.4856ZM61.1807 11.6269C60.1213 11.6269 59.2633 11.951 58.6303 12.6156L58.9089 12.8809C59.4556 12.3068 60.205 12.0116 61.1807 12.0116V11.6269ZM58.6319 12.6139C57.9959 13.2658 57.6925 14.1986 57.6925 15.3805H58.0772C58.0772 14.2619 58.3636 13.4399 58.9073 12.8826L58.6319 12.6139ZM57.6925 15.3805V21.3528H58.0772V15.3805H57.6925ZM57.8848 21.1605H55.1198V21.5452H57.8848V21.1605ZM55.3122 21.3528V9.54088H54.9275V21.3528H55.3122ZM55.1198 9.73323H57.7521V9.34853H55.1198V9.73323ZM57.5597 9.54088V11.0671H57.9444V9.54088H57.5597ZM57.8995 11.1907C58.3354 10.6704 58.8841 10.2757 59.5495 10.0068L59.4053 9.65011C58.6845 9.9415 58.0831 10.3726 57.6047 10.9436L57.8995 11.1907ZM59.5495 10.0068C60.2163 9.73723 60.9728 9.60051 61.8221 9.60051V9.21581C60.9314 9.21581 60.1248 9.35928 59.4053 9.65011L59.5495 10.0068ZM88.4722 9.54088L88.6526 9.60745L88.7481 9.34853H88.4722V9.54088ZM84.1146 21.3528V21.5452H84.2486L84.295 21.4194L84.1146 21.3528ZM81.4602 21.3528L81.2801 21.4204L81.3269 21.5452H81.4602V21.3528ZM78.4076 13.2128L78.5877 13.1452L78.4089 12.6684L78.2279 13.1444L78.4076 13.2128ZM75.3109 21.3528V21.5452H75.4435L75.4907 21.4212L75.3109 21.3528ZM72.6565 21.3528L72.4759 21.4191L72.5222 21.5452H72.6565V21.3528ZM68.321 9.54088V9.34853H68.0455L68.1405 9.60715L68.321 9.54088ZM70.9312 9.54088L71.1123 9.47607L71.0666 9.34853H70.9312V9.54088ZM74.0501 18.2561L73.869 18.3209L74.0463 18.8164L74.2303 18.3233L74.0501 18.2561ZM77.3017 9.54088V9.34853H77.1681L77.1214 9.47364L77.3017 9.54088ZM79.6242 9.54088L79.805 9.47515L79.759 9.34853H79.6242V9.54088ZM82.8095 18.3003L82.6287 18.366L82.8089 18.8614L82.9901 18.3664L82.8095 18.3003ZM86.0169 9.54088V9.34853H85.8824L85.8362 9.47474L86.0169 9.54088ZM88.2917 9.47431L83.9341 21.2863L84.295 21.4194L88.6526 9.60745L88.2917 9.47431ZM84.1146 21.1605H81.4602V21.5452H84.1146V21.1605ZM81.6403 21.2853L78.5877 13.1452L78.2275 13.2803L81.2801 21.4204L81.6403 21.2853ZM78.2279 13.1444L75.1311 21.2845L75.4907 21.4212L78.5874 13.2812L78.2279 13.1444ZM75.3109 21.1605H72.6565V21.5452H75.3109V21.1605ZM72.8371 21.2866L68.5016 9.4746L68.1405 9.60715L72.4759 21.4191L72.8371 21.2866ZM68.321 9.73323H70.9312V9.34853H68.321V9.73323ZM70.7501 9.60569L73.869 18.3209L74.2311 18.1913L71.1123 9.47607L70.7501 9.60569ZM74.2303 18.3233L77.4819 9.60812L77.1214 9.47364L73.8698 18.1888L74.2303 18.3233ZM77.3017 9.73323H79.6242V9.34853H77.3017V9.73323ZM79.4435 9.60661L82.6287 18.366L82.9903 18.2346L79.805 9.47515L79.4435 9.60661ZM82.9901 18.3664L86.1975 9.60701L85.8362 9.47474L82.6289 18.2342L82.9901 18.3664ZM86.0169 9.73323H88.4722V9.34853H86.0169V9.73323ZM90.3732 9.54088V9.34853H90.1809V9.54088H90.3732ZM93.1382 9.54088H93.3306V9.34853H93.1382V9.54088ZM93.1382 21.3528V21.5452H93.3306V21.3528H93.1382ZM90.3732 21.3528H90.1809V21.5452H90.3732V21.3528ZM90.506 7.12982L90.373 7.26886L90.3763 7.27187L90.506 7.12982ZM90.506 4.76301L90.6357 4.90509L90.6389 4.902L90.506 4.76301ZM93.0276 4.74089L92.8979 4.88297L92.9014 4.88603L93.0276 4.74089ZM93.0276 7.1077L92.8916 6.97169L92.8916 6.97169L93.0276 7.1077ZM90.3732 9.73323H93.1382V9.34853H90.3732V9.73323ZM92.9459 9.54088V21.3528H93.3306V9.54088H92.9459ZM93.1382 21.1605H90.3732V21.5452H93.1382V21.1605ZM90.5656 21.3528V9.54088H90.1809V21.3528H90.5656ZM91.7668 7.40199C91.3086 7.40199 90.936 7.26201 90.6357 6.98778L90.3763 7.27187C90.7543 7.61699 91.2222 7.78668 91.7668 7.78668V7.40199ZM90.6389 6.99083C90.3379 6.70291 90.1895 6.35507 90.1895 5.93535H89.8049C89.8049 6.45942 89.9957 6.90789 90.373 7.26882L90.6389 6.99083ZM90.1895 5.93535C90.1895 5.51583 90.3376 5.17716 90.6357 4.90505L90.3763 4.62096C89.996 4.9682 89.8049 5.4111 89.8049 5.93535H90.1895ZM90.6389 4.902C90.9397 4.61431 91.3112 4.46872 91.7668 4.46872V4.08403C91.2196 4.08403 90.7506 4.26286 90.373 4.62401L90.6389 4.902ZM91.7668 4.46872C92.225 4.46872 92.5976 4.6087 92.8979 4.88293L93.1573 4.59884C92.7793 4.25372 92.3114 4.08403 91.7668 4.08403V4.46872ZM92.9014 4.88603C93.1977 5.14372 93.344 5.46643 93.344 5.86899H93.7287C93.7287 5.35727 93.5358 4.92791 93.1538 4.59574L92.9014 4.88603ZM93.344 5.86899C93.344 6.30545 93.1941 6.66918 92.8916 6.97169L93.1636 7.24371C93.5395 6.86788 93.7287 6.40581 93.7287 5.86899H93.344ZM92.8916 6.97169C92.6079 7.25541 92.2389 7.40199 91.7668 7.40199V7.78668C92.327 7.78668 92.7985 7.60885 93.1636 7.24371L92.8916 6.97169ZM97.6078 21.1316L97.5569 21.3171L97.6078 21.1316ZM95.4179 20.1805L95.2463 20.0938L95.1712 20.2422L95.3073 20.3379L95.4179 20.1805ZM96.4797 18.0791L96.5864 17.9191L96.4059 17.7987L96.308 17.9924L96.4797 18.0791ZM98.382 18.9418L98.3267 19.1261L98.3311 19.1273L98.382 18.9418ZM102.43 17.0837L102.36 17.2628L102.362 17.2636L102.43 17.0837ZM100.417 16.6192L100.447 16.4292L100.446 16.429L100.417 16.6192ZM98.0281 16.1105L97.9699 16.2938L97.9712 16.2942L98.0281 16.1105ZM96.4354 15.1151L96.293 15.2445L96.2973 15.2489L96.4354 15.1151ZM97.1654 10.4257L97.2772 10.5822L97.2777 10.5819L97.1654 10.4257ZM103.403 9.69572L103.359 9.88293L103.362 9.88364L103.403 9.69572ZM105.394 10.4257L105.566 10.5124L105.646 10.3528L105.493 10.2607L105.394 10.4257ZM104.332 12.5271L104.235 12.6928L104.411 12.7968L104.504 12.6138L104.332 12.5271ZM99.0898 12.0183L99.1853 12.1853L99.1871 12.1842L99.0898 12.0183ZM99.1341 13.9206L99.0575 14.0972L99.0646 14.1L99.1341 13.9206ZM101.235 14.4294L101.203 14.6189L101.206 14.6194L101.235 14.4294ZM103.558 14.9381L103.616 14.7548L103.616 14.7548L103.558 14.9381ZM105.106 15.9114L104.966 16.0428L104.968 16.0451L105.106 15.9114ZM104.332 20.5123L104.223 20.3541L104.223 20.3541L104.332 20.5123ZM100.417 21.3153C99.4755 21.3153 98.5562 21.1922 97.6587 20.9461L97.5569 21.3171C98.488 21.5724 99.4415 21.7 100.417 21.7V21.3153ZM97.6587 20.9461C96.7575 20.6991 96.0501 20.3896 95.5285 20.0231L95.3073 20.3379C95.877 20.7382 96.6295 21.0629 97.5569 21.3171L97.6587 20.9461ZM95.5896 20.2672L96.6514 18.1659L96.308 17.9924L95.2463 20.0938L95.5896 20.2672ZM96.373 18.2392C96.9226 18.6056 97.5748 18.9004 98.3267 19.126L98.4373 18.7576C97.7145 18.5407 97.0985 18.2605 96.5864 17.9191L96.373 18.2392ZM98.3311 19.1273C99.0984 19.3379 99.8529 19.4438 100.594 19.4438V19.0591C99.8899 19.0591 99.1697 18.9586 98.4329 18.7563L98.3311 19.1273ZM100.594 19.4438C101.43 19.4438 102.087 19.3347 102.542 19.0954C102.772 18.9742 102.954 18.8172 103.079 18.6202C103.204 18.4225 103.264 18.1956 103.264 17.9464H102.879C102.879 18.1322 102.835 18.2859 102.754 18.4145C102.672 18.5438 102.545 18.6587 102.362 18.755C101.991 18.9507 101.409 19.0591 100.594 19.0591V19.4438ZM103.264 17.9464C103.264 17.7051 103.201 17.4881 103.065 17.3063C102.931 17.1259 102.737 16.9944 102.498 16.9039L102.362 17.2636C102.551 17.3352 102.677 17.4287 102.757 17.5358C102.835 17.6415 102.879 17.7747 102.879 17.9464H103.264ZM102.5 16.9047C102.067 16.7344 101.378 16.577 100.447 16.4292L100.387 16.8092C101.314 16.9563 101.967 17.1087 102.36 17.2628L102.5 16.9047ZM100.446 16.429C99.4777 16.2824 98.6917 16.1145 98.0849 15.9267L97.9712 16.2942C98.6031 16.4898 99.4098 16.6611 100.388 16.8094L100.446 16.429ZM98.0862 15.9271C97.5131 15.7454 97.0094 15.4311 96.5736 14.9812L96.2973 15.2489C96.7758 15.7428 97.3339 16.0921 97.9699 16.2938L98.0862 15.9271ZM96.5778 14.9857C96.1763 14.544 95.9642 13.9244 95.9642 13.1022H95.5795C95.5795 13.9905 95.8098 14.7128 96.2931 15.2445L96.5778 14.9857ZM95.9642 13.1022C95.9642 12.0449 96.3976 11.2105 97.2772 10.5822L97.0536 10.2692C96.0751 10.968 95.5795 11.9179 95.5795 13.1022H95.9642ZM97.2777 10.5819C98.1786 9.93431 99.4031 9.60051 100.97 9.60051V9.21581C99.3517 9.21581 98.0398 9.56035 97.0531 10.2695L97.2777 10.5819ZM100.97 9.60051C101.766 9.60051 102.562 9.69453 103.359 9.88291L103.447 9.50853C102.622 9.31349 101.796 9.21581 100.97 9.21581V9.60051ZM103.362 9.88364C104.16 10.0577 104.802 10.2949 105.295 10.5906L105.493 10.2607C104.953 9.93707 104.269 9.68765 103.444 9.50779L103.362 9.88364ZM105.222 10.3389L104.161 12.4403L104.504 12.6138L105.566 10.5124L105.222 10.3389ZM104.43 12.3613C103.395 11.7527 102.233 11.4499 100.948 11.4499V11.8346C102.17 11.8346 103.264 12.1217 104.235 12.6928L104.43 12.3613ZM100.948 11.4499C100.122 11.4499 99.4629 11.5766 98.9925 11.8524L99.1871 12.1842C99.5721 11.9586 100.152 11.8346 100.948 11.8346V11.4499ZM98.9944 11.8513C98.5354 12.1136 98.2781 12.4877 98.2781 12.9694H98.6628C98.6628 12.6549 98.8185 12.3949 99.1852 12.1853L98.9944 11.8513ZM98.2781 12.9694C98.2781 13.2241 98.3423 13.4538 98.4786 13.6491C98.6141 13.8433 98.8117 13.9905 99.0576 14.0971L99.2105 13.7441C99.014 13.6589 98.8798 13.5518 98.7941 13.429C98.7092 13.3072 98.6628 13.1572 98.6628 12.9694H98.2781ZM99.0646 14.1C99.5402 14.2841 100.256 14.4562 101.203 14.6189L101.268 14.2398C100.327 14.0781 99.6422 13.9111 99.2035 13.7412L99.0646 14.1ZM101.206 14.6194C102.144 14.766 102.908 14.9338 103.5 15.1215L103.616 14.7548C102.999 14.559 102.214 14.3876 101.265 14.2393L101.206 14.6194ZM103.5 15.1215C104.073 15.3033 104.561 15.6101 104.966 16.0428L105.247 15.78C104.796 15.2984 104.252 14.9563 103.616 14.7548L103.5 15.1215ZM104.968 16.0451C105.366 16.4561 105.578 17.0507 105.578 17.8579H105.962C105.962 16.984 105.732 16.281 105.245 15.7776L104.968 16.0451ZM105.578 17.8579C105.578 18.8968 105.133 19.7242 104.223 20.3541L104.442 20.6704C105.449 19.9732 105.962 19.031 105.962 17.8579H105.578ZM104.223 20.3541C103.307 20.988 102.045 21.3153 100.417 21.3153V21.7C102.092 21.7 103.44 21.3638 104.442 20.6704L104.223 20.3541ZM119.211 16.3317V16.524H119.388L119.403 16.3476L119.211 16.3317ZM109.943 16.3317V16.1393H109.711L109.754 16.3669L109.943 16.3317ZM111.204 18.4109L111.087 18.564L111.091 18.5668L111.204 18.4109ZM116.977 17.88L117.122 17.7538L116.986 17.5969L116.84 17.7452L116.977 17.88ZM118.459 19.5833L118.606 19.7067L118.712 19.5809L118.604 19.457L118.459 19.5833ZM116.446 21.021L116.375 20.8425L116.375 20.8425L116.446 21.021ZM110.275 20.7335L110.186 20.904L110.186 20.904L110.275 20.7335ZM107.974 18.5879L107.807 18.6833L107.809 18.6864L107.974 18.5879ZM107.952 12.3501L107.785 12.2547L107.785 12.2555L107.952 12.3501ZM110.142 10.1824L110.235 10.3505L110.235 10.3505L110.142 10.1824ZM116.358 10.1824L116.262 10.3492L116.265 10.351L116.358 10.1824ZM118.481 12.328L118.312 12.4193L118.314 12.4225L118.481 12.328ZM111.027 12.4165L111.152 12.5627L111.152 12.5625L111.027 12.4165ZM109.921 14.4957L109.731 14.4667L109.697 14.6881H109.921V14.4957ZM116.623 14.4957V14.6881H116.844L116.814 14.4694L116.623 14.4957ZM115.539 12.4165L115.412 12.561L115.412 12.561L115.539 12.4165ZM119.063 15.5132C119.063 15.6969 119.049 15.9634 119.019 16.3157L119.403 16.3476C119.432 15.9921 119.448 15.713 119.448 15.5132H119.063ZM119.211 16.1393H109.943V16.524H119.211V16.1393ZM109.754 16.3669C109.924 17.2819 110.369 18.0178 111.087 18.564L111.32 18.2578C110.681 17.7718 110.286 17.1215 110.132 16.2964L109.754 16.3669ZM111.091 18.5668C111.823 19.0961 112.719 19.3553 113.77 19.3553V18.9706C112.785 18.9706 111.971 18.7285 111.316 18.2551L111.091 18.5668ZM113.77 19.3553C115.114 19.3553 116.234 18.9102 117.114 18.0149L116.84 17.7452C116.039 18.5605 115.02 18.9706 113.77 18.9706V19.3553ZM116.832 18.0063L118.314 19.7095L118.604 19.457L117.122 17.7538L116.832 18.0063ZM118.311 19.4598C117.802 20.0681 117.158 20.5292 116.375 20.8425L116.518 21.1996C117.356 20.8641 118.054 20.3666 118.606 19.7067L118.311 19.4598ZM116.375 20.8425C115.59 21.1564 114.7 21.3153 113.703 21.3153V21.7C114.741 21.7 115.68 21.5345 116.518 21.1996L116.375 20.8425ZM113.703 21.3153C112.431 21.3153 111.32 21.0626 110.364 20.563L110.186 20.904C111.205 21.4367 112.38 21.7 113.703 21.7V21.3153ZM110.364 20.563C109.406 20.0625 108.666 19.3716 108.139 18.4893L107.809 18.6864C108.374 19.6327 109.168 20.3722 110.186 20.904L110.364 20.563ZM108.141 18.4924C107.628 17.595 107.37 16.5814 107.37 15.4469H106.986C106.986 16.6423 107.258 17.7227 107.807 18.6833L108.141 18.4924ZM107.37 15.4469C107.37 14.3265 107.621 13.3274 108.12 12.4446L107.785 12.2555C107.251 13.2014 106.986 14.2667 106.986 15.4469H107.37ZM108.119 12.4455C108.633 11.5468 109.337 10.8494 110.235 10.3505L110.049 10.0142C109.089 10.5475 108.333 11.2953 107.785 12.2547L108.119 12.4455ZM110.235 10.3505C111.133 9.85173 112.147 9.60051 113.283 9.60051V9.21581C112.089 9.21581 111.009 9.48072 110.049 10.0142L110.235 10.3505ZM113.283 9.60051C114.403 9.60051 115.395 9.85155 116.262 10.3492L116.453 10.0155C115.522 9.4809 114.463 9.21581 113.283 9.21581V9.60051ZM116.265 10.351C117.146 10.8343 117.828 11.5225 118.312 12.4193L118.65 12.2366C118.132 11.2754 117.397 10.5331 116.45 10.0137L116.265 10.351ZM118.314 12.4225C118.811 13.3038 119.063 14.3321 119.063 15.5132H119.448C119.448 14.276 119.183 13.1807 118.649 12.2334L118.314 12.4225ZM113.283 11.4278C112.356 11.4278 111.559 11.707 110.902 12.2704L111.152 12.5625C111.733 12.0641 112.44 11.8125 113.283 11.8125V11.4278ZM110.902 12.2702C110.258 12.8196 109.869 13.5562 109.731 14.4667L110.111 14.5247C110.237 13.6951 110.586 13.0456 111.152 12.5627L110.902 12.2702ZM109.921 14.6881H116.623V14.3034H109.921V14.6881ZM116.814 14.4694C116.69 13.572 116.308 12.8356 115.666 12.2719L115.412 12.561C115.979 13.059 116.32 13.7089 116.432 14.522L116.814 14.4694ZM115.666 12.2719C115.022 11.7065 114.223 11.4278 113.283 11.4278V11.8125C114.142 11.8125 114.847 12.0646 115.412 12.561L115.666 12.2719Z" fill="black"/>
<defs>
<linearGradient id="paint0_linear_305_35116" x1="3.5219" y1="17.2573" x2="3.5219" y2="27.7056" gradientUnits="userSpaceOnUse">
<stop/>
<stop offset="0.389133" stop-color="#0E0E0E"/>
<stop offset="0.692708" stop-color="#737373" stop-opacity="0.75"/>
<stop offset="1" stop-color="#D9D9D9" stop-opacity="0"/>
</linearGradient>
<linearGradient id="paint1_linear_305_35116" x1="13.5219" y1="10.2722" x2="13.5219" y2="27.7056" gradientUnits="userSpaceOnUse">
<stop/>
<stop offset="0.389133" stop-color="#0E0E0E"/>
<stop offset="0.692708" stop-color="#737373" stop-opacity="0.75"/>
<stop offset="1" stop-color="#D9D9D9" stop-opacity="0"/>
</linearGradient>
<linearGradient id="paint2_linear_305_35116" x1="23.5219" y1="3.28711" x2="23.5219" y2="27.7056" gradientUnits="userSpaceOnUse">
<stop/>
<stop offset="0.389133" stop-color="#0E0E0E"/>
<stop offset="0.692708" stop-color="#737373" stop-opacity="0.75"/>
<stop offset="1" stop-color="#D9D9D9" stop-opacity="0"/>
</linearGradient>
</defs>
</svg>
