<svg width="151" height="55" viewBox="0 0 151 55" fill="none" xmlns="http://www.w3.org/2000/svg">
<mask id="mask0_33_150" style="mask-type:luminance" maskUnits="userSpaceOnUse" x="0" y="0" width="151" height="55">
<path d="M150.4 0H0V54.144H150.4V0Z" fill="white"/>
</mask>
<g mask="url(#mask0_33_150)">
<path d="M61.9349 35.7816C61.5617 35.4617 61.3476 35.1265 61.3278 34.7743L61.9349 35.7816ZM61.9349 35.7816L61.9368 35.7832C62.3426 36.1153 62.9143 36.2736 63.6369 36.2736H65.2182H65.3238V36.168V35.9606V35.855H65.2182H64.4241L64.1484 35.8048L64.1434 35.8039L64.1381 35.8036C63.9737 35.7898 63.7909 35.6784 63.5921 35.431C63.4202 35.1789 63.3277 34.8154 63.3277 34.3274V26.2133C63.3277 25.3481 63.1066 24.6315 62.6563 24.073L62.655 24.0713C62.3602 23.7212 61.8979 23.4625 61.2826 23.2864C60.6808 23.092 59.8999 22.9967 58.9446 22.9967C57.9674 22.9967 57.0714 23.3349 56.2595 24.0056C55.6102 24.5279 55.122 25.0876 54.7989 25.6855V23.2061V23.1004H54.693H52.8784H52.7727V23.2061V36.168V36.2736H52.8784H54.693H54.7989V36.168V26.9651C54.7989 26.3177 55.2136 25.5661 56.0891 24.7074L56.0901 24.7067C56.9544 23.8424 57.9219 23.4156 58.9964 23.4156C59.5204 23.4156 59.9522 23.4999 60.2966 23.6634C60.9502 24.0155 61.3018 24.8341 61.3018 26.1874V34.3274V34.3305V34.3336L61.3278 34.7743L61.9349 35.7816ZM51.1385 19.2088L51.236 19.2462L51.2746 19.1494L51.3784 18.8902L51.4201 18.786L51.3138 18.7506C49.5409 18.1597 47.7928 17.8638 46.0695 17.8638C44.3612 17.8638 43.0607 18.2644 42.1867 19.0845C41.3161 19.8842 40.8826 20.9332 40.8826 22.221C40.8826 23.8459 41.5566 25.1062 42.8998 25.9902C43.4925 26.391 44.1455 26.7565 44.8583 27.087L44.8606 27.0878C45.5693 27.3991 46.2696 27.7017 46.9614 27.9956L46.9624 27.996C47.6667 28.2882 48.3106 28.6058 48.8933 28.9486C50.1788 29.7097 50.8117 30.7573 50.8117 32.0979C50.8117 33.326 50.3265 34.2508 49.3559 34.8869C48.3912 35.5131 47.2195 35.829 45.8362 35.829C44.8966 35.829 43.9739 35.6926 43.0682 35.4191C42.1785 35.128 41.4563 34.7617 40.8983 34.322L40.8058 34.2493L40.7431 34.3493L40.6136 34.5567L40.5605 34.6416L40.6424 34.6993C42.1666 35.7678 44.0034 36.2997 46.1473 36.2997C47.2955 36.2997 48.3003 36.1693 49.1595 35.9061L49.1608 35.9058C50.0461 35.6226 50.7979 35.091 51.4148 34.3155C52.036 33.5345 52.3452 32.5947 52.3452 31.5017C52.3452 30.4025 52.1621 29.4941 51.7889 28.7829C51.4188 28.0607 50.9324 27.4934 50.3284 27.0849C49.735 26.6835 49.0815 26.3263 48.3674 26.0128C47.6567 25.7007 46.9458 25.4233 46.2348 25.1805C45.5474 24.9226 44.9123 24.6479 44.329 24.3564C43.0434 23.6795 42.4163 22.7354 42.4163 21.521C42.4163 20.5148 42.7917 19.7347 43.5409 19.1686C44.2939 18.5995 45.3485 18.3085 46.7178 18.3085C48.1021 18.3085 49.5758 18.6076 51.1385 19.2088ZM65.8777 24.8164C64.6778 26.0339 64.0841 27.7407 64.0841 29.9204C64.0841 32.0982 64.6593 33.7306 65.8297 34.7947C66.9932 35.8521 68.4976 36.3775 70.3338 36.3775C72.1907 36.3775 73.7224 35.7719 74.9195 34.5576C76.1369 33.3402 76.7393 31.6337 76.7393 29.4538C76.7393 27.276 76.164 25.6436 74.9935 24.5796C73.8296 23.5217 72.3165 22.9967 70.4633 22.9967C68.6231 22.9967 67.0916 23.6024 65.8777 24.8164ZM67.3335 25.1358L67.3341 25.1352C68.1808 23.9837 69.2393 23.4156 70.5151 23.4156C71.7974 23.4156 72.8207 23.9028 73.5951 24.8791C74.3684 25.8542 74.7645 27.3724 74.7645 29.4538C74.7645 31.5141 74.3352 33.1137 73.4894 34.2644C72.643 35.3987 71.5842 35.9588 70.3078 35.9588C69.0257 35.9588 68.0021 35.4715 67.2277 34.4952C66.4544 33.5198 66.0583 32.0101 66.0583 29.9463C66.0583 27.8681 66.4879 26.2689 67.3335 25.1358ZM94.4015 23.2869L94.3248 23.3641L94.4045 23.4388C94.6534 23.6721 94.7858 24.0205 94.7858 24.5023C94.7858 24.9887 94.685 25.402 94.488 25.746L94.4865 25.75L94.4842 25.7542L90.8325 33.6628L86.9544 23.1695L86.9289 23.1004H86.8552H85.0406H84.8887L84.9413 23.2424L85.8851 25.8199L82.277 33.6625L78.3997 23.1695L78.3734 23.1004H78.2997H76.4851H76.3332L76.3866 23.243L81.2084 36.205L81.234 36.2736H81.3069H81.5664H81.6348L81.6626 36.2119L86.119 26.4124L89.7632 36.205L89.7887 36.2736H89.8624H90.1211H90.1895L90.2174 36.2119L94.9362 25.8423L94.9369 25.8402C95.149 25.3447 95.2565 24.8553 95.2565 24.3727C95.2565 24.2435 95.2385 24.1072 95.2031 23.9642C95.1813 23.8051 95.1031 23.6364 94.9798 23.4596C94.9271 23.372 94.8775 23.299 94.8301 23.2421C94.7835 23.1862 94.7331 23.1385 94.679 23.1115L94.6113 23.0775L94.5572 23.1313L94.4015 23.2869Z" fill="black"/>
<path d="M61.9349 35.7816C61.5617 35.4617 61.3476 35.1265 61.3278 34.7743M61.9349 35.7816L61.3278 34.7743M61.9349 35.7816L61.9368 35.7832C62.3426 36.1153 62.9143 36.2736 63.6369 36.2736H65.2182H65.3238V36.168V35.9606V35.855H65.2182H64.4241L64.1484 35.8048L64.1434 35.8039L64.1381 35.8036C63.9737 35.7898 63.7909 35.6784 63.5921 35.431C63.4202 35.1789 63.3277 34.8154 63.3277 34.3274V26.2133C63.3277 25.3481 63.1066 24.6315 62.6563 24.073L62.655 24.0713C62.3602 23.7212 61.8979 23.4625 61.2826 23.2864C60.6808 23.092 59.8999 22.9967 58.9446 22.9967C57.9674 22.9967 57.0714 23.3349 56.2595 24.0056C55.6102 24.5279 55.122 25.0876 54.7989 25.6855V23.2061V23.1004H54.693H52.8784H52.7727V23.2061V36.168V36.2736H52.8784H54.693H54.7989V36.168V26.9651C54.7989 26.3177 55.2136 25.5661 56.0891 24.7074L56.0901 24.7067C56.9544 23.8424 57.9219 23.4156 58.9964 23.4156C59.5204 23.4156 59.9522 23.4999 60.2966 23.6634C60.9502 24.0155 61.3018 24.8341 61.3018 26.1874V34.3274V34.3305V34.3336L61.3278 34.7743M51.1385 19.2088L51.236 19.2462L51.2746 19.1494L51.3784 18.8902L51.4201 18.786L51.3138 18.7506C49.5409 18.1597 47.7928 17.8638 46.0695 17.8638C44.3612 17.8638 43.0607 18.2644 42.1867 19.0845C41.3161 19.8842 40.8826 20.9332 40.8826 22.221C40.8826 23.8459 41.5566 25.1062 42.8998 25.9902C43.4925 26.391 44.1455 26.7565 44.8583 27.087L44.8606 27.0878C45.5693 27.3991 46.2696 27.7017 46.9614 27.9956L46.9624 27.996C47.6667 28.2882 48.3106 28.6058 48.8933 28.9486C50.1788 29.7097 50.8117 30.7573 50.8117 32.0979C50.8117 33.326 50.3265 34.2508 49.3559 34.8869C48.3912 35.5131 47.2195 35.829 45.8362 35.829C44.8966 35.829 43.9739 35.6926 43.0682 35.4191C42.1785 35.128 41.4563 34.7617 40.8983 34.322L40.8058 34.2493L40.7431 34.3493L40.6136 34.5567L40.5605 34.6416L40.6424 34.6993C42.1666 35.7678 44.0034 36.2997 46.1473 36.2997C47.2955 36.2997 48.3003 36.1693 49.1595 35.9061L49.1608 35.9058C50.0461 35.6226 50.7979 35.091 51.4148 34.3155C52.036 33.5345 52.3452 32.5947 52.3452 31.5017C52.3452 30.4025 52.1621 29.4941 51.7889 28.7829C51.4188 28.0607 50.9324 27.4934 50.3284 27.0849C49.735 26.6835 49.0815 26.3263 48.3674 26.0128C47.6567 25.7007 46.9458 25.4233 46.2348 25.1805C45.5474 24.9226 44.9123 24.6479 44.329 24.3564C43.0434 23.6795 42.4163 22.7354 42.4163 21.521C42.4163 20.5148 42.7917 19.7347 43.5409 19.1686C44.2939 18.5995 45.3485 18.3085 46.7178 18.3085C48.1021 18.3085 49.5758 18.6076 51.1385 19.2088ZM65.8777 24.8164C64.6778 26.0339 64.0841 27.7407 64.0841 29.9204C64.0841 32.0982 64.6593 33.7306 65.8297 34.7947C66.9932 35.8521 68.4976 36.3775 70.3338 36.3775C72.1907 36.3775 73.7224 35.7719 74.9195 34.5576C76.1369 33.3402 76.7393 31.6337 76.7393 29.4538C76.7393 27.276 76.164 25.6436 74.9935 24.5796C73.8296 23.5217 72.3165 22.9967 70.4633 22.9967C68.6231 22.9967 67.0916 23.6024 65.8777 24.8164ZM67.3335 25.1358L67.3341 25.1352C68.1808 23.9837 69.2393 23.4156 70.5151 23.4156C71.7974 23.4156 72.8207 23.9028 73.5951 24.8791C74.3684 25.8542 74.7645 27.3724 74.7645 29.4538C74.7645 31.5141 74.3352 33.1137 73.4894 34.2644C72.643 35.3987 71.5842 35.9588 70.3078 35.9588C69.0257 35.9588 68.0021 35.4715 67.2277 34.4952C66.4544 33.5198 66.0583 32.0101 66.0583 29.9463C66.0583 27.8681 66.4879 26.2689 67.3335 25.1358ZM94.4015 23.2869L94.3248 23.3641L94.4045 23.4388C94.6534 23.6721 94.7858 24.0205 94.7858 24.5023C94.7858 24.9887 94.685 25.402 94.488 25.746L94.4865 25.75L94.4842 25.7542L90.8325 33.6628L86.9544 23.1695L86.9289 23.1004H86.8552H85.0406H84.8887L84.9413 23.2424L85.8851 25.8199L82.277 33.6625L78.3997 23.1695L78.3734 23.1004H78.2997H76.4851H76.3332L76.3866 23.243L81.2084 36.205L81.234 36.2736H81.3069H81.5664H81.6348L81.6626 36.2119L86.119 26.4124L89.7632 36.205L89.7887 36.2736H89.8624H90.1211H90.1895L90.2174 36.2119L94.9362 25.8423L94.9369 25.8402C95.149 25.3447 95.2565 24.8553 95.2565 24.3727C95.2565 24.2435 95.2385 24.1072 95.2031 23.9642C95.1813 23.8051 95.1031 23.6364 94.9798 23.4596C94.9271 23.372 94.8775 23.299 94.8301 23.2421C94.7835 23.1862 94.7331 23.1385 94.679 23.1115L94.6113 23.0775L94.5572 23.1313L94.4015 23.2869Z" stroke="black" stroke-width="0.211469"/>
<path d="M99.2701 18.2087C99.7566 17.4629 100.546 16.8852 101.641 16.8341L101.413 34.5077V34.509C101.413 34.6689 101.462 34.8407 101.553 35.023C101.979 35.8744 102.994 36.2736 104.525 36.2736H105.329H105.435V36.1679V35.9606V35.855H105.329H104.535L104.259 35.8048L104.254 35.8038L104.249 35.8035C104.084 35.7898 103.902 35.6784 103.703 35.431C103.531 35.1788 103.438 34.8153 103.438 34.3274V16.751V16.647L103.335 16.6453L101.75 16.6194L101.644 16.6177V16.6208C99.8702 16.6527 98.5579 17.0699 97.7337 17.8943C96.8915 18.7189 96.4839 20.0935 96.4839 21.9876V23.1004H96.0455H95.9395V23.2061V23.625V23.7307H96.0455H96.4839V36.1679V36.2736H96.5899H98.4045H98.5098V36.1679V23.7307H100.452H100.557V23.625V23.2061V23.1004H100.452H98.5098V21.9876C98.5098 20.2125 98.7692 18.9602 99.2701 18.2096V18.2087ZM113.075 29.8311C112.721 29.8028 112.333 29.7887 111.91 29.7887C111.44 29.7887 110.928 29.8148 110.373 29.8668C109.254 29.9362 108.329 30.0664 107.599 30.2588C106.871 30.4509 106.326 30.7074 105.979 31.0361C105.645 31.3524 105.43 31.6541 105.353 31.9411C105.282 32.2076 105.245 32.4589 105.245 32.6944C105.245 32.9073 105.264 33.1202 105.299 33.3329C105.448 34.3368 105.841 35.1026 106.485 35.6157C107.127 36.1278 108.007 36.3775 109.11 36.3775C110.058 36.3775 110.883 36.1821 111.58 35.7869C112.175 35.4495 112.673 34.969 113.075 34.348V34.509C113.075 34.8319 113.302 35.1867 113.702 35.569C114.166 36.05 115.008 36.2736 116.188 36.2736H116.991H117.097V36.1679V35.9606V35.855H116.991H116.197L115.922 35.8048L115.916 35.8038L115.911 35.8035C115.746 35.7898 115.564 35.6784 115.365 35.431C115.193 35.1788 115.1 34.8153 115.1 34.3274V25.643C115.1 25.0585 114.863 24.5073 114.4 23.9912C114.096 23.6511 113.639 23.4033 113.04 23.2402C112.44 23.077 111.691 22.9967 110.795 22.9967C109.189 22.9967 107.61 23.3547 106.059 24.0692L105.954 24.1175L106.012 24.2178L106.115 24.3992L106.167 24.4906L106.259 24.4388C106.644 24.2209 107.256 23.999 108.101 23.7749L108.102 23.7745C108.96 23.5342 109.702 23.4155 110.329 23.4155C110.96 23.4155 111.463 23.501 111.842 23.666L111.846 23.6675C112.234 23.8194 112.488 23.9994 112.627 24.1996C112.777 24.417 112.894 24.6421 112.978 24.8749L112.979 24.8793L112.981 24.8836C113.08 25.0975 113.105 25.2621 113.078 25.3854C113.059 25.4566 113.049 25.5201 113.049 25.5717C113.049 25.5975 113.051 25.6268 113.062 25.6548C113.065 25.6638 113.069 25.6732 113.075 25.6825V29.8311ZM107.323 33.3075V33.3059C107.306 33.1356 107.298 32.9838 107.298 32.8499C107.298 32.1079 107.492 31.5399 107.866 31.1326C108.048 30.9347 108.343 30.7606 108.763 30.6166C109.181 30.473 109.715 30.3619 110.367 30.2847C110.829 30.2333 111.292 30.2076 111.755 30.2076C112.202 30.2076 112.642 30.2224 113.075 30.2522V33.2858C113.025 33.8312 112.653 34.4198 111.919 35.0509C111.212 35.6574 110.415 35.9587 109.525 35.9587C108.86 35.9587 108.353 35.7395 107.993 35.3092C107.628 34.8749 107.4 34.2126 107.323 33.3075ZM119.301 16.7251V16.6194H119.195H117.38H117.275V16.7251V36.1679V36.2736H117.38H119.195H119.301V36.1679V29.96L119.885 29.2896L124.603 36.2275L124.635 36.2736H124.691H126.506H126.705L126.593 36.1087L121.066 27.9846L125.237 23.2762L125.393 23.1004H125.158H124.899H124.852L124.819 23.1359L119.301 29.3567V16.7251ZM136.675 35.245L136.634 35.1515L136.539 35.1879C135.205 35.701 133.68 35.9587 131.963 35.9587C130.77 35.9587 129.807 35.4739 129.066 34.4973C128.343 33.522 127.972 31.9773 127.972 29.8426C127.972 29.3787 127.995 28.93 128.039 28.4966H137.199H137.305V28.3908V28.3899V28.3889V28.3878V28.3869V28.3858V28.3847V28.3838V28.3828V28.3817V28.3808V28.3797V28.3787V28.3777V28.3767V28.3756V28.3747V28.3736V28.3726V28.3717V28.3706V28.3696V28.3686V28.3676V28.3665V28.3656V28.3645V28.3635V28.3625V28.3615V28.3605V28.3595V28.3585V28.3574V28.3564V28.3554V28.3544V28.3534V28.3524V28.3514V28.3504V28.3493V28.3483V28.3473V28.3463V28.3453V28.3443V28.3433V28.3423V28.3413V28.3402V28.3392V28.3382V28.3372V28.3362V28.3352V28.3341V28.3332V28.3321V28.3311V28.3301V28.3291V28.328V28.3271V28.3261V28.325V28.3241V28.323V28.322V28.321V28.32V28.3189V28.318V28.3169V28.3159V28.3149V28.3139V28.3129V28.3119V28.3108V28.3098V28.3089V28.3078V28.3068V28.3058V28.3048V28.3038V28.3028V28.3017V28.3007V28.2997V28.2987V28.2977V28.2967V28.2957V28.2947V28.2936V28.2926V28.2916V28.2906V28.2896V28.2886V28.2876V28.2865V28.2856V28.2846V28.2835V28.2825V28.2815V28.2805V28.2795V28.2785V28.2774V28.2765V28.2754V28.2744V28.2734V28.2724V28.2713V28.2704V28.2693V28.2683V28.2674V28.2663V28.2653V28.2643V28.2633V28.2622V28.2613V28.2602V28.2592V28.2582V28.2572V28.2562V28.2552V28.2541V28.2531V28.2521V28.2511V28.2501V28.2491V28.2481V28.2471V28.2461V28.245V28.244V28.243V28.242V28.241V28.24V28.239V28.238V28.2369V28.2359V28.2349V28.2339V28.2329V28.2319V28.2309V28.2298V28.2289V28.2279V28.2268V28.2258V28.2248V28.2237V28.2228V28.2218V28.2207V28.2198V28.2187V28.2177V28.2167V28.2157V28.2146V28.2137V28.2126V28.2116V28.2107V28.2096V28.2086V28.2076V28.2065V28.2055V28.2046V28.2035V28.2025V28.2015V28.2005V28.1995V28.1985V28.1974V28.1964V28.1954V28.1944V28.1934V28.1924V28.1914V28.1904V28.1894V28.1883V28.1873V28.1863V28.1853V28.1843V28.1833V28.1823V28.1813V28.1802V28.1792V28.1782V28.1772V28.1762V28.1752V28.1742V28.1731V28.1722V28.1711V28.1701V28.1691V28.1681V28.167V28.1661V28.1651V28.164V28.1631V28.162V28.161V28.16V28.159V28.1579V28.157V28.1559V28.1549V28.1539V28.1529V28.1519V28.1509V28.1498V28.1488V28.1479V28.1468V28.1458V28.1448V28.1437V28.1428V28.1418V28.1407V28.1397V28.1387V28.1377V28.1367V28.1357V28.1347V28.1337V28.1326V28.1316C137.305 26.4514 136.814 25.1655 135.817 24.2931C134.828 23.4276 133.61 22.9967 132.17 22.9967C130.38 22.9967 128.9 23.6032 127.739 24.818C126.574 26.0357 125.998 27.7416 125.998 29.9204C125.998 32.0969 126.547 33.7287 127.664 34.7928C128.776 35.8515 130.212 36.3775 131.963 36.3775C133.719 36.3775 135.296 36.108 136.693 35.5667L136.795 35.5272L136.752 35.4265L136.675 35.245ZM134.394 24.5674C134.982 25.319 135.299 26.4831 135.329 28.0778H128.092C128.306 26.6287 128.779 25.4977 129.501 24.6763C130.262 23.8303 131.117 23.4155 132.066 23.4155C133.018 23.4155 133.791 23.7973 134.394 24.5674Z" fill="black" stroke="black" stroke-width="0.211469"/>
<path d="M139.593 16.4529V17.1377H138.815V19.2214H138.076V17.1377H137.297V16.4529H139.593Z" fill="black"/>
<path d="M142.626 16.4114V19.2339H141.887V17.8642L141.346 18.5075H141.124L140.583 17.8642V19.2339H139.844V16.4114H140.105L141.235 17.6151L142.365 16.4114H142.626Z" fill="black"/>
<path fill-rule="evenodd" clip-rule="evenodd" d="M20.469 31.6585L20.4577 40.5597L22.3394 40.5622L22.3507 31.6194L25.7833 39.8773L27.5208 39.155L24.1118 30.9539L30.3837 37.242L31.716 35.9129L25.4172 29.598L33.6554 33.017L34.3764 31.2789L26.1374 27.8596H35.0579V25.9779H26.1588L34.3842 22.5809L33.6657 20.8416L25.4756 24.2242L31.7734 17.9907L30.4499 16.6534L24.0738 22.9642L27.5098 14.6771L25.7715 13.9564L22.3627 22.1781L22.374 13.2778L20.4923 13.2754L20.481 22.219L17.048 13.9605L15.3105 14.6827L18.7192 22.883L12.4476 16.5955L11.1154 17.9244L17.4145 24.2395L9.17614 20.8204L8.4549 22.5584L16.6944 25.9779H7.77344V27.8596H16.6732L8.44753 31.2568L9.16577 32.996L17.3556 29.6136L11.0579 35.847L12.3816 37.1843L18.7574 30.8738L15.3216 39.1604L17.0598 39.8811L20.469 31.6585Z" fill="black"/>
</g>
</svg>
