<svg width="152" height="55" viewBox="0 0 152 55" fill="none" xmlns="http://www.w3.org/2000/svg">
<mask id="mask0_33_205" style="mask-type:luminance" maskUnits="userSpaceOnUse" x="0" y="0" width="152" height="55">
<path d="M151.201 0H0.800781V54.144H151.201V0Z" fill="white"/>
</mask>
<g mask="url(#mask0_33_205)">
<path d="M62.4492 19.2883H65.6917V36.7475H62.4492V19.2883Z" fill="black"/>
<path d="M76.4247 23.2791C78.1039 23.2791 79.4508 23.7696 80.4652 24.7506C81.4797 25.7317 81.9865 27.1866 81.9865 29.1154V36.7475H78.8687V29.5146C78.8687 28.3505 78.5942 27.4776 78.046 26.8956C77.4971 26.2971 76.7157 25.9977 75.7015 25.9977C74.554 25.9977 73.6477 26.3469 72.9827 27.0453C72.3176 27.7271 71.9848 28.7165 71.9848 30.0133V36.7475H68.8672V23.4287H71.8353V25.1497C72.3508 24.5344 72.9994 24.0689 73.7809 23.753C74.5625 23.437 75.4437 23.2791 76.4247 23.2791Z" fill="black"/>
<path d="M96.9219 23.4287L91.2097 36.7475H87.9927L82.2812 23.4287H85.5231L89.6636 33.3056L93.929 23.4287H96.9219Z" fill="black"/>
<path d="M109.78 30.1629C109.78 30.3793 109.764 30.6866 109.73 31.0859H99.2792C99.4626 32.0668 99.9364 32.8484 100.701 33.4305C101.483 33.9959 102.447 34.2785 103.594 34.2785C105.058 34.2785 106.263 33.7961 107.211 32.8318L108.882 34.7523C108.284 35.4674 107.527 36.0077 106.613 36.3734C105.697 36.7394 104.667 36.9222 103.52 36.9222C102.056 36.9222 100.768 36.6312 99.6536 36.0494C98.5399 35.4674 97.6751 34.6607 97.06 33.6299C96.4607 32.5824 96.1621 31.4017 96.1621 30.0883C96.1621 28.7911 96.4531 27.6273 97.0352 26.5963C97.633 25.5487 98.4565 24.734 99.504 24.152C100.552 23.5701 101.732 23.2791 103.046 23.2791C104.342 23.2791 105.498 23.5701 106.513 24.152C107.544 24.7174 108.341 25.5238 108.907 26.5714C109.489 27.6023 109.78 28.7996 109.78 30.1629ZM103.046 25.7733C102.048 25.7733 101.2 26.0725 100.502 26.6712C99.8198 27.2531 99.404 28.0347 99.2543 29.0157H106.812C106.679 28.0513 106.271 27.2698 105.59 26.6712C104.908 26.0725 104.06 25.7733 103.046 25.7733Z" fill="black"/>
<path d="M114.495 25.3741C115.393 23.9774 116.973 23.5284 119.235 23.5284V26.0227C118.968 25.9727 118.728 25.9478 118.511 25.9478C117.297 25.9478 116.35 26.5298 115.668 27.2448C114.987 27.9431 114.645 28.9573 114.645 30.2877V36.7475H111.527V23.4287H114.495V25.3741Z" fill="black"/>
<path d="M129.751 36.0243C129.385 36.3235 128.937 36.5481 128.405 36.6977C127.889 36.8476 127.34 36.9222 126.758 36.9222C125.295 36.9222 124.165 36.5399 123.366 35.775C122.568 35.0101 122.169 33.8959 122.169 32.4328V26.0226H119.975V23.5285H122.169V20.4856H125.287V23.5285H128.853V26.0226H125.287V32.3579C125.287 33.0065 125.445 33.505 125.76 33.8544C126.076 34.1869 126.534 34.3534 127.132 34.3534C127.831 34.3534 128.413 34.1703 128.878 33.8046L129.751 36.0243Z" fill="black"/>
<path fill-rule="evenodd" clip-rule="evenodd" d="M54.2953 28.0695C54.2953 36.9031 47.1345 44.0638 38.3009 44.0638C29.4676 44.0638 22.3066 36.9031 22.3066 28.0695C22.3066 19.2361 29.4676 12.0752 38.3009 12.0752C47.1345 12.0752 54.2953 19.2361 54.2953 28.0695ZM49.2686 28.0695C49.2686 34.1266 44.3584 39.0369 38.3013 39.0369C37.8813 39.0369 37.4668 39.0134 37.0591 38.9676C42.5712 38.3884 46.867 33.7262 46.867 28.0604C46.867 22.4233 42.6138 17.7794 37.1415 17.1626C37.5226 17.1225 37.9096 17.102 38.3013 17.102C44.3584 17.102 49.2686 22.0123 49.2686 28.0695ZM34.7593 35.7948C38.374 35.1563 41.1235 31.9405 41.1235 28.0695C41.1235 24.1984 38.374 20.9826 34.7593 20.3443C35.1967 20.2686 35.6466 20.2291 36.1056 20.2291C40.4357 20.2291 43.946 23.7394 43.946 28.0695C43.946 32.3996 40.4357 35.9098 36.1056 35.9098C35.6466 35.9098 35.1967 35.8704 34.7593 35.7948Z" fill="black"/>
</g>
</svg>
