<svg width="151" height="55" viewBox="0 0 151 55" fill="none" xmlns="http://www.w3.org/2000/svg">
<path d="M50.1875 36.4517H44V18.9972H50.2386C51.9943 18.9972 53.5057 19.3466 54.7727 20.0455C56.0398 20.7386 57.0142 21.7358 57.696 23.0369C58.3835 24.3381 58.7273 25.8949 58.7273 27.7074C58.7273 29.5256 58.3835 31.0881 57.696 32.3949C57.0142 33.7017 56.0341 34.7045 54.7557 35.4034C53.483 36.1023 51.9602 36.4517 50.1875 36.4517ZM47.6903 33.2898H50.0341C51.125 33.2898 52.0426 33.0966 52.7869 32.7102C53.5369 32.3182 54.0994 31.7131 54.4744 30.8949C54.8551 30.071 55.0455 29.0085 55.0455 27.7074C55.0455 26.4176 54.8551 25.3636 54.4744 24.5455C54.0994 23.7273 53.5398 23.125 52.7955 22.7386C52.0511 22.3523 51.1335 22.1591 50.0426 22.1591H47.6903V33.2898Z" fill="black"/>
<path d="M67.3587 36.7074C66.0121 36.7074 64.853 36.4347 63.8814 35.8892C62.9155 35.3381 62.1712 34.5597 61.6484 33.554C61.1257 32.5426 60.8643 31.3466 60.8643 29.9659C60.8643 28.6193 61.1257 27.4375 61.6484 26.4205C62.1712 25.4034 62.907 24.6108 63.8558 24.0426C64.8104 23.4744 65.9297 23.1903 67.2138 23.1903C68.0774 23.1903 68.8814 23.3295 69.6257 23.608C70.3757 23.8807 71.0291 24.2926 71.5859 24.8438C72.1484 25.3949 72.5859 26.0881 72.8984 26.9233C73.2109 27.7528 73.3672 28.7244 73.3672 29.8381V30.8352H62.3132V28.5852H69.9496C69.9496 28.0625 69.8359 27.5994 69.6087 27.196C69.3814 26.7926 69.0661 26.4773 68.6626 26.25C68.2649 26.017 67.8018 25.9006 67.2734 25.9006C66.7223 25.9006 66.2337 26.0284 65.8075 26.2841C65.3871 26.5341 65.0575 26.8722 64.8189 27.2983C64.5803 27.7188 64.4581 28.1875 64.4524 28.7045V30.8438C64.4524 31.4915 64.5717 32.0511 64.8104 32.5227C65.0547 32.9943 65.3984 33.358 65.8416 33.6136C66.2848 33.8693 66.8104 33.9972 67.4183 33.9972C67.8217 33.9972 68.1911 33.9403 68.5263 33.8267C68.8615 33.7131 69.1484 33.5426 69.3871 33.3153C69.6257 33.0881 69.8075 32.8097 69.9325 32.4801L73.2905 32.7017C73.12 33.5085 72.7706 34.2131 72.2422 34.8153C71.7195 35.4119 71.0433 35.8778 70.2138 36.2131C69.3899 36.5426 68.4382 36.7074 67.3587 36.7074Z" fill="black"/>
<path d="M87.5895 23.3608L83.0128 36.4517H78.9219L74.3452 23.3608H78.1804L80.8992 32.7273H81.0355L83.7457 23.3608H87.5895Z" fill="black"/>
<path d="M93.4446 36.4517L88.4503 18.9972H92.4815L95.3707 31.125H95.5156L98.7031 18.9972H102.155L105.334 31.1506H105.487L108.376 18.9972H112.408L107.413 36.4517H103.817L100.493 25.0398H100.357L97.0412 36.4517H93.4446Z" fill="black"/>
<path d="M114.315 36.4517V23.3608H117.945V36.4517H114.315ZM116.138 21.6733C115.599 21.6733 115.136 21.4943 114.749 21.1364C114.369 20.7727 114.178 20.3381 114.178 19.8324C114.178 19.3324 114.369 18.9034 114.749 18.5455C115.136 18.1818 115.599 18 116.138 18C116.678 18 117.138 18.1818 117.519 18.5455C117.906 18.9034 118.099 19.3324 118.099 19.8324C118.099 20.3381 117.906 20.7727 117.519 21.1364C117.138 21.4943 116.678 21.6733 116.138 21.6733Z" fill="black"/>
<path d="M131.746 27.0938L128.422 27.2983C128.365 27.0142 128.243 26.7585 128.055 26.5312C127.868 26.2983 127.621 26.1136 127.314 25.9773C127.013 25.8352 126.652 25.7642 126.232 25.7642C125.669 25.7642 125.195 25.8835 124.808 26.1222C124.422 26.3551 124.229 26.6676 124.229 27.0597C124.229 27.3722 124.354 27.6364 124.604 27.8523C124.854 28.0682 125.283 28.2415 125.891 28.3722L128.26 28.8494C129.533 29.1108 130.482 29.5313 131.107 30.1108C131.732 30.6903 132.044 31.4517 132.044 32.3949C132.044 33.2528 131.791 34.0057 131.286 34.6534C130.786 35.3011 130.098 35.8068 129.223 36.1705C128.354 36.5284 127.351 36.7074 126.214 36.7074C124.482 36.7074 123.101 36.3466 122.072 35.625C121.05 34.8977 120.45 33.9091 120.274 32.6591L123.845 32.4716C123.953 33 124.214 33.4034 124.629 33.6818C125.044 33.9545 125.575 34.0909 126.223 34.0909C126.859 34.0909 127.371 33.9688 127.757 33.7244C128.149 33.4744 128.348 33.1534 128.354 32.7614C128.348 32.4318 128.209 32.1619 127.936 31.9517C127.663 31.7358 127.243 31.571 126.675 31.4574L124.408 31.0057C123.129 30.75 122.178 30.3068 121.553 29.6761C120.933 29.0455 120.624 28.2415 120.624 27.2642C120.624 26.4233 120.851 25.6989 121.305 25.0909C121.766 24.483 122.411 24.0142 123.24 23.6847C124.075 23.3551 125.053 23.1903 126.172 23.1903C127.825 23.1903 129.126 23.5398 130.075 24.2386C131.03 24.9375 131.587 25.8892 131.746 27.0938Z" fill="black"/>
<path d="M140.296 36.7074C138.95 36.7074 137.79 36.4347 136.819 35.8892C135.853 35.3381 135.109 34.5597 134.586 33.554C134.063 32.5426 133.802 31.3466 133.802 29.9659C133.802 28.6193 134.063 27.4375 134.586 26.4205C135.109 25.4034 135.844 24.6108 136.793 24.0426C137.748 23.4744 138.867 23.1903 140.151 23.1903C141.015 23.1903 141.819 23.3295 142.563 23.608C143.313 23.8807 143.967 24.2926 144.523 24.8438C145.086 25.3949 145.523 26.0881 145.836 26.9233C146.148 27.7528 146.305 28.7244 146.305 29.8381V30.8352H135.251V28.5852H142.887C142.887 28.0625 142.773 27.5994 142.546 27.196C142.319 26.7926 142.004 26.4773 141.6 26.25C141.202 26.017 140.739 25.9006 140.211 25.9006C139.66 25.9006 139.171 26.0284 138.745 26.2841C138.325 26.5341 137.995 26.8722 137.756 27.2983C137.518 27.7188 137.396 28.1875 137.39 28.7045V30.8438C137.39 31.4915 137.509 32.0511 137.748 32.5227C137.992 32.9943 138.336 33.358 138.779 33.6136C139.222 33.8693 139.748 33.9972 140.356 33.9972C140.759 33.9972 141.129 33.9403 141.464 33.8267C141.799 33.7131 142.086 33.5426 142.325 33.3153C142.563 33.0881 142.745 32.8097 142.87 32.4801L146.228 32.7017C146.058 33.5085 145.708 34.2131 145.18 34.8153C144.657 35.4119 143.981 35.8778 143.151 36.2131C142.327 36.5426 141.376 36.7074 140.296 36.7074Z" fill="black"/>
<path fill-rule="evenodd" clip-rule="evenodd" d="M35.9265 29.0196C35.9751 28.5196 36 28.0127 36 27.5C36 27.1939 35.9911 26.8899 35.9736 26.5882H5.02637C5.00887 26.8899 5 27.1939 5 27.5C5 28.0127 5.02489 28.5196 5.07354 29.0196H35.9265ZM35.118 32.6666H5.88196C6.1812 33.5133 6.55191 34.3261 6.98684 35.098H34.0132C34.4481 34.3261 34.8188 33.5133 35.118 32.6666ZM31.1677 38.7451H9.8323C12.6112 41.3821 16.3666 43 20.5 43C24.6334 43 28.3888 41.3821 31.1677 38.7451ZM5.68128 22.9411H35.3187C35.0596 22.0978 34.7304 21.285 34.338 20.5098H6.66201C6.2696 21.285 5.94043 22.0978 5.68128 22.9411ZM9.22618 16.8627H31.7738C28.9478 13.8686 24.9421 12 20.5 12C16.0579 12 12.0522 13.8686 9.22618 16.8627Z" fill="black"/>
<path fill-rule="evenodd" clip-rule="evenodd" d="M35.9265 29.0196C35.9751 28.5196 36 28.0127 36 27.5C36 27.1939 35.9911 26.8899 35.9736 26.5882H5.02637C5.00887 26.8899 5 27.1939 5 27.5C5 28.0127 5.02489 28.5196 5.07354 29.0196H35.9265ZM35.118 32.6666H5.88196C6.1812 33.5133 6.55191 34.3261 6.98684 35.098H34.0132C34.4481 34.3261 34.8188 33.5133 35.118 32.6666ZM31.1677 38.7451H9.8323C12.6112 41.3821 16.3666 43 20.5 43C24.6334 43 28.3888 41.3821 31.1677 38.7451ZM5.68128 22.9411H35.3187C35.0596 22.0978 34.7304 21.285 34.338 20.5098H6.66201C6.2696 21.285 5.94043 22.0978 5.68128 22.9411ZM9.22618 16.8627H31.7738C28.9478 13.8686 24.9421 12 20.5 12C16.0579 12 12.0522 13.8686 9.22618 16.8627Z" fill="black"/>
</svg>
