<svg width="151" height="55" viewBox="0 0 151 55" fill="none" xmlns="http://www.w3.org/2000/svg">
<mask id="mask0_33_161" style="mask-type:luminance" maskUnits="userSpaceOnUse" x="0" y="0" width="151" height="55">
<path d="M151 0H0.599609V54.144H151V0Z" fill="white"/>
</mask>
<g mask="url(#mask0_33_161)">
<path d="M30.5671 42.6435H20.4473L30.5671 27.3403H40.687L30.5671 42.6435Z" fill="black"/>
<path d="M26.8647 11.5437H37.2313L26.8647 27.3404H16.498L26.8647 11.5437Z" fill="black"/>
<path d="M61.3321 24.8564C61.3321 25.7948 61.1058 26.6747 60.6533 27.496C60.2176 28.317 59.5222 28.979 58.5671 29.4818C57.6285 29.9845 56.4387 30.2359 54.9975 30.2359H52.0562V36.9726H48.5371V19.4268H54.9975C56.3549 19.4268 57.5112 19.6614 58.4664 20.1306C59.4218 20.5998 60.1338 21.245 60.6032 22.0662C61.0893 22.8873 61.3321 23.8175 61.3321 24.8564ZM54.8465 27.3953C55.8186 27.3953 56.5391 27.1776 57.0085 26.7416C57.4777 26.2894 57.7123 25.6609 57.7123 24.8564C57.7123 23.1471 56.7571 22.2924 54.8465 22.2924H52.0562V27.3953H54.8465Z" fill="black"/>
<path d="M66.3434 25.2084C66.7959 24.4711 67.3823 23.8928 68.103 23.4739C68.8404 23.055 69.6782 22.8455 70.6168 22.8455V26.5406H69.6866C68.5806 26.5406 67.7427 26.8003 67.173 27.3201C66.62 27.8396 66.3434 28.7444 66.3434 30.0348V36.9727H62.8242V23.0466H66.3434V25.2084Z" fill="black"/>
<path d="M78.1655 37.1989C76.8247 37.1989 75.6179 36.9057 74.5455 36.3193C73.473 35.716 72.6265 34.8695 72.0067 33.7802C71.4033 32.6908 71.1016 31.4342 71.1016 30.0096C71.1016 28.5853 71.4117 27.3283 72.0319 26.2391C72.6687 25.1497 73.5316 24.3118 74.621 23.7253C75.7103 23.1219 76.9255 22.8203 78.2663 22.8203C79.6064 22.8203 80.8216 23.1219 81.9105 23.7253C83.0002 24.3118 83.8544 25.1497 84.4748 26.2391C85.1118 27.3283 85.4299 28.5853 85.4299 30.0096C85.4299 31.4342 85.1035 32.6908 84.45 33.7802C83.8131 34.8695 82.9415 35.716 81.8353 36.3193C80.7464 36.9057 79.5229 37.1989 78.1655 37.1989ZM78.1655 34.132C78.8017 34.132 79.3973 33.9813 79.95 33.6798C80.5201 33.3614 80.9728 32.892 81.3074 32.272C81.6428 31.6519 81.8105 30.8978 81.8105 30.0096C81.8105 28.6857 81.4586 27.6719 80.7547 26.9679C80.0674 26.2473 79.2214 25.8872 78.2159 25.8872C77.2105 25.8872 76.3638 26.2473 75.6769 26.9679C75.0063 27.6719 74.6714 28.6857 74.6714 30.0096C74.6714 31.3335 74.998 32.3559 75.6517 33.0765C76.3216 33.7802 77.1601 34.132 78.1655 34.132Z" fill="black"/>
<path d="M90.5272 34.1824H94.3067V36.9726H87.0078V17.2649H90.5272V34.1824Z" fill="black"/>
<path d="M97.035 21.3875C96.4154 21.3875 95.8958 21.1948 95.4769 20.8093C95.0746 20.4071 94.873 19.9128 94.873 19.3262C94.873 18.7396 95.0746 18.2537 95.4769 17.8682C95.8958 17.4661 96.4154 17.2649 97.035 17.2649C97.6554 17.2649 98.1661 17.4661 98.5684 17.8682C98.9872 18.2537 99.197 18.7396 99.197 19.3262C99.197 19.9128 98.9872 20.4071 98.5684 20.8093C98.1661 21.1948 97.6554 21.3875 97.035 21.3875ZM98.7692 23.0466V36.9726H95.2506V23.0466H98.7692Z" fill="black"/>
<path d="M108.96 22.8455C110.619 22.8455 111.96 23.3734 112.982 24.4292C114.004 25.4681 114.515 26.9262 114.515 28.803V36.9727H110.996V29.2808C110.996 28.1746 110.719 27.3284 110.166 26.7416C109.613 26.1384 108.859 25.8368 107.904 25.8368C106.932 25.8368 106.161 26.1384 105.591 26.7416C105.038 27.3284 104.762 28.1746 104.762 29.2808V36.9727H101.242V23.0466H104.762V24.7811C105.231 24.1778 105.826 23.7085 106.547 23.3734C107.284 23.0214 108.088 22.8455 108.96 22.8455Z" fill="black"/>
<path d="M129.8 29.7081C129.8 30.2107 129.767 30.6633 129.7 31.0655H119.519C119.602 32.071 119.955 32.8585 120.575 33.4283C121.195 33.9982 121.958 34.2831 122.862 34.2831C124.169 34.2831 125.1 33.7215 125.653 32.5988H129.448C129.046 33.9395 128.275 35.0454 127.136 35.9171C125.996 36.7716 124.597 37.1989 122.938 37.1989C121.597 37.1989 120.391 36.9057 119.318 36.3193C118.262 35.716 117.433 34.8695 116.829 33.7802C116.243 32.6908 115.949 31.4342 115.949 30.0096C115.949 28.5684 116.243 27.3032 116.829 26.2139C117.416 25.1246 118.237 24.2866 119.293 23.7002C120.348 23.1136 121.564 22.8203 122.938 22.8203C124.262 22.8203 125.443 23.1052 126.482 23.675C127.538 24.2448 128.351 25.0575 128.92 26.1135C129.507 27.1524 129.8 28.3504 129.8 29.7081ZM126.155 28.7026C126.139 27.7975 125.812 27.0769 125.175 26.5405C124.539 25.9876 123.759 25.7112 122.838 25.7112C121.966 25.7112 121.228 25.9793 120.625 26.5156C120.039 27.0351 119.678 27.764 119.544 28.7026H126.155Z" fill="black"/>
</g>
</svg>
