<svg width="108" height="108" viewBox="0 0 108 108" fill="none" xmlns="http://www.w3.org/2000/svg">
<circle cx="54" cy="54" r="54" fill="black"/>
<g clip-path="url(#clip0_285_26890)">
<path d="M72.4375 53.5C72.4386 53.935 72.327 54.3629 72.1137 54.7421C71.9004 55.1212 71.5927 55.4387 71.2203 55.6637L48.145 69.7799C47.756 70.0181 47.3104 70.1482 46.8543 70.1566C46.3982 70.1651 45.9481 70.0516 45.5505 69.8279C45.1567 69.6077 44.8286 69.2866 44.6 68.8976C44.3715 68.5086 44.2507 68.0658 44.25 67.6146V39.3854C44.2507 38.9342 44.3715 38.4914 44.6 38.1024C44.8286 37.7134 45.1567 37.3923 45.5505 37.1721C45.9481 36.9484 46.3982 36.8349 46.8543 36.8434C47.3104 36.8518 47.756 36.9819 48.145 37.2201L71.2203 51.3363C71.5927 51.5613 71.9004 51.8788 72.1137 52.2579C72.327 52.6371 72.4386 53.065 72.4375 53.5Z" fill="white"/>
</g>
<defs>
<clipPath id="clip0_285_26890">
<rect width="41" height="41" fill="white" transform="translate(34 33)"/>
</clipPath>
</defs>
</svg>
