<svg width="32" height="32" viewBox="0 0 32 32" fill="none" xmlns="http://www.w3.org/2000/svg">
<g clip-path="url(#clip0_285_13350)">
<path d="M26 5H6C5.46957 5 4.96086 5.21071 4.58579 5.58579C4.21071 5.96086 4 6.46957 4 7V14.3462C4 25.5487 13.4775 29.2638 15.375 29.8937C15.7801 30.0324 16.2199 30.0324 16.625 29.8937C18.525 29.2625 28 25.5475 28 14.345V7C28 6.46957 27.7893 5.96086 27.4142 5.58579C27.0391 5.21071 26.5304 5 26 5ZM6.0825 16H16V7H26V14.3462C26.0004 14.8977 25.9729 15.4488 25.9175 15.9975H16V27.9975C14.4075 27.4662 6.94875 24.5325 6.0825 16Z" fill="black"/>
</g>
<defs>
<clipPath id="clip0_285_13350">
<rect width="32" height="32" fill="white"/>
</clipPath>
</defs>
</svg>
